<svg xmlns="http://www.w3.org/2000/svg" width="100%" height="100%" viewBox="0 0 637.052 528.913">
    <defs>
        <style>
            .prefix__cls-1,.prefix__cls-2{fill:#0d7fbc}.prefix__cls-2{opacity:.3;mix-blend-mode:multiply;isolation:isolate}.prefix__cls-3{fill:#31add3}.prefix__cls-4{fill:#ffd31d}.prefix__cls-7{fill:#eb4559}.prefix__cls-8{fill:#ffa06a}.prefix__cls-9{fill:#7ad6eb}.prefix__cls-11{fill:#d0f5fd}
        </style>
    </defs>
    <g id="prefix__Group_6648" data-name="Group 6648" transform="translate(-1028.643 -1455.698)">
        <g id="prefix__Group_6603" data-name="Group 6603" transform="translate(1206.021 1555)">
            <path id="prefix__Path_19972" d="M349.021 296.264a26.261 26.261 0 0 0-27.136 0l-28.8 17.381a26.261 26.261 0 0 1-39.062-16.178l-8.071-32.653c-.094-.381-.245-.732-.355-1.106l-40.073 110.106a8.034 8.034 0 0 0 10.768 10.11l45.588-19.917a8.034 8.034 0 0 1 10.413 3.79l22.117 44.559a8.035 8.035 0 0 0 14.749-.823L350.737 297.3z" class="prefix__cls-1" data-name="Path 19972" transform="translate(-174.15 5.178)"/>
            <path id="prefix__Path_19973" d="M326.379 296.264a26.261 26.261 0 0 0-27.136 0l-28.8 17.381a26.261 26.261 0 0 1-39.062-16.178l-8.071-32.653c-.094-.381-.245-.732-.355-1.106l-7.765 21.339 7.01 28.359a29.221 29.221 0 0 0 43.466 18l32.043-19.342a29.182 29.182 0 0 1 25.784-2.129l4.6-12.639z" class="prefix__cls-2" data-name="Path 19973" transform="translate(-151.508 5.178)"/>
            <g id="prefix__Group_6586" data-name="Group 6586" transform="translate(146.222 268.528)">
                <path id="prefix__Path_19974" d="M337.287 297.714a26.262 26.262 0 0 1-39.062 16.178l-28.8-17.381a26.261 26.261 0 0 0-27.136 0l-1.513.913 41.591 114.271a8.073 8.073 0 0 0 14.82.826l22.059-44.443a8.078 8.078 0 0 1 10.468-3.81l45.466 19.868A8.076 8.076 0 0 0 386 373.974L345.829 263.6c-.152.49-.348.961-.471 1.465z" class="prefix__cls-3" data-name="Path 19974" transform="translate(-240.778 -263.597)"/>
            </g>
            <path id="prefix__Polygon_3" d="M399.119 184.141a26.261 26.261 0 0 1 39.062 16.178l8.071 32.652a26.258 26.258 0 0 0 19.191 19.191l32.653 8.071a26.257 26.257 0 0 1 16.178 39.059l-17.381 28.8a26.252 26.252 0 0 0 0 27.139l17.381 28.8a26.26 26.26 0 0 1-16.174 39.055l-32.653 8.071a26.258 26.258 0 0 0-19.191 19.191L438.181 483a26.262 26.262 0 0 1-39.062 16.178l-28.8-17.381a26.261 26.261 0 0 0-27.136 0l-28.8 17.381A26.261 26.261 0 0 1 275.325 483l-8.071-32.652a26.259 26.259 0 0 0-19.188-19.191l-32.652-8.071a26.251 26.251 0 0 1-16.178-39.059l17.378-28.8a26.252 26.252 0 0 0 0-27.139L199.236 299.3a26.255 26.255 0 0 1 16.178-39.059l32.652-8.074a26.255 26.255 0 0 0 19.188-19.188l8.071-32.653a26.253 26.253 0 0 1 39.062-16.181l28.8 17.381a26.26 26.26 0 0 0 27.136 0z" class="prefix__cls-4" data-name="Polygon 3" transform="translate(-195.451 -180.356)"/>
            <g id="prefix__Ellipse_415" data-name="Ellipse 415" transform="translate(46.483 46.487)">
                <g id="prefix__Group_6587" data-name="Group 6587">
                    <path id="prefix__Path_19975" d="M325.992 427.03A116.132 116.132 0 1 1 442.124 310.9a116.266 116.266 0 0 1-116.132 116.13zm0-222.586A106.454 106.454 0 1 0 432.447 310.9a106.574 106.574 0 0 0-106.455-106.456z" data-name="Path 19975" transform="translate(-209.86 -194.766)" style="fill:#ebb80b"/>
                </g>
            </g>
            <path id="prefix__Path_19976" d="M345.829 263.6c-.152.49-.348.961-.471 1.465l-8.071 32.653a26.262 26.262 0 0 1-39.062 16.178l-28.8-17.381a26.261 26.261 0 0 0-27.136 0l-1.513.913 4.616 12.684a29.187 29.187 0 0 1 25.565 2.206l32.046 19.342a29.219 29.219 0 0 0 43.462-18l7.11-28.762z" class="prefix__cls-2" data-name="Path 19976" transform="translate(-94.556 4.931)"/>
        </g>
        <text id="prefix___20" data-name="20" transform="translate(1366 1758)" style="fill:#232a36;font-size:101px;font-family:Oswald-SemiBold,Oswald;font-weight:600;letter-spacing:-.01em;opacity:.796;mix-blend-mode:multiply;isolation:isolate">
            <tspan x="-52.47" y="0">20</tspan>
        </text>
        <path id="prefix__Rectangle_9232" d="M0 0H15V6.176H0z" class="prefix__cls-7" data-name="Rectangle 9232" transform="rotate(45 -1204.768 2755.015)"/>
        <path id="prefix__Rectangle_9233" d="M0 0H24V9.882H0z" class="prefix__cls-8" data-name="Rectangle 9233" transform="rotate(-23 4601.873 -2908.343)"/>
        <path id="prefix__Rectangle_9234" d="M0 0H18V7.412H0z" class="prefix__cls-3" data-name="Rectangle 9234" transform="rotate(133 457.04 1226.431)"/>
        <path id="prefix__Rectangle_9235" d="M0 0H18V7.412H0z" class="prefix__cls-4" data-name="Rectangle 9235" transform="rotate(133 335.98 1018.62)"/>
        <path id="prefix__Rectangle_9236" d="M0 0H15V6.176H0z" class="prefix__cls-9" data-name="Rectangle 9236" transform="rotate(131 340.331 1346.656)"/>
        <path id="prefix__Rectangle_9237" d="M0 0H15V6.176H0z" class="prefix__cls-1" data-name="Rectangle 9237" transform="rotate(156 613.848 1094.497)"/>
        <path id="prefix__Rectangle_9238" d="M0 0H18V7.412H0z" class="prefix__cls-4" data-name="Rectangle 9238" transform="rotate(41 -1572.419 3063.109)"/>
        <path id="prefix__Rectangle_9239" d="M0 0H24V9.882H0z" class="prefix__cls-4" data-name="Rectangle 9239" transform="rotate(137 270.005 1014.856)"/>
        <path id="prefix__Rectangle_9240" d="M0 0H14V14H0z" class="prefix__cls-4" data-name="Rectangle 9240" transform="rotate(30 -2353.155 3749.304)"/>
        <path id="prefix__Polygon_25" d="M9 0l2.925 5.4L18 6.493l-4.267 4.431.829 6.076L9 14.339 3.438 17l.83-6.076L0 6.493 6.075 5.4z" class="prefix__cls-7" data-name="Polygon 25" transform="rotate(14.98 -5213.526 4960.494)"/>
        <path id="prefix__Polygon_26" d="M7.5 0l2.438 4.566L15 5.491l-3.556 3.747.691 5.137-4.635-2.25-4.635 2.25.691-5.137L0 5.491l5.062-.925z" class="prefix__cls-8" data-name="Polygon 26" transform="rotate(14.98 -6448.193 6790.527)"/>
        <path id="prefix__Polygon_27" d="M9 0l2.925 5.4L18 6.493l-4.267 4.431.829 6.076L9 14.339 3.438 17l.83-6.076L0 6.493 6.075 5.4z" class="prefix__cls-9" data-name="Polygon 27" transform="rotate(14.98 -6397.532 5382.332)"/>
        <path id="prefix__Polygon_28" d="M9 0l2.925 5.4L18 6.493l-4.267 4.431.829 6.076L9 14.339 3.438 17l.83-6.076L0 6.493 6.075 5.4z" class="prefix__cls-9" data-name="Polygon 28" transform="rotate(14.98 -5282.755 6668.423)"/>
        <circle id="prefix__Ellipse_54" cx="6" cy="6" r="6" class="prefix__cls-3" data-name="Ellipse 54" transform="translate(1483 1501)"/>
        <circle id="prefix__Ellipse_55" cx="6" cy="6" r="6" class="prefix__cls-4" data-name="Ellipse 55" transform="translate(1149 1691)"/>
        <circle id="prefix__Ellipse_56" cx="6" cy="6" r="6" class="prefix__cls-9" data-name="Ellipse 56" transform="translate(1083 1904)"/>
        <circle id="prefix__Ellipse_57" cx="6" cy="6" r="6" class="prefix__cls-1" data-name="Ellipse 57" transform="translate(1571 1754)"/>
        <path id="prefix__Polygon_29" d="M9.412 0l9.412 16H0z" class="prefix__cls-7" data-name="Polygon 29" transform="rotate(-30 3650.332 -2182.42)"/>
        <path id="prefix__Polygon_30" d="M9.412 0l9.412 16H0z" class="prefix__cls-8" data-name="Polygon 30" transform="rotate(-30 3953.65 -1187.147)"/>
        <path id="prefix__Rectangle_9241" d="M0 0H18V7.412H0z" class="prefix__cls-7" data-name="Rectangle 9241" transform="rotate(14.98 -6072.394 4965.855)"/>
        <path id="prefix__Rectangle_9242" d="M0 0H24V9.882H0z" class="prefix__cls-7" data-name="Rectangle 9242" transform="rotate(120 118.006 1152.683)"/>
        <path id="prefix__Rectangle_9243" d="M0 0H24V9.882H0z" class="prefix__cls-7" data-name="Rectangle 9243" transform="rotate(45.97 -1392.202 2710.465)"/>
        <path id="prefix__Rectangle_9244" d="M0 0H24V9.882H0z" class="prefix__cls-4" data-name="Rectangle 9244" transform="rotate(36 -1608.631 3313.208)"/>
        <path id="prefix__Rectangle_9245" d="M0 0H24V9.882H0z" class="prefix__cls-9" data-name="Rectangle 9245" transform="rotate(36 -1526.85 2920.997)"/>
        <path id="prefix__Rectangle_9246" d="M0 0H15V6.176H0z" data-name="Rectangle 9246" transform="rotate(-21 5568.08 -1944.564)" style="fill:#0f579f"/>
        <path id="prefix__Rectangle_9247" d="M0 0H24V9.882H0z" class="prefix__cls-9" data-name="Rectangle 9247" transform="rotate(-159 760.158 673.047)"/>
        <path id="prefix__Rectangle_9248" d="M0 0H18V7.412H0z" class="prefix__cls-4" data-name="Rectangle 9248" transform="rotate(45 -1333.242 2056.7)"/>
        <path id="prefix__Rectangle_9249" d="M0 0H24V9.882H0z" class="prefix__cls-1" data-name="Rectangle 9249" transform="scale(-1) rotate(-51 -2421.561 360.916)"/>
        <path id="prefix__Rectangle_9250" d="M0 0H15V6.176H0z" class="prefix__cls-8" data-name="Rectangle 9250" transform="rotate(-36 2984.962 -860.236)"/>
        <path id="prefix__Rectangle_9251" d="M0 0H18V7.412H0z" class="prefix__cls-3" data-name="Rectangle 9251" transform="rotate(47 -1375.246 2097.58)"/>
        <g id="prefix__Group_6604" data-name="Group 6604" transform="translate(1498 1003)">
            <path id="prefix__Path_19979" d="M114.438 483.933a6.637 6.637 0 0 1 .074-.991l.086-.571-8.344-1.258-.086.571a15.154 15.154 0 0 0-.168 2.248v.59l8.438-.014z" class="prefix__cls-4" data-name="Path 19979" transform="translate(0 -8.933)"/>
            <path id="prefix__Path_19980" d="M117.6 492.395l-.343-.463-6.792 5.006.343.465a15.047 15.047 0 0 0 1.483 1.722l.408.407 5.963-5.972-.409-.407a6.657 6.657 0 0 1-.653-.758z" class="prefix__cls-4" data-name="Path 19980" transform="translate(-1.89 -13.51)"/>
            <path id="prefix__Path_19981" d="M115.012 464.818a15.068 15.068 0 0 0-1.722 1.484l-.408.408 5.975 5.958.407-.409a6.62 6.62 0 0 1 .758-.653l.464-.343-5.011-6.789z" class="prefix__cls-4" data-name="Path 19981" transform="translate(-2.912 -1.894)"/>
            <path id="prefix__Path_19982" d="M140.38 474.014l.343.464 6.787-5.013-.342-.464a15.051 15.051 0 0 0-1.486-1.723l-.408-.407-5.954 5.978.408.407a6.7 6.7 0 0 1 .652.758z" class="prefix__cls-4" data-name="Path 19982" transform="translate(-14.096 -2.907)"/>
            <path id="prefix__Path_19983" d="M139.147 493.741a6.59 6.59 0 0 1-.757.651l-.465.342 5 6.8.464-.342a15.148 15.148 0 0 0 1.725-1.483l.407-.408-5.969-5.965z" class="prefix__cls-4" data-name="Path 19983" transform="translate(-13.507 -14.102)"/>
            <path id="prefix__Path_19984" d="M143.832 484.956l-.577.025v.577a6.686 6.686 0 0 1-.075 1l-.087.571 8.343 1.266.087-.57a15.326 15.326 0 0 0 .17-2.291v-.577z" class="prefix__cls-4" data-name="Path 19984" transform="translate(-15.694 -10.558)"/>
            <path id="prefix__Path_19985" d="M131.544 460h-.577v7.861l.019.577h.577a6.63 6.63 0 0 1 .987.074l.571.085 1.253-8.345-.571-.086a15.287 15.287 0 0 0-2.259-.166z" class="prefix__cls-4" data-name="Path 19985" transform="translate(-10.563)"/>
            <path id="prefix__Path_19986" d="M129.926 497.256a6.665 6.665 0 0 1-.995-.075l-.571-.085-1.262 8.343.57.086a15.106 15.106 0 0 0 2.257.17h.584l-.008-8.438z" class="prefix__cls-4" data-name="Path 19986" transform="translate(-8.926 -15.694)"/>
        </g>
        <g id="prefix__Group_6605" data-name="Group 6605" transform="rotate(-25.97 3003.642 -1727.516)">
            <path id="prefix__Path_19979-2" d="M114.438 483.933a6.637 6.637 0 0 1 .074-.991l.086-.571-8.344-1.258-.086.571a15.154 15.154 0 0 0-.168 2.248v.59l8.438-.014z" class="prefix__cls-8" data-name="Path 19979" transform="translate(0 -8.933)"/>
            <path id="prefix__Path_19980-2" d="M117.6 492.395l-.343-.463-6.792 5.006.343.465a15.047 15.047 0 0 0 1.483 1.722l.408.407 5.963-5.972-.409-.407a6.657 6.657 0 0 1-.653-.758z" class="prefix__cls-8" data-name="Path 19980" transform="translate(-1.89 -13.51)"/>
            <path id="prefix__Path_19981-2" d="M115.012 464.818a15.068 15.068 0 0 0-1.722 1.484l-.408.408 5.975 5.958.407-.409a6.62 6.62 0 0 1 .758-.653l.464-.343-5.011-6.789z" class="prefix__cls-8" data-name="Path 19981" transform="translate(-2.912 -1.894)"/>
            <path id="prefix__Path_19982-2" d="M140.38 474.014l.343.464 6.787-5.013-.342-.464a15.051 15.051 0 0 0-1.486-1.723l-.408-.407-5.954 5.978.408.407a6.7 6.7 0 0 1 .652.758z" class="prefix__cls-8" data-name="Path 19982" transform="translate(-14.096 -2.907)"/>
            <path id="prefix__Path_19983-2" d="M139.147 493.741a6.59 6.59 0 0 1-.757.651l-.465.342 5 6.8.464-.342a15.148 15.148 0 0 0 1.725-1.483l.407-.408-5.969-5.965z" class="prefix__cls-8" data-name="Path 19983" transform="translate(-13.507 -14.102)"/>
            <path id="prefix__Path_19984-2" d="M143.832 484.956l-.577.025v.577a6.686 6.686 0 0 1-.075 1l-.087.571 8.343 1.266.087-.57a15.326 15.326 0 0 0 .17-2.291v-.577z" class="prefix__cls-8" data-name="Path 19984" transform="translate(-15.694 -10.558)"/>
            <path id="prefix__Path_19985-2" d="M131.544 460h-.577v7.861l.019.577h.577a6.63 6.63 0 0 1 .987.074l.571.085 1.253-8.345-.571-.086a15.287 15.287 0 0 0-2.259-.166z" class="prefix__cls-8" data-name="Path 19985" transform="translate(-10.563)"/>
            <path id="prefix__Path_19986-2" d="M129.926 497.256a6.665 6.665 0 0 1-.995-.075l-.571-.085-1.262 8.343.57.086a15.106 15.106 0 0 0 2.257.17h.584l-.008-8.438z" class="prefix__cls-8" data-name="Path 19986" transform="translate(-8.926 -15.694)"/>
        </g>
        <g id="prefix__Group_6606" data-name="Group 6606" transform="rotate(-25.97 3972.401 -2077.186)">
            <path id="prefix__Path_19979-3" d="M114.438 483.933a6.637 6.637 0 0 1 .074-.991l.086-.571-8.344-1.258-.086.571a15.154 15.154 0 0 0-.168 2.248v.59l8.438-.014z" class="prefix__cls-9" data-name="Path 19979" transform="translate(0 -8.933)"/>
            <path id="prefix__Path_19980-3" d="M117.6 492.395l-.343-.463-6.792 5.006.343.465a15.047 15.047 0 0 0 1.483 1.722l.408.407 5.963-5.972-.409-.407a6.657 6.657 0 0 1-.653-.758z" class="prefix__cls-9" data-name="Path 19980" transform="translate(-1.89 -13.51)"/>
            <path id="prefix__Path_19981-3" d="M115.012 464.818a15.068 15.068 0 0 0-1.722 1.484l-.408.408 5.975 5.958.407-.409a6.62 6.62 0 0 1 .758-.653l.464-.343-5.011-6.789z" class="prefix__cls-9" data-name="Path 19981" transform="translate(-2.912 -1.894)"/>
            <path id="prefix__Path_19982-3" d="M140.38 474.014l.343.464 6.787-5.013-.342-.464a15.051 15.051 0 0 0-1.486-1.723l-.408-.407-5.954 5.978.408.407a6.7 6.7 0 0 1 .652.758z" class="prefix__cls-9" data-name="Path 19982" transform="translate(-14.096 -2.907)"/>
            <path id="prefix__Path_19983-3" d="M139.147 493.741a6.59 6.59 0 0 1-.757.651l-.465.342 5 6.8.464-.342a15.148 15.148 0 0 0 1.725-1.483l.407-.408-5.969-5.965z" class="prefix__cls-9" data-name="Path 19983" transform="translate(-13.507 -14.102)"/>
            <path id="prefix__Path_19984-3" d="M143.832 484.956l-.577.025v.577a6.686 6.686 0 0 1-.075 1l-.087.571 8.343 1.266.087-.57a15.326 15.326 0 0 0 .17-2.291v-.577z" class="prefix__cls-9" data-name="Path 19984" transform="translate(-15.694 -10.558)"/>
            <path id="prefix__Path_19985-3" d="M131.544 460h-.577v7.861l.019.577h.577a6.63 6.63 0 0 1 .987.074l.571.085 1.253-8.345-.571-.086a15.287 15.287 0 0 0-2.259-.166z" class="prefix__cls-9" data-name="Path 19985" transform="translate(-10.563)"/>
            <path id="prefix__Path_19986-3" d="M129.926 497.256a6.665 6.665 0 0 1-.995-.075l-.571-.085-1.262 8.343.57.086a15.106 15.106 0 0 0 2.257.17h.584l-.008-8.438z" class="prefix__cls-9" data-name="Path 19986" transform="translate(-8.926 -15.694)"/>
        </g>
        <g id="prefix__Group_6607" data-name="Group 6607" transform="rotate(-25.97 3147.18 -934.144)">
            <path id="prefix__Path_19979-4" d="M114.438 483.933a6.637 6.637 0 0 1 .074-.991l.086-.571-8.344-1.258-.086.571a15.154 15.154 0 0 0-.168 2.248v.59l8.438-.014z" class="prefix__cls-4" data-name="Path 19979" transform="translate(0 -8.933)"/>
            <path id="prefix__Path_19980-4" d="M117.6 492.395l-.343-.463-6.792 5.006.343.465a15.047 15.047 0 0 0 1.483 1.722l.408.407 5.963-5.972-.409-.407a6.657 6.657 0 0 1-.653-.758z" class="prefix__cls-4" data-name="Path 19980" transform="translate(-1.89 -13.51)"/>
            <path id="prefix__Path_19981-4" d="M115.012 464.818a15.068 15.068 0 0 0-1.722 1.484l-.408.408 5.975 5.958.407-.409a6.62 6.62 0 0 1 .758-.653l.464-.343-5.011-6.789z" class="prefix__cls-4" data-name="Path 19981" transform="translate(-2.912 -1.894)"/>
            <path id="prefix__Path_19982-4" d="M140.38 474.014l.343.464 6.787-5.013-.342-.464a15.051 15.051 0 0 0-1.486-1.723l-.408-.407-5.954 5.978.408.407a6.7 6.7 0 0 1 .652.758z" class="prefix__cls-4" data-name="Path 19982" transform="translate(-14.096 -2.907)"/>
            <path id="prefix__Path_19983-4" d="M139.147 493.741a6.59 6.59 0 0 1-.757.651l-.465.342 5 6.8.464-.342a15.148 15.148 0 0 0 1.725-1.483l.407-.408-5.969-5.965z" class="prefix__cls-4" data-name="Path 19983" transform="translate(-13.507 -14.102)"/>
            <path id="prefix__Path_19984-4" d="M143.832 484.956l-.577.025v.577a6.686 6.686 0 0 1-.075 1l-.087.571 8.343 1.266.087-.57a15.326 15.326 0 0 0 .17-2.291v-.577z" class="prefix__cls-4" data-name="Path 19984" transform="translate(-15.694 -10.558)"/>
            <path id="prefix__Path_19985-4" d="M131.544 460h-.577v7.861l.019.577h.577a6.63 6.63 0 0 1 .987.074l.571.085 1.253-8.345-.571-.086a15.287 15.287 0 0 0-2.259-.166z" class="prefix__cls-4" data-name="Path 19985" transform="translate(-10.563)"/>
            <path id="prefix__Path_19986-4" d="M129.926 497.256a6.665 6.665 0 0 1-.995-.075l-.571-.085-1.262 8.343.57.086a15.106 15.106 0 0 0 2.257.17h.584l-.008-8.438z" class="prefix__cls-4" data-name="Path 19986" transform="translate(-8.926 -15.694)"/>
        </g>
        <g id="prefix__Group_6608" data-name="Group 6608" transform="rotate(-25.97 3796.317 -1056.146)">
            <path id="prefix__Path_19979-5" d="M114.438 483.933a6.637 6.637 0 0 1 .074-.991l.086-.571-8.344-1.258-.086.571a15.154 15.154 0 0 0-.168 2.248v.59l8.438-.014z" class="prefix__cls-11" data-name="Path 19979" transform="translate(0 -8.933)"/>
            <path id="prefix__Path_19980-5" d="M117.6 492.395l-.343-.463-6.792 5.006.343.465a15.047 15.047 0 0 0 1.483 1.722l.408.407 5.963-5.972-.409-.407a6.657 6.657 0 0 1-.653-.758z" class="prefix__cls-11" data-name="Path 19980" transform="translate(-1.89 -13.51)"/>
            <path id="prefix__Path_19981-5" d="M115.012 464.818a15.068 15.068 0 0 0-1.722 1.484l-.408.408 5.975 5.958.407-.409a6.62 6.62 0 0 1 .758-.653l.464-.343-5.011-6.789z" class="prefix__cls-11" data-name="Path 19981" transform="translate(-2.912 -1.894)"/>
            <path id="prefix__Path_19982-5" d="M140.38 474.014l.343.464 6.787-5.013-.342-.464a15.051 15.051 0 0 0-1.486-1.723l-.408-.407-5.954 5.978.408.407a6.7 6.7 0 0 1 .652.758z" class="prefix__cls-11" data-name="Path 19982" transform="translate(-14.096 -2.907)"/>
            <path id="prefix__Path_19983-5" d="M139.147 493.741a6.59 6.59 0 0 1-.757.651l-.465.342 5 6.8.464-.342a15.148 15.148 0 0 0 1.725-1.483l.407-.408-5.969-5.965z" class="prefix__cls-11" data-name="Path 19983" transform="translate(-13.507 -14.102)"/>
            <path id="prefix__Path_19984-5" d="M143.832 484.956l-.577.025v.577a6.686 6.686 0 0 1-.075 1l-.087.571 8.343 1.266.087-.57a15.326 15.326 0 0 0 .17-2.291v-.577z" class="prefix__cls-11" data-name="Path 19984" transform="translate(-15.694 -10.558)"/>
            <path id="prefix__Path_19985-5" d="M131.544 460h-.577v7.861l.019.577h.577a6.63 6.63 0 0 1 .987.074l.571.085 1.253-8.345-.571-.086a15.287 15.287 0 0 0-2.259-.166z" class="prefix__cls-11" data-name="Path 19985" transform="translate(-10.563)"/>
            <path id="prefix__Path_19986-5" d="M129.926 497.256a6.665 6.665 0 0 1-.995-.075l-.571-.085-1.262 8.343.57.086a15.106 15.106 0 0 0 2.257.17h.584l-.008-8.438z" class="prefix__cls-11" data-name="Path 19986" transform="translate(-8.926 -15.694)"/>
        </g>
    </g>
</svg>
