<svg xmlns="http://www.w3.org/2000/svg" width="54" height="41.399" viewBox="0 0 54 41.399">
    <g id="prefix__Group_23" data-name="Group 23" transform="translate(-167.5 -876.717)">
        <path id="prefix__Path_5" d="M168.058 879.352l25.509 20.436a1.494 1.494 0 0 0 1.867 0l25.509-20.436a1.48 1.48 0 0 0-.934-2.635h-51.018a1.48 1.48 0 0 0-.933 2.635zm-.558 5.465v28.766a4.516 4.516 0 0 0 4.5 4.533h45a4.516 4.516 0 0 0 4.5-4.533v-28.766l-25.761 20.9a1.962 1.962 0 0 1-2.47 0z" data-name="Path 5" style="fill:#fff"/>
    </g>
</svg>
