<svg xmlns="http://www.w3.org/2000/svg" width="50" height="50" viewBox="0 0 50 50">
    <path id="prefix__Path_20243" d="M357.869 915.476c2.06-2.682 2.329-4.821 2.028-6.341a4.156 4.156 0 0 0-2.875-3.123c-2.329-.722-6.894-2.134-8.977-2.748-2.859-.845-3.852.328-3.852.328l-2.636 3.441c-1 1.377-2.731.414-2.731.414a53.78 53.78 0 0 1-7.907-5.5 24.683 24.683 0 0 1-2.865-2.865 53.784 53.784 0 0 1-5.5-7.907s-.963-1.733.414-2.731l3.441-2.636s1.173-.993.328-3.852c-.614-2.083-2.026-6.648-2.748-8.977a4.156 4.156 0 0 0-3.123-2.875c-1.52-.3-3.659-.032-6.341 2.028a13.343 13.343 0 0 0-3.353 15.425 72.586 72.586 0 0 0 8.576 15.363l.08.115a28.172 28.172 0 0 0 7.04 7.066l.037.026a72.752 72.752 0 0 0 15.54 8.7 13.343 13.343 0 0 0 15.424-3.351z" data-name="Path 20243" transform="translate(-310 -870)" style="fill:#003087"/>
</svg>
