<svg xmlns="http://www.w3.org/2000/svg" width="62" height="62" viewBox="0 0 62 62">
    <g id="Group_7010" data-name="Group 7010" transform="translate(-603 -225)">
        <g id="Rectangle_9299" fill="#0d7fbc" stroke="#d0f5fd" stroke-width="4px" data-name="Rectangle 9299" transform="translate(603 225)">
            <rect width="62" height="62" stroke="none" rx="30"/>
            <rect width="58" height="58" x="2" y="2" fill="none" rx="28"/>
        </g>
        <path id="Path_20194" fill="#fff" d="M29.754 38.054a5.724 5.724 0 0 1-5.727 5.727c-3.165 0-5.727-2.374-5.727-6.782 0-6.1 4.559-10.324 9.495-10.4a1.181 1.181 0 0 1 1.281 1.319v.038c0 .829-.226 1.206-.641 1.319-1.319.226-3.994.942-4.86 3.052 4.069 0 6.179 2.6 6.179 5.727zm6.367-5.727c.867-2.11 3.542-2.826 4.86-3.052.414-.113.641-.49.641-1.319v-.038a1.181 1.181 0 0 0-1.281-1.318c-4.936.075-9.495 4.3-9.495 10.4 0 4.408 2.562 6.782 5.727 6.782a5.724 5.724 0 0 0 5.727-5.728c0-3.165-2.072-5.727-6.179-5.727z" data-name="Path 20194" transform="translate(604 220.4)"/>
    </g>
</svg>
