<svg xmlns="http://www.w3.org/2000/svg" width="79.34" height="136.733" viewBox="0 0 79.34 136.733">
    <g id="prefix__Group_6534" data-name="Group 6534" transform="translate(-1714.121 -334.679)">
        <path id="prefix__Exclusion_1" d="M38.058 135.733a22.861 22.861 0 0 1-12.874-3.9c-5.64-3.818-9.756-10.25-12.231-19.114a106.509 106.509 0 0 1-2.562-12.848l-.007-.013c-.139-.954-.265-1.8-.381-2.412h.036L.015 11.665a3.986 3.986 0 0 1 1-3.079A3.263 3.263 0 0 1 3.376 7.5a3.088 3.088 0 0 1 2.2.964L23.275 26.1a3.124 3.124 0 0 0 2.21.944 3.072 3.072 0 0 0 .441-.03l14.508-2.184a3.48 3.48 0 0 0 2.7-2.422l6.714-20.055A3.259 3.259 0 0 1 52.967 0a3.327 3.327 0 0 1 3.291 2.856l6.959 37.32a3.512 3.512 0 0 0 3.132 3.009l8.775.467a3.627 3.627 0 0 1 3.2 3.735A72.134 72.134 0 0 1 77.1 62.336c-1.375 6.826-3.814 11.814-7.241 14.823a4.158 4.158 0 0 0-1.219 4.318l.007.03a108.532 108.532 0 0 1-2.174 26.119c-1.71 7.668-4.321 13.868-7.764 18.421a22.232 22.232 0 0 1-16.7 9.315 18.947 18.947 0 0 1-3.951.371zm33.761-89.214a2.654 2.654 0 0 0-.331.023l-8.874 1.183a2.4 2.4 0 0 0-1.766 1.163 2.5 2.5 0 0 0-.142 2.18c.789 1.962 2.406 4.3 5.657 4.3a8.183 8.183 0 0 0 1.826-.219c4.093-.951 5.511-3.6 5.981-5.643a2.48 2.48 0 0 0-.467-2.078 2.389 2.389 0 0 0-1.884-.909z" data-name="Exclusion 1" transform="translate(1714.623 335.179)" style="fill:#003087;stroke:transparent;stroke-miterlimit:10"/>
    </g>
</svg>
