<svg xmlns="http://www.w3.org/2000/svg" id="prefix__MasterLogo-light-sml" width="250.908" height="200" viewBox="0 0 250.908 200">
    <defs>
        <style>
            .prefix__cls-1{fill:#d6d8d8}.prefix__cls-4{fill:#003087}.prefix__cls-5{fill:#31add3}
        </style>
    </defs>
    <path id="prefix__Ring" d="M506.957 123.643a27.811 27.811 0 1 0 27.811 27.811 27.843 27.843 0 0 0-27.811-27.811zm0 40.893a13.082 13.082 0 1 1 13.082-13.082 13.1 13.1 0 0 1-13.082 13.082z" class="prefix__cls-1" transform="translate(-384.95 -123.643)"/>
    <path id="prefix__Tag" d="M506.106 266.928a40.166 40.166 0 0 0-5.81-6.425c-6.907-7.936-8.9-11.7-9.153-14.934-.067-3.244 1.55-7.185 7.647-15.759a40.14 40.14 0 0 0 5.153-6.963 7.746 7.746 0 0 0 1.17-2.149 39.978 39.978 0 0 0-70.872-37c-.1.181-.193.365-.289.548-1.081 1.957-5.174 8.533-11.532 8.845l-6.319.31c-3.874.191-5.238-3.247-5.584-4.389l-.067-.236c-.023-.079-.031-.128-.031-.128h-.005a24.316 24.316 0 0 0-47.232 2.321h-.02s-.548 5.058-5.189 5.286l-6.55.322c-6.358.312-11.075-5.832-12.343-7.674-.113-.172-.225-.346-.341-.516a39.978 39.978 0 0 0-66.908 43.758 7.734 7.734 0 0 0 1.375 2.024 40.153 40.153 0 0 0 5.81 6.425c6.907 7.936 8.9 11.7 9.153 14.934.068 3.244-1.55 7.185-7.647 15.759a40.2 40.2 0 0 0-5.153 6.963 7.737 7.737 0 0 0-1.17 2.149 39.977 39.977 0 0 0 70.871 37c.1-.182.193-.365.289-.548 1.081-1.958 5.174-8.534 11.532-8.846l35.492-1.742h.013l35.492-1.742c6.358-.312 11.075 5.831 12.342 7.674.113.173.225.346.341.517a39.978 39.978 0 0 0 66.908-43.758 7.745 7.745 0 0 0-1.373-2.026zM387.215 200.8a8.095 8.095 0 1 1 7.688-8.482 8.094 8.094 0 0 1-7.688 8.482z" transform="translate(-265.629 -145.49)" style="fill:#fff"/>
    <path id="prefix__RingShadow" d="M486.86 220.5a24.114 24.114 0 0 0-.717 2.835h-.02a7.581 7.581 0 0 1-.964 2.749 27.77 27.77 0 0 0 20.671 6.945 27.863 27.863 0 0 1-18.97-12.529z" transform="translate(-388.311 -177.771)" style="fill:#0d7fbc"/>
    <g id="prefix__iConsult" transform="translate(38.576 66.732)">
        <path id="prefix__Path_20130" d="M358.672 288.165c2.932-.142 4.239 1.206 4.384 4.193.126 2.592-1.365 4.472-5.59 4.677-3.1.151-4.264-1.71-4.39-4.3s1.371-4.365 5.596-4.57zm-3.559 39.486l-1.338-27.557a14.2 14.2 0 0 1 4.861-1.083c3.719-.18 4.56.855 4.733 4.4l1.155 23.781z" class="prefix__cls-4" data-name="Path 20130" transform="translate(-353.069 -282.31)"/>
        <path id="prefix__Path_20131" d="M397.558 293.028a16.374 16.374 0 0 1 7.741 1.206c.293 6.029-1.14 7.966-2.716 8.042s-2.231-.573-5.218-.427a8.026 8.026 0 0 0-2.845.759c-.853 2.189-1.034 5.473-.874 8.744.355 7.323 2.663 9.469 6.1 9.3a10.44 10.44 0 0 0 5.339-1.726l1.844 7.761a14.8 14.8 0 0 1-8.836 2.972c-9.355.454-13.967-4.969-14.613-18.271-.623-12.845 4.949-17.917 14.078-18.36z" class="prefix__cls-4" data-name="Path 20131" transform="translate(-370.038 -285.018)"/>
        <path id="prefix__Path_20132" d="M462.544 321.112c.46 9.47-3.237 14.732-12.253 15.169-6.988.34-11.1-5.168-11.553-14.579-.325-6.7 1.105-14.453 11.982-14.981 8.057-.391 11.361 4.871 11.824 14.391zm-5.714-4.587a.548.548 0 0 0-.484-.566l-1.328-.071a.531.531 0 0 1-.473-.456l-1.053-5.646a.5.5 0 0 0-.97-.075l-1.016 3.033a.525.525 0 0 1-.408.366l-2.194.332a.468.468 0 0 1-.4-.139l-2.677-2.669c-.345-.344-.884-.034-.842.484L446.5 324.1a20.551 20.551 0 0 0 .447 2.311c1.172 4.2 4.395 3.427 4.395 3.427 4.5-.322 4.031-8.154 4.031-8.154a.632.632 0 0 1 .184-.653c1.186-1.049 1.29-3.431 1.272-4.506zm-1.53 1.175a.91.91 0 0 1-1.133-.616.367.367 0 0 1 .289-.506l1.344-.18a.367.367 0 0 1 .4.449 1.1 1.1 0 0 1-.9.853z" class="prefix__cls-4" data-name="Path 20132" transform="translate(-400.921 -292.674)"/>
        <path id="prefix__Path_20133" d="M498.281 305.176a11.182 11.182 0 0 1 4.741-1.247c2.31-.112 3.639.5 4.486 2.831a10.126 10.126 0 0 1 7.008-3.389c4.678-.227 7 2.313 7.251 7.383l1.029 21.189-9.3.452-.912-18.766c-.068-1.408-.559-2.231-1.968-2.162a3.726 3.726 0 0 0-2.546 1.085l.975 20.06-9.411.457z" class="prefix__cls-4" data-name="Path 20133" transform="translate(-434.219 -290.806)"/>
        <path id="prefix__Path_20134" d="M569.347 301.038a22.8 22.8 0 0 1 7.038.73 11.426 11.426 0 0 1 .208 1.912c.1 3.325-.882 5.125-2.628 5.21-1.184.057-2.625-.549-4.935-.436a7.78 7.78 0 0 0-2.074.326 2.052 2.052 0 0 0-.129.852c.049 1.014.912 1.313 4.223 2.053 4.848.951 6.783 3.571 7.012 8.3.307 6.314-3.733 10.35-10.439 10.676a16.464 16.464 0 0 1-7.687-1.264 7.713 7.713 0 0 1-.395-2.3c-.052-2.255.631-4.492 2.039-4.56 1.127-.055 2.357.847 5.681.685a6.769 6.769 0 0 0 2.464-.46 2.088 2.088 0 0 0 .123-.967c-.057-1.184-1.414-1.173-4.278-1.995-4.524-1.3-6.59-4.256-6.8-8.482-.28-5.858 3.308-9.927 10.577-10.28z" class="prefix__cls-4" data-name="Path 20134" transform="translate(-468.017 -289.494)"/>
        <path id="prefix__Path_20135" d="M630.6 326.264a11.187 11.187 0 0 1-5.012 1.485c-2.367.115-3.417-.57-4.094-2.91a10.108 10.108 0 0 1-6.95 3.447c-4.565.221-7.183-2.535-7.448-8l-.993-20.454a30.055 30.055 0 0 1 4.319-.606c3.549-.172 5.042.321 5.226 4.1l.7 14.311c.088 1.8.625 2.4 1.864 2.338a4.536 4.536 0 0 0 2.759-1.32l-.955-19.665 9.243-.449z" class="prefix__cls-4" data-name="Path 20135" transform="translate(-494.476 -288.112)"/>
        <path id="prefix__Path_20136" d="M668.04 306.5l-1.472-30.315a13.17 13.17 0 0 1 4.853-1.257c3.549-.172 4.555.74 4.73 4.346l1.221 25.134c.065 1.349.772 1.94 1.844 1.888a12.037 12.037 0 0 0 1.954-.435l.361 6.251a12.906 12.906 0 0 1-6.078 1.652c-4.339.209-7.164-2.142-7.413-7.264z" class="prefix__cls-4" data-name="Path 20136" transform="translate(-528.264 -274.906)"/>
        <path id="prefix__Path_20137" d="M696.882 288.478l3.437-.167-.12-2.478c-.17-3.5 2.242-5.025 8.578-4.822l.334 6.873 5.014-.244.345 7.1-5.015.243.583 12c.071 1.468.83 2 2.014 1.94a6.623 6.623 0 0 0 2.68-.641l1.024 5.993a14.669 14.669 0 0 1-7.242 2.049c-4.79.233-7.5-2.124-7.766-7.533l-.649-13.356-2.872.139z" class="prefix__cls-4" data-name="Path 20137" transform="translate(-545.205 -278.307)"/>
    </g>
    <g id="prefix__Cardiology" transform="translate(55.319 113.01)">
        <path id="prefix__Path_20138" d="M399.892 391.756a10.285 10.285 0 0 1 4.862.757c.184 3.786-.716 5-1.706 5.05s-1.4-.359-3.277-.268a5.041 5.041 0 0 0-1.786.477 14.544 14.544 0 0 0-.549 5.491c.224 4.6 1.672 5.947 3.832 5.842a6.552 6.552 0 0 0 3.352-1.084l1.158 4.874a9.29 9.29 0 0 1-5.548 1.867c-5.875.285-8.771-3.12-9.177-11.474-.392-8.069 3.106-11.254 8.839-11.532z" class="prefix__cls-5" data-name="Path 20138" transform="translate(-391.022 -386.474)"/>
        <path id="prefix__Path_20139" d="M437.017 418.734c-1.628.079-2.5-.341-2.795-2.028a4.634 4.634 0 0 1-4.106 2.363c-2.654.129-4.383-1.881-4.541-5.137-.22-4.529 2.518-5.832 7.7-6.509-.076-1.558-.215-2.225-1.736-2.151-1.274.062-2.664.661-3.831.718-1.521.074-2.11-1.068-2.279-3.826a18.7 18.7 0 0 1 7.293-1.772c4.1-.2 6.126 1.262 6.348 5.826l.583 12a9.092 9.092 0 0 1-2.636.516zm-5.035-4.331a2.369 2.369 0 0 0 1.6-.753l-.143-2.936a19.46 19.46 0 0 0-2.5.439 4.142 4.142 0 0 0-.241 1.609c.05 1.06.541 1.678 1.284 1.638z" class="prefix__cls-5" data-name="Path 20139" transform="translate(-410.25 -391.3)"/>
        <path id="prefix__Path_20140" d="M461.379 399.505a6.728 6.728 0 0 1 2.835-.776c1.7-.083 2.166.781 2.569 2.5a5.02 5.02 0 0 1 4.4-2.839 15.781 15.781 0 0 1 .418 3.492c0 1.453-.141 2.2-1.167 2.254a4.578 4.578 0 0 0-2.86.991l.563 11.606-5.909.287z" class="prefix__cls-5" data-name="Path 20140" transform="translate(-430.34 -390.192)"/>
        <path id="prefix__Path_20141" d="M491.868 389.694a4.617 4.617 0 0 1 3.2.979l-.32-6.584a9.326 9.326 0 0 1 3.125-.649c2.122-.1 2.673.263 2.793 2.738l1.035 21.305a10.836 10.836 0 0 1-2.817.419c-1.523.04-2.427-.309-2.856-1.848a5.18 5.18 0 0 1-4.079 2.185c-3.54.172-5.558-3.418-5.837-9.152-.264-5.52 1.72-9.197 5.756-9.393zm2.228 13.761a2.612 2.612 0 0 0 1.566-.645l-.393-8.1a3.05 3.05 0 0 0-2.715-.4 14.282 14.282 0 0 0-.348 4.519c.174 3.608.828 4.677 1.894 4.626z" class="prefix__cls-5" data-name="Path 20141" transform="translate(-444.151 -381.829)"/>
        <path id="prefix__Path_20142" d="M528.043 381.291c1.841-.09 2.662.758 2.753 2.633.079 1.628-.857 2.809-3.511 2.937-1.947.094-2.678-1.074-2.757-2.7s.861-2.741 3.515-2.87zm-2.236 24.8l-.841-17.305a8.915 8.915 0 0 1 3.053-.68c2.335-.113 2.864.537 2.972 2.764l.725 14.934z" class="prefix__cls-5" data-name="Path 20142" transform="translate(-465.628 -380.632)"/>
        <path id="prefix__Path_20143" d="M559 403.646c.289 5.945-2.035 9.252-7.7 9.527-4.388.213-6.968-3.246-7.255-9.156-.2-4.209.694-9.076 7.525-9.408 5.067-.246 7.144 3.058 7.43 9.037zm-7.209 4.963a2.257 2.257 0 0 0 1.188-.378 16.87 16.87 0 0 0 .282-4.413c-.179-3.679-.58-4.653-1.926-4.588a2.528 2.528 0 0 0-1.223.345 14.814 14.814 0 0 0-.283 4.409c.183 3.683.658 4.688 1.971 4.625z" class="prefix__cls-5" data-name="Path 20143" transform="translate(-476.527 -388.071)"/>
        <path id="prefix__Path_20144" d="M581.474 399.645l-.925-19.038a8.28 8.28 0 0 1 3.048-.789c2.23-.108 2.86.465 2.97 2.729l.766 15.784c.041.847.485 1.218 1.157 1.186a7.551 7.551 0 0 0 1.229-.274l.227 3.926a8.11 8.11 0 0 1-3.817 1.038c-2.729.133-4.499-1.344-4.655-4.562z" class="prefix__cls-5" data-name="Path 20144" transform="translate(-496.937 -379.806)"/>
        <path id="prefix__Path_20145" d="M616.867 400.836c.289 5.944-2.033 9.252-7.695 9.526-4.388.213-6.968-3.246-7.255-9.156-.2-4.21.694-9.077 7.524-9.409 5.059-.245 7.136 3.059 7.426 9.039zm-7.207 4.964a2.266 2.266 0 0 0 1.189-.379 16.99 16.99 0 0 0 .281-4.412c-.179-3.679-.58-4.654-1.926-4.588a2.541 2.541 0 0 0-1.224.345 14.829 14.829 0 0 0-.282 4.409c.179 3.681.654 4.687 1.962 4.625z" class="prefix__cls-5" data-name="Path 20145" transform="translate(-508.864 -386.5)"/>
        <path id="prefix__Path_20146" d="M640.438 413.209l-.213-4.389a16.755 16.755 0 0 0 5.134.531 11.642 11.642 0 0 0 3.167-.509l-.124-2.547a5.764 5.764 0 0 1-3.511 1.482c-3.82.186-5.947-2.689-6.257-9.06-.284-5.837 2.2-8.69 5.706-8.861a5.373 5.373 0 0 1 3.792 1.376c.694-1.024 1.3-1.623 3.463-1.728a5.221 5.221 0 0 1 1.819.232l.786 16.17c.29 5.982-3.179 7.568-8.2 7.813a15.909 15.909 0 0 1-5.562-.51zm6.255-9.954a2.43 2.43 0 0 0 1.528-.678l-.368-7.573a2.454 2.454 0 0 0-1.84-.656 2.879 2.879 0 0 0-.843.182 11.189 11.189 0 0 0-.4 4.1c.142 3.011.508 4.695 1.923 4.626z" class="prefix__cls-5" data-name="Path 20146" transform="translate(-529.385 -385.222)"/>
        <path id="prefix__Path_20147" d="M677.149 411.932l-.2-4.071a14.457 14.457 0 0 0 3.277.268 11.67 11.67 0 0 0 2.64-.414l.22-1.322-2.9.141-4.6-17.406a19.689 19.689 0 0 1 3.378-.554c2.124-.1 2.745.294 3.112 2.722l1.746 11.124.775-13.979 5.733-.278-2.731 18.259c-.473 3.394-2.527 5.657-6.915 5.87a10.066 10.066 0 0 1-3.535-.36z" class="prefix__cls-5" data-name="Path 20147" transform="translate(-550.044 -384.476)"/>
    </g>
    <path id="prefix__TagShadow" d="M525.568 448.187a40.039 40.039 0 0 0-2.46-12.005 40.091 40.091 0 0 1-72.608 29.929c-.116-.172-.229-.345-.342-.518-1.271-1.848-6-8.009-12.378-7.7l-35.593 1.746h-.013l-35.593 1.747c-6.376.313-10.48 6.908-11.564 8.871-.1.184-.191.367-.289.549a40.1 40.1 0 0 1-72.845-5.073 40.092 40.092 0 0 0 74.646 11.539c.1-.182.194-.366.289-.549 1.084-1.963 5.188-8.558 11.565-8.871l35.593-1.747h.013l35.593-1.747c6.376-.313 11.107 5.848 12.378 7.7.113.173.226.347.342.518a40.091 40.091 0 0 0 73.272-24.389z" transform="translate(-274.709 -298.301)" style="opacity:.496;mix-blend-mode:multiply;isolation:isolate;fill:#003087"/>
    <path id="prefix__RingOverlap" d="M479.146 186.683a27.822 27.822 0 0 0 27.81 27.811v-14.729a13.077 13.077 0 0 1-13.081-13.082z" class="prefix__cls-1" transform="translate(-384.95 -158.872)"/>
</svg>
