<svg xmlns="http://www.w3.org/2000/svg" width="313" height="304.178" viewBox="0 0 313 304.178">
    <defs>
        <style>
            .prefix__cls-1{fill:#d6d8d8}.prefix__cls-5{fill:#003087}.prefix__cls-6{fill:#31add3}
        </style>
    </defs>
    <g id="prefix__Group_6718" data-name="Group 6718" transform="translate(-265.629 -2223.643)">
        <path id="prefix__Path_20011" d="M513.839 2223.643a34.693 34.693 0 1 0 34.693 34.693 34.733 34.733 0 0 0-34.693-34.693zm0 51.012a16.319 16.319 0 1 1 16.319-16.319 16.337 16.337 0 0 1-16.319 16.319z" class="prefix__cls-1" data-name="Path 20011" transform="translate(-96.011)"/>
        <path id="prefix__Path_20012" d="M566.474 2393.083a50.265 50.265 0 0 0-7.268-8.038c-8.641-9.928-11.138-14.636-11.451-18.683-.084-4.059 1.939-8.988 9.567-19.715a50.214 50.214 0 0 0 6.446-8.711 9.685 9.685 0 0 0 1.464-2.688 50.013 50.013 0 0 0-88.663-46.284c-.123.227-.242.456-.361.685-1.352 2.449-6.473 10.676-14.427 11.066l-7.906.388c-4.846.238-6.553-4.062-6.985-5.49l-.084-.3c-.028-.1-.039-.161-.039-.161h-.007a30.42 30.42 0 0 0-59.089 2.9h-.025s-.686 6.328-6.491 6.613l-8.194.4c-7.953.39-13.855-7.3-15.44-9.6-.141-.216-.282-.433-.426-.646a50.013 50.013 0 0 0-83.7 54.742 9.693 9.693 0 0 0 1.72 2.533 50.263 50.263 0 0 0 7.268 8.038c8.641 9.928 11.138 14.636 11.451 18.683.085 4.059-1.939 8.989-9.566 19.715a50.278 50.278 0 0 0-6.446 8.711 9.678 9.678 0 0 0-1.463 2.689 50.013 50.013 0 0 0 88.662 46.283c.123-.227.242-.456.361-.685 1.352-2.449 6.473-10.676 14.427-11.066l44.4-2.179h.017l44.4-2.179c7.953-.391 13.855 7.3 15.44 9.6.141.217.282.433.427.647a50.013 50.013 0 0 0 83.7-54.743 9.691 9.691 0 0 0-1.719-2.525zm-148.736-82.733a10.127 10.127 0 1 1 9.618-10.612 10.128 10.128 0 0 1-9.618 10.612z" data-name="Path 20012" transform="translate(0 -17.579)" style="fill:#fff"/>
        <g id="prefix__Group_6665" data-name="Group 6665" transform="translate(386.445 2276.948)" style="mix-blend-mode:multiply;isolation:isolate">
            <path id="prefix__Path_20013" d="M487.281 2320.5a30.034 30.034 0 0 0-.894 3.536h-.025a9.463 9.463 0 0 1-1.2 3.43 34.643 34.643 0 0 0 25.787 8.664 34.76 34.76 0 0 1-23.668-15.63z" data-name="Path 20013" transform="translate(-485.16 -2320.502)" style="fill:#ffa06a"/>
        </g>
        <g id="prefix__Group_6666" data-name="Group 6666" transform="translate(313.751 2306.889)">
            <path id="prefix__Path_20014" d="M360.059 2388.167c3.658-.178 5.288 1.5 5.469 5.23.157 3.234-1.7 5.579-6.974 5.835-3.867.188-5.319-2.134-5.476-5.368s1.71-5.44 6.981-5.697zm-4.44 49.257l-1.67-34.376a17.7 17.7 0 0 1 6.064-1.35c4.639-.226 5.689 1.066 5.9 5.49l1.441 29.666z" class="prefix__cls-5" data-name="Path 20014" transform="translate(-353.069 -2380.864)"/>
            <path id="prefix__Path_20015" d="M401.053 2393.035c5.343-.26 8.858 1.05 9.657 1.5.365 7.521-1.422 9.937-3.388 10.033s-2.783-.714-6.509-.533a10.008 10.008 0 0 0-3.549.947c-1.064 2.73-1.289 6.827-1.091 10.907.444 9.135 3.322 11.813 7.612 11.6a13.023 13.023 0 0 0 6.66-2.153l2.3 9.682c-2.851 2.255-6.383 3.482-11.022 3.708-11.67.567-17.424-6.2-18.229-22.792-.779-16.019 6.171-22.347 17.559-22.899z" class="prefix__cls-5" data-name="Path 20015" transform="translate(-366.723 -2383.043)"/>
            <path id="prefix__Path_20016" d="M468.445 2424.679c.574 11.814-4.038 18.377-15.286 18.923-8.717.424-13.842-6.447-14.412-18.187-.406-8.362 1.379-18.03 14.947-18.689 10.052-.488 14.174 6.074 14.751 17.953zm-7.128-5.722a.684.684 0 0 0-.6-.706l-1.657-.087a.664.664 0 0 1-.591-.569l-1.314-7.042a.621.621 0 0 0-1.21-.094l-1.267 3.783a.654.654 0 0 1-.509.457l-2.737.414a.583.583 0 0 1-.5-.173l-3.339-3.329c-.43-.429-1.1-.042-1.05.6l1.891 16.188h-.006a25.61 25.61 0 0 0 .557 2.883c1.462 5.238 5.482 4.276 5.482 4.276 5.613-.4 5.028-10.172 5.028-10.172a.788.788 0 0 1 .23-.815c1.484-1.302 1.614-4.271 1.592-5.614zm-1.913 1.463a1.136 1.136 0 0 1-1.414-.769.459.459 0 0 1 .36-.631l1.676-.224a.458.458 0 0 1 .5.561 1.374 1.374 0 0 1-1.126 1.063z" class="prefix__cls-5" data-name="Path 20016" transform="translate(-391.573 -2389.203)"/>
            <path id="prefix__Path_20017" d="M498.281 2405.626a13.953 13.953 0 0 1 5.914-1.555c2.882-.14 4.54.623 5.6 3.532a12.633 12.633 0 0 1 8.742-4.229c5.835-.283 8.737 2.886 9.045 9.21l1.283 26.432-11.6.563-1.137-23.41c-.085-1.757-.7-2.783-2.454-2.7a4.65 4.65 0 0 0-3.176 1.353l1.216 25.024-11.739.57z" class="prefix__cls-5" data-name="Path 20017" transform="translate(-418.366 -2387.699)"/>
            <path id="prefix__Path_20018" d="M571.968 2401.045a28.456 28.456 0 0 1 8.78.91 14.235 14.235 0 0 1 .259 2.386c.13 4.147-1.1 6.393-3.279 6.5-1.477.072-3.274-.685-6.157-.544a9.69 9.69 0 0 0-2.588.407 2.557 2.557 0 0 0-.161 1.063c.062 1.265 1.138 1.637 5.268 2.562 6.047 1.187 8.461 4.454 8.748 10.355.382 7.876-4.657 12.911-13.022 13.318a20.53 20.53 0 0 1-9.589-1.577 9.608 9.608 0 0 1-.492-2.868c-.065-2.813.786-5.6 2.544-5.688 1.4-.068 2.94 1.056 7.087.855a8.445 8.445 0 0 0 3.073-.574 2.61 2.61 0 0 0 .154-1.206c-.072-1.477-1.763-1.463-5.336-2.489-5.644-1.625-8.221-5.31-8.477-10.581-.357-7.312 4.12-12.389 13.188-12.829z" class="prefix__cls-5" data-name="Path 20018" transform="translate(-445.561 -2386.644)"/>
            <path id="prefix__Path_20019" d="M636.666 2433.125a13.955 13.955 0 0 1-6.252 1.853c-2.953.144-4.263-.711-5.107-3.63a12.611 12.611 0 0 1-8.669 4.3c-5.7.276-8.961-3.162-9.291-9.979l-1.239-25.516a37.417 37.417 0 0 1 5.388-.755c4.427-.215 6.29.4 6.519 5.111l.867 17.852c.109 2.249.779 2.991 2.325 2.916a5.66 5.66 0 0 0 3.442-1.647l-1.191-24.532 11.531-.56z" class="prefix__cls-5" data-name="Path 20019" transform="translate(-466.851 -2385.532)"/>
            <path id="prefix__Path_20020" d="M668.4 2414.315l-1.837-37.816a16.44 16.44 0 0 1 6.054-1.568c4.427-.215 5.682.923 5.9 5.422l1.523 31.354c.081 1.683.964 2.42 2.3 2.355a15.029 15.029 0 0 0 2.437-.543l.451 7.8a16.1 16.1 0 0 1-7.582 2.06c-5.407.262-8.932-2.671-9.246-9.064z" class="prefix__cls-5" data-name="Path 20020" transform="translate(-494.038 -2374.906)"/>
            <path id="prefix__Path_20021" d="M696.882 2390.33l4.287-.208-.15-3.091c-.212-4.361 2.8-6.269 10.7-6.016l.417 8.574 6.256-.3.43 8.855-6.256.3.728 14.973c.089 1.832 1.036 2.491 2.513 2.42a8.262 8.262 0 0 0 3.343-.8l1.278 7.476a18.3 18.3 0 0 1-9.035 2.556c-5.976.291-9.36-2.649-9.688-9.4l-.809-16.662-3.583.174z" class="prefix__cls-5" data-name="Path 20021" transform="translate(-507.669 -2377.643)"/>
        </g>
        <g id="prefix__Group_6667" data-name="Group 6667" transform="translate(334.638 2364.619)">
            <path id="prefix__Path_20022" d="M402.087 2491.76a12.828 12.828 0 0 1 6.065.945c.229 4.723-.893 6.24-2.128 6.3s-1.748-.448-4.088-.334a6.272 6.272 0 0 0-2.228.595 18.137 18.137 0 0 0-.685 6.85c.279 5.737 2.086 7.418 4.78 7.287a8.179 8.179 0 0 0 4.182-1.353l1.445 6.08a11.591 11.591 0 0 1-6.922 2.328c-7.329.356-10.942-3.892-11.448-14.313-.489-10.065 3.876-14.038 11.027-14.385z" class="prefix__cls-6" data-name="Path 20022" transform="translate(-391.022 -2485.172)"/>
            <path id="prefix__Path_20023" d="M439.885 2523.277c-2.031.1-3.119-.425-3.486-2.529a5.779 5.779 0 0 1-5.123 2.948c-3.31.161-5.468-2.347-5.665-6.409-.275-5.65 3.141-7.275 9.606-8.119-.095-1.944-.268-2.775-2.166-2.684-1.589.077-3.323.825-4.779.9-1.9.092-2.632-1.332-2.844-4.773a23.327 23.327 0 0 1 9.1-2.211c5.12-.249 7.643 1.575 7.919 7.268l.727 14.967a11.338 11.338 0 0 1-3.289.642zm-6.281-5.4a2.956 2.956 0 0 0 1.99-.939l-.178-3.663a24.282 24.282 0 0 0-3.115.547 5.166 5.166 0 0 0-.3 2.007c.064 1.321.676 2.091 1.599 2.046z" class="prefix__cls-6" data-name="Path 20023" transform="translate(-406.493 -2489.055)"/>
            <path id="prefix__Path_20024" d="M461.379 2499.782a8.387 8.387 0 0 1 3.536-.968c2.119-.1 2.7.975 3.205 3.119a6.263 6.263 0 0 1 5.492-3.542 19.678 19.678 0 0 1 .521 4.356c0 1.812-.176 2.75-1.456 2.812a5.712 5.712 0 0 0-3.568 1.237l.7 14.478-7.372.358z" class="prefix__cls-6" data-name="Path 20024" transform="translate(-422.659 -2488.163)"/>
            <path id="prefix__Path_20025" d="M493.3 2491.245a5.76 5.76 0 0 1 4 1.222l-.4-8.213a11.657 11.657 0 0 1 3.9-.809c2.648-.128 3.335.328 3.484 3.416l1.291 26.578a13.54 13.54 0 0 1-3.514.523c-1.9.05-3.027-.386-3.563-2.305a6.462 6.462 0 0 1-5.088 2.726c-4.416.214-6.934-4.264-7.282-11.417-.34-6.888 2.135-11.476 7.172-11.721zm2.78 17.167a3.257 3.257 0 0 0 1.953-.8l-.491-10.108a3.8 3.8 0 0 0-3.387-.5 17.812 17.812 0 0 0-.434 5.638c.215 4.501 1.031 5.834 2.356 5.77z" class="prefix__cls-6" data-name="Path 20025" transform="translate(-433.772 -2481.433)"/>
            <path id="prefix__Path_20026" d="M528.913 2481.292c2.3-.112 3.321.945 3.435 3.285.1 2.031-1.069 3.5-4.38 3.664-2.428.118-3.34-1.34-3.439-3.371s1.071-3.417 4.384-3.578zm-2.789 30.933l-1.049-21.588a11.128 11.128 0 0 1 3.809-.848c2.913-.141 3.572.669 3.707 3.448l.9 18.63z" class="prefix__cls-6" data-name="Path 20026" transform="translate(-451.053 -2480.471)"/>
            <path id="prefix__Path_20027" d="M562.711 2505.886c.36 7.415-2.538 11.541-9.6 11.884-5.474.266-8.692-4.049-9.05-11.422-.255-5.251.866-11.323 9.387-11.737 6.309-.305 8.9 3.816 9.263 11.275zm-8.993 6.19a2.816 2.816 0 0 0 1.482-.471 21.047 21.047 0 0 0 .352-5.5c-.223-4.59-.724-5.8-2.4-5.723a3.161 3.161 0 0 0-1.527.431 18.5 18.5 0 0 0-.352 5.5c.22 4.587.813 5.843 2.444 5.763z" class="prefix__cls-6" data-name="Path 20027" transform="translate(-459.823 -2486.457)"/>
            <path id="prefix__Path_20028" d="M581.7 2504.555l-1.154-23.749a10.329 10.329 0 0 1 3.8-.985c2.782-.135 3.568.58 3.7 3.405l.956 19.691c.051 1.057.605 1.52 1.443 1.479a9.426 9.426 0 0 0 1.533-.341l.283 4.9a10.107 10.107 0 0 1-4.761 1.294c-3.389.162-5.6-1.68-5.8-5.694z" class="prefix__cls-6" data-name="Path 20028" transform="translate(-476.246 -2479.806)"/>
            <path id="prefix__Path_20029" d="M620.573 2503.075c.36 7.415-2.536 11.541-9.6 11.884-5.474.266-8.693-4.049-9.05-11.421-.255-5.252.866-11.323 9.387-11.737 6.312-.307 8.901 3.815 9.263 11.274zm-8.991 6.191a2.825 2.825 0 0 0 1.483-.472 21.184 21.184 0 0 0 .351-5.5c-.223-4.59-.724-5.805-2.4-5.724a3.166 3.166 0 0 0-1.527.431 18.5 18.5 0 0 0-.352 5.5c.221 4.59.813 5.844 2.446 5.765z" class="prefix__cls-6" data-name="Path 20029" transform="translate(-485.843 -2485.192)"/>
            <path id="prefix__Path_20030" d="M640.89 2519.077l-.266-5.475a20.91 20.91 0 0 0 6.4.662 14.523 14.523 0 0 0 3.95-.635l-.155-3.178a7.189 7.189 0 0 1-4.38 1.849c-4.766.232-7.419-3.354-7.8-11.3-.354-7.282 2.748-10.841 7.118-11.053a6.7 6.7 0 0 1 4.731 1.716c.866-1.278 1.626-2.025 4.32-2.156a6.5 6.5 0 0 1 2.269.29l.98 20.172c.362 7.462-3.966 9.441-10.235 9.746a19.841 19.841 0 0 1-6.932-.638zm7.8-12.417a3.033 3.033 0 0 0 1.906-.846l-.459-9.446a3.06 3.06 0 0 0-2.295-.818 3.6 3.6 0 0 0-1.052.227 13.951 13.951 0 0 0-.5 5.116c.181 3.753.638 5.853 2.403 5.768z" class="prefix__cls-6" data-name="Path 20030" transform="translate(-502.354 -2484.164)"/>
            <path id="prefix__Path_20031" d="M677.537 2517.814l-.247-5.079a18.029 18.029 0 0 0 4.088.335 14.573 14.573 0 0 0 3.293-.517l.275-1.649-3.621.175-5.744-21.713a24.49 24.49 0 0 1 4.214-.691c2.649-.128 3.425.367 3.882 3.4l2.178 13.877.967-17.438 7.152-.347-3.407 22.778c-.59 4.233-3.152 7.056-8.626 7.322a12.577 12.577 0 0 1-4.404-.453z" class="prefix__cls-6" data-name="Path 20031" transform="translate(-518.978 -2483.564)"/>
        </g>
        <g id="prefix__Group_6668" data-name="Group 6668" transform="translate(313.566 2472.788)">
            <path id="prefix__Path_20032" d="M402.052 2691.722a8.543 8.543 0 0 1 4.032.656c.131 3.145-.622 4.147-1.445 4.182a25.076 25.076 0 0 0-2.719-.239 4.133 4.133 0 0 0-1.485.386 12.046 12.046 0 0 0-.488 4.554c.16 3.822 1.355 4.949 3.147 4.874a5.437 5.437 0 0 0 2.79-.882l.935 4.054a7.73 7.73 0 0 1-4.618 1.517c-4.878.2-7.264-2.641-7.554-9.577-.28-6.702 2.644-9.327 7.405-9.525z" class="prefix__cls-5" data-name="Path 20032" transform="translate(-371.572 -2683.261)"/>
            <path id="prefix__Path_20033" d="M427.094 2712.861c-1.352.056-2.073-.3-2.309-1.7a3.841 3.841 0 0 1-3.423 1.938c-2.2.092-3.629-1.585-3.742-4.289-.157-3.762 2.125-4.829 6.431-5.363-.054-1.292-.166-1.847-1.429-1.794-1.058.044-2.216.534-3.185.574-1.264.053-1.745-.9-1.87-3.19a15.483 15.483 0 0 1 6.064-1.431c3.41-.142 5.08 1.084 5.239 4.875l.416 9.963a7.56 7.56 0 0 1-2.192.417zm-4.155-3.625a1.97 1.97 0 0 0 1.329-.614l-.1-2.44a16.219 16.219 0 0 0-2.076.352 3.425 3.425 0 0 0-.209 1.333c.034.883.438 1.395 1.056 1.369z" class="prefix__cls-5" data-name="Path 20033" transform="translate(-381.887 -2685.907)"/>
            <path id="prefix__Path_20034" d="M441.5 2697.314a5.845 5.845 0 0 1 2.476-.633 2 2 0 0 1 2.33 1.493 5.283 5.283 0 0 1 3.667-1.743c2.439-.1 3.643 1.232 3.753 3.878l.461 11.051-4.85.2-.408-9.787c-.031-.735-.285-1.166-1.019-1.135a1.95 1.95 0 0 0-1.331.556l.437 10.464-4.908.2z" class="prefix__cls-5" data-name="Path 20034" transform="translate(-392.647 -2685.381)"/>
            <path id="prefix__Path_20035" d="M469.519 2686.015c1.528-.063 2.205.644 2.27 2.2.057 1.352-.727 2.327-2.932 2.419-1.616.068-2.216-.909-2.273-2.261s.73-2.266 2.935-2.358zm-2 20.575l-.6-14.372a7.36 7.36 0 0 1 2.539-.548c1.94-.081 2.375.459 2.452 2.312l.518 12.4z" class="prefix__cls-5" data-name="Path 20035" transform="translate(-403.927 -2680.698)"/>
            <path id="prefix__Path_20036" d="M479.95 2695.709a5.846 5.846 0 0 1 2.476-.633 2 2 0 0 1 2.33 1.493 5.285 5.285 0 0 1 3.667-1.744c2.439-.1 3.643 1.232 3.753 3.878l.461 11.051-4.85.2-.408-9.787c-.03-.735-.284-1.166-1.019-1.135a1.946 1.946 0 0 0-1.331.556l.436 10.464-4.908.2z" class="prefix__cls-5" data-name="Path 20036" transform="translate(-409.938 -2684.659)"/>
            <path id="prefix__Path_20037" d="M511.156 2693.959c4.055-.169 5.487 2.391 5.67 6.771a24.591 24.591 0 0 1-.014 2.474l-6.5.271c.144 1.348.82 2.026 2.113 1.972a20.066 20.066 0 0 0 2.978-.595c.882-.037 1.269.771 1.34 3.183a10.5 10.5 0 0 1-5.069 1.3c-4.585.191-6.333-2.886-6.521-7.412-.182-4.467 1.771-7.787 6.003-7.964zm.1 3.764a1.955 1.955 0 0 0-.813.27 7.937 7.937 0 0 0-.272 2.661l2.284-.3c-.003-1.444-.26-2.669-1.201-2.63z" class="prefix__cls-5" data-name="Path 20037" transform="translate(-421.268 -2684.269)"/>
            <path id="prefix__Path_20038" d="M539.681 2686.544l6.525-.272c5.173-.216 6.862 2.864 7.1 8.653.213 5.086-1.44 9.924-7.848 10.191a16.167 16.167 0 0 1-5.023-.438zm5.573 14.312a3.131 3.131 0 0 0 1.035.1 2.8 2.8 0 0 0 1.393-.471 15.894 15.894 0 0 0 .546-5.263c-.165-3.968-.773-5.121-2.536-5.047l-.882.037z" class="prefix__cls-5" data-name="Path 20038" transform="translate(-436.797 -2680.811)"/>
            <path id="prefix__Path_20039" d="M569.23 2681.855c1.528-.064 2.205.644 2.27 2.2.057 1.352-.727 2.327-2.932 2.419-1.616.068-2.216-.908-2.273-2.261s.73-2.266 2.935-2.358zm-2 20.575l-.6-14.372a7.372 7.372 0 0 1 2.539-.547c1.94-.081 2.375.459 2.452 2.312l.518 12.4z" class="prefix__cls-5" data-name="Path 20039" transform="translate(-448.763 -2678.828)"/>
            <path id="prefix__Path_20040" d="M588.543 2706.124c-1.352.056-2.073-.3-2.309-1.7a3.842 3.842 0 0 1-3.423 1.939c-2.2.092-3.629-1.585-3.742-4.289-.157-3.762 2.125-4.829 6.43-5.363-.054-1.292-.165-1.847-1.429-1.795-1.058.044-2.215.534-3.185.575-1.264.053-1.745-.9-1.87-3.19a15.49 15.49 0 0 1 6.065-1.431c3.409-.142 5.08 1.084 5.237 4.876l.416 9.963a7.552 7.552 0 0 1-2.19.415zm-4.156-3.625a1.965 1.965 0 0 0 1.329-.614l-.1-2.44a16.34 16.34 0 0 0-2.075.352 3.424 3.424 0 0 0-.21 1.333c.035.883.44 1.395 1.057 1.37z" class="prefix__cls-5" data-name="Path 20040" transform="translate(-454.484 -2682.878)"/>
            <path id="prefix__Path_20041" d="M603.837 2709.211l-.152-3.645a13.877 13.877 0 0 0 4.26.47 9.675 9.675 0 0 0 2.633-.4l-.088-2.117a4.779 4.779 0 0 1-2.923 1.212c-3.175.132-4.923-2.269-5.145-7.559-.2-4.85 1.878-7.2 4.788-7.324a4.458 4.458 0 0 1 3.14 1.165c.583-.85 1.092-1.341 2.885-1.416a4.382 4.382 0 0 1 1.511.2l.56 13.432c.207 4.967-2.683 6.266-6.857 6.44a13.163 13.163 0 0 1-4.612-.458zm5.251-8.227a2.022 2.022 0 0 0 1.272-.553l-.263-6.29a2.043 2.043 0 0 0-1.525-.555 2.334 2.334 0 0 0-.7.147 9.285 9.285 0 0 0-.359 3.4c.106 2.498.4 3.9 1.575 3.851z" class="prefix__cls-5" data-name="Path 20041" transform="translate(-465.003 -2682.307)"/>
            <path id="prefix__Path_20042" d="M628.8 2689.5a5.841 5.841 0 0 1 2.476-.634 2 2 0 0 1 2.33 1.492 5.287 5.287 0 0 1 3.667-1.743c2.439-.1 3.643 1.232 3.753 3.877l.461 11.051-4.85.2-.408-9.787c-.03-.735-.284-1.166-1.019-1.135a1.947 1.947 0 0 0-1.331.556l.436 10.464-4.909.2z" class="prefix__cls-5" data-name="Path 20042" transform="translate(-476.869 -2681.866)"/>
            <path id="prefix__Path_20043" d="M666.4 2695.273c.206 4.938-1.741 7.668-6.443 7.864-3.644.152-5.767-2.732-5.972-7.641-.146-3.5.627-7.535 6.3-7.771 4.204-.175 5.909 2.581 6.115 7.548zm-6.012 4.078a1.886 1.886 0 0 0 .988-.306 14.037 14.037 0 0 0 .259-3.661c-.128-3.057-.456-3.868-1.573-3.821a2.12 2.12 0 0 0-1.019.277 12.355 12.355 0 0 0-.259 3.663c.129 3.056.516 3.897 1.605 3.849z" class="prefix__cls-5" data-name="Path 20043" transform="translate(-488.189 -2681.466)"/>
            <path id="prefix__Path_20044" d="M684.034 2686.758a11.89 11.89 0 0 1 3.668.407 6.074 6.074 0 0 1 .1 1c.042 1.736-.478 2.67-1.389 2.708-.617.026-1.366-.3-2.572-.246a4.117 4.117 0 0 0-1.083.163 1.076 1.076 0 0 0-.07.445c.023.529.471.687 2.195 1.086 2.524.513 3.523 1.884 3.627 4.354.137 3.291-1.984 5.382-5.481 5.528a8.568 8.568 0 0 1-4-.687 3.988 3.988 0 0 1-.2-1.2c-.02-1.177.344-2.341 1.079-2.371a14.287 14.287 0 0 0 2.96.377 3.558 3.558 0 0 0 1.286-.23 1.084 1.084 0 0 0 .067-.5c-.026-.617-.732-.617-2.223-1.055a4.455 4.455 0 0 1-3.512-4.447c-.129-3.063 1.756-5.173 5.548-5.332z" class="prefix__cls-5" data-name="Path 20044" transform="translate(-499.209 -2681.029)"/>
            <path id="prefix__Path_20045" d="M700.879 2676.361c1.528-.064 2.205.644 2.27 2.2.057 1.352-.727 2.327-2.932 2.419-1.616.067-2.216-.909-2.273-2.261s.73-2.266 2.935-2.358zm-2 20.575l-.6-14.372a7.365 7.365 0 0 1 2.539-.548c1.94-.081 2.375.46 2.452 2.312l.518 12.4z" class="prefix__cls-5" data-name="Path 20045" transform="translate(-507.961 -2676.357)"/>
            <path id="prefix__Path_20046" d="M716.4 2685.408a11.894 11.894 0 0 1 3.669.407 6.069 6.069 0 0 1 .1 1c.042 1.736-.478 2.67-1.389 2.708-.618.026-1.367-.3-2.572-.246a4.109 4.109 0 0 0-1.083.163 1.075 1.075 0 0 0-.07.445c.022.529.47.687 2.195 1.086 2.524.513 3.523 1.884 3.627 4.353.137 3.292-1.984 5.382-5.481 5.528a8.56 8.56 0 0 1-4-.687 3.988 3.988 0 0 1-.2-1.2c-.02-1.177.344-2.341 1.079-2.371a14.209 14.209 0 0 0 2.96.377 3.54 3.54 0 0 0 1.286-.23 1.08 1.08 0 0 0 .067-.5c-.026-.617-.732-.617-2.223-1.055a4.455 4.455 0 0 1-3.512-4.446c-.131-3.063 1.754-5.174 5.547-5.332z" class="prefix__cls-5" data-name="Path 20046" transform="translate(-513.763 -2680.422)"/>
            <path id="prefix__Path_20047" d="M730.488 2687.693c-.059-1.41.829-2.714 3.151-2.811 1.94-.081 2.654.8 2.732 2.683.07 1.675-1.031 2.811-3.235 2.9-1.822.08-2.578-1.096-2.648-2.772zm.406 9.729c-.059-1.41.829-2.713 3.151-2.81 1.939-.081 2.655.831 2.734 2.712.07 1.675-1.032 2.78-3.237 2.873-1.823.075-2.577-1.07-2.648-2.775z" class="prefix__cls-5" data-name="Path 20047" transform="translate(-522.594 -2680.188)"/>
            <path id="prefix__Path_20048" d="M360.157 2741.621a8.524 8.524 0 0 1 4.031.656c.132 3.145-.621 4.147-1.445 4.182a25 25 0 0 0-2.719-.24 4.124 4.124 0 0 0-1.485.386 12.053 12.053 0 0 0-.487 4.553c.16 3.822 1.355 4.95 3.148 4.875a5.442 5.442 0 0 0 2.79-.882l.934 4.053a7.731 7.731 0 0 1-4.618 1.517c-4.879.2-7.264-2.641-7.554-9.577-.28-6.699 2.648-9.324 7.405-9.523z" class="prefix__cls-5" data-name="Path 20048" transform="translate(-352.734 -2705.699)"/>
            <path id="prefix__Path_20049" d="M376.442 2755.233l-.66-15.813a6.908 6.908 0 0 1 2.535-.635c1.851-.077 2.372.4 2.451 2.282l.547 13.108c.03.706.4 1.014.954.991a6.318 6.318 0 0 0 1.021-.219l.165 3.261a6.719 6.719 0 0 1-3.174.839c-2.263.095-3.727-1.139-3.839-3.814z" class="prefix__cls-5" data-name="Path 20049" transform="translate(-363.098 -2704.425)"/>
            <path id="prefix__Path_20050" d="M392.7 2737.372c1.528-.064 2.206.644 2.271 2.2.056 1.352-.728 2.327-2.932 2.419-1.617.067-2.217-.909-2.273-2.261s.725-2.266 2.934-2.358zm-2 20.575l-.6-14.372a7.363 7.363 0 0 1 2.538-.547c1.94-.081 2.375.459 2.452 2.312l.517 12.4z" class="prefix__cls-5" data-name="Path 20050" transform="translate(-369.382 -2703.792)"/>
            <path id="prefix__Path_20051" d="M408.644 2746.388c4.056-.169 5.488 2.392 5.671 6.771a24.6 24.6 0 0 1-.015 2.474l-6.5.271c.145 1.348.82 2.026 2.114 1.972a20.044 20.044 0 0 0 2.978-.595c.882-.037 1.269.772 1.34 3.183a10.51 10.51 0 0 1-5.069 1.3c-4.585.191-6.333-2.886-6.521-7.412-.183-4.467 1.77-7.788 6.002-7.964zm.1 3.765a1.951 1.951 0 0 0-.813.27 7.966 7.966 0 0 0-.272 2.661l2.284-.3c-.003-1.445-.26-2.671-1.201-2.631z" class="prefix__cls-5" data-name="Path 20051" transform="translate(-375.172 -2707.844)"/>
            <path id="prefix__Path_20052" d="M426.412 2746.1a5.841 5.841 0 0 1 2.476-.634 2 2 0 0 1 2.33 1.493 5.281 5.281 0 0 1 3.667-1.743c2.439-.1 3.643 1.231 3.753 3.877l.461 11.051-4.85.2-.408-9.787c-.031-.735-.285-1.167-1.019-1.136a1.95 1.95 0 0 0-1.331.556l.437 10.463-4.908.2z" class="prefix__cls-5" data-name="Path 20052" transform="translate(-385.864 -2707.316)"/>
            <path id="prefix__Path_20053" d="M450.394 2742.716l1.793-.075-.054-1.293c-.076-1.822 1.187-2.611 4.489-2.484l.15 3.586 2.616-.109.155 3.7-2.616.109.261 6.261c.031.763.426 1.041 1.043 1.016a3.429 3.429 0 0 0 1.4-.323l.513 3.129a7.65 7.65 0 0 1-3.784 1.041c-2.5.1-3.9-1.132-4.022-3.954l-.291-6.966-1.5.063z" class="prefix__cls-5" data-name="Path 20053" transform="translate(-396.648 -2704.458)"/>
            <path id="prefix__Path_20054" d="M486.838 2736.334a8.545 8.545 0 0 1 4.032.656c.131 3.145-.622 4.147-1.445 4.182a25.059 25.059 0 0 0-2.719-.24 4.146 4.146 0 0 0-1.485.386 12.047 12.047 0 0 0-.488 4.554c.16 3.821 1.355 4.949 3.148 4.875a5.442 5.442 0 0 0 2.79-.883l.934 4.054a7.729 7.729 0 0 1-4.618 1.517c-4.878.2-7.264-2.641-7.554-9.577-.28-6.7 2.644-9.325 7.405-9.524z" class="prefix__cls-5" data-name="Path 20054" transform="translate(-409.697 -2703.322)"/>
            <path id="prefix__Path_20055" d="M514.913 2749.746c.206 4.938-1.741 7.668-6.443 7.865-3.645.152-5.767-2.732-5.972-7.641-.146-3.5.628-7.534 6.3-7.771 4.202-.176 5.908 2.58 6.115 7.547zm-6.012 4.078a1.885 1.885 0 0 0 .988-.305 14.014 14.014 0 0 0 .26-3.662c-.128-3.057-.456-3.867-1.573-3.821a2.119 2.119 0 0 0-1.019.277 12.356 12.356 0 0 0-.259 3.662c.127 3.056.515 3.895 1.602 3.849z" class="prefix__cls-5" data-name="Path 20055" transform="translate(-420.07 -2705.96)"/>
            <path id="prefix__Path_20056" d="M527.458 2741.641a6.636 6.636 0 0 1 2.418-.631 1.951 1.951 0 0 1 2.329 1.493 5.741 5.741 0 0 1 3.784-1.748 2.7 2.7 0 0 1 2.922 1.585 6.53 6.53 0 0 1 3.955-1.873c2.851-.119 3.449 1.506 3.588 4.826l.422 10.111-4.791.2-.4-9.641c-.037-.881-.17-1.259-.934-1.227a3.047 3.047 0 0 0-1.3.526l.436 10.434-4.82.2-.4-9.64c-.037-.881-.141-1.26-.876-1.229a3.468 3.468 0 0 0-1.332.527l.435 10.434-4.82.2z" class="prefix__cls-5" data-name="Path 20056" transform="translate(-431.301 -2705.183)"/>
            <path id="prefix__Path_20057" d="M565.432 2740.057a6.635 6.635 0 0 1 2.418-.631 1.952 1.952 0 0 1 2.329 1.493 5.738 5.738 0 0 1 3.784-1.748 2.7 2.7 0 0 1 2.922 1.586 6.529 6.529 0 0 1 3.956-1.873c2.851-.119 3.448 1.506 3.587 4.827l.422 10.11-4.791.2-.4-9.64c-.037-.882-.171-1.259-.934-1.227a3.028 3.028 0 0 0-1.3.526l.435 10.433-4.82.2-.4-9.641c-.037-.881-.141-1.26-.876-1.229a3.478 3.478 0 0 0-1.332.527l.435 10.434-4.82.2z" class="prefix__cls-5" data-name="Path 20057" transform="translate(-448.376 -2704.47)"/>
            <path id="prefix__Path_20058" d="M615.858 2752.508a5.824 5.824 0 0 1-2.619.757 1.763 1.763 0 0 1-2.125-1.53 5.278 5.278 0 0 1-3.635 1.771c-2.381.1-3.737-1.345-3.856-4.2l-.445-10.669a15.8 15.8 0 0 1 2.255-.3c1.852-.077 2.628.184 2.71 2.153l.312 7.466c.039.94.317 1.253.964 1.226a2.375 2.375 0 0 0 1.444-.678l-.428-10.258 4.82-.2z" class="prefix__cls-5" data-name="Path 20058" transform="translate(-465.349 -2704.097)"/>
            <path id="prefix__Path_20059" d="M629.041 2737.64a5.828 5.828 0 0 1 2.476-.633 2 2 0 0 1 2.33 1.492 5.286 5.286 0 0 1 3.666-1.743c2.44-.1 3.643 1.232 3.754 3.877l.461 11.051-4.85.2-.408-9.787c-.031-.735-.284-1.166-1.019-1.135a1.95 1.95 0 0 0-1.331.556l.437 10.463-4.909.2z" class="prefix__cls-5" data-name="Path 20059" transform="translate(-476.979 -2703.514)"/>
            <path id="prefix__Path_20060" d="M657.063 2726.341c1.528-.064 2.206.644 2.271 2.2.057 1.352-.727 2.327-2.932 2.419-1.616.068-2.216-.909-2.273-2.261s.729-2.266 2.934-2.358zm-2 20.575l-.6-14.372A7.372 7.372 0 0 1 657 2732c1.94-.081 2.375.46 2.452 2.312l.517 12.4z" class="prefix__cls-5" data-name="Path 20060" transform="translate(-488.259 -2698.831)"/>
            <path id="prefix__Path_20061" d="M672.983 2735.359a6.369 6.369 0 0 1 3.655.82c.094 2.234-.352 3.548-1.293 3.587-.558.023-1.194-.392-2.046-.356a2.522 2.522 0 0 0-.788.18 9.481 9.481 0 0 0-.445 3.463c.111 2.645 1.039 3.725 2.42 3.668a5.156 5.156 0 0 0 2.124-.619l.578 3.274a6.469 6.469 0 0 1-3.858 1.368c-3.586.15-6.088-1.954-6.312-7.333-.218-5.291 2.055-7.889 5.965-8.052z" class="prefix__cls-5" data-name="Path 20061" transform="translate(-494.049 -2702.885)"/>
            <path id="prefix__Path_20062" d="M695.6 2749.808c-1.353.057-2.074-.3-2.309-1.7a3.842 3.842 0 0 1-3.423 1.939c-2.2.092-3.629-1.586-3.742-4.29-.157-3.762 2.125-4.829 6.431-5.362-.054-1.293-.166-1.848-1.429-1.8-1.058.045-2.216.534-3.185.575-1.264.053-1.745-.9-1.871-3.19a15.489 15.489 0 0 1 6.065-1.431c3.409-.143 5.08 1.083 5.238 4.875l.416 9.962a7.5 7.5 0 0 1-2.191.422zm-4.156-3.625a1.965 1.965 0 0 0 1.328-.614l-.1-2.439a16.259 16.259 0 0 0-2.076.352 3.424 3.424 0 0 0-.209 1.333c.039.885.443 1.393 1.06 1.368z" class="prefix__cls-5" data-name="Path 20062" transform="translate(-502.625 -2702.521)"/>
            <path id="prefix__Path_20063" d="M708.3 2731.954l1.793-.075-.054-1.293c-.076-1.822 1.187-2.611 4.489-2.484l.15 3.586 2.616-.11.155 3.7-2.616.11.261 6.261c.032.763.427 1.041 1.043 1.015a3.422 3.422 0 0 0 1.4-.323l.513 3.129a7.645 7.645 0 0 1-3.784 1.041c-2.5.1-3.9-1.132-4.022-3.954l-.291-6.966-1.5.062z" class="prefix__cls-5" data-name="Path 20063" transform="translate(-512.618 -2699.619)"/>
            <path id="prefix__Path_20064" d="M729.59 2723.314c1.528-.064 2.205.644 2.27 2.2.057 1.351-.727 2.327-2.932 2.419-1.616.067-2.216-.909-2.273-2.261s.73-2.266 2.935-2.358zm-2 20.575l-.6-14.372a7.366 7.366 0 0 1 2.539-.548c1.94-.081 2.375.46 2.452 2.313l.518 12.4z" class="prefix__cls-5" data-name="Path 20064" transform="translate(-520.871 -2697.47)"/>
            <path id="prefix__Path_20065" d="M751.937 2739.855c.206 4.938-1.741 7.668-6.443 7.864-3.644.152-5.767-2.732-5.972-7.641-.146-3.5.627-7.535 6.3-7.771 4.203-.175 5.908 2.581 6.115 7.548zm-6.012 4.077a1.879 1.879 0 0 0 .988-.305 14.05 14.05 0 0 0 .259-3.661c-.128-3.057-.456-3.868-1.572-3.821a2.112 2.112 0 0 0-1.019.277 12.327 12.327 0 0 0-.26 3.663c.128 3.056.516 3.894 1.604 3.848z" class="prefix__cls-5" data-name="Path 20065" transform="translate(-526.651 -2701.512)"/>
            <path id="prefix__Path_20066" d="M764.482 2731.988a5.838 5.838 0 0 1 2.476-.634 2 2 0 0 1 2.33 1.493 5.284 5.284 0 0 1 3.666-1.744c2.44-.1 3.643 1.232 3.754 3.878l.461 11.051-4.85.2-.408-9.787c-.031-.735-.285-1.166-1.019-1.135a1.947 1.947 0 0 0-1.331.556l.437 10.464-4.909.2z" class="prefix__cls-5" data-name="Path 20066" transform="translate(-537.882 -2700.972)"/>
        </g>
        <g id="prefix__Group_6669" data-name="Group 6669" transform="translate(274.571 2395.645)" style="opacity:.5;mix-blend-mode:multiply;isolation:isolate">
            <path id="prefix__Path_20067" d="M585.874 2551.158a49.946 49.946 0 0 0-3.069-14.976 50.012 50.012 0 0 1-90.582 37.335c-.144-.214-.285-.431-.426-.647-1.586-2.3-7.487-9.991-15.441-9.6l-44.4 2.179h-.017l-44.4 2.179c-7.953.39-13.074 8.617-14.426 11.066-.119.229-.238.458-.361.686a50.021 50.021 0 0 1-90.872-6.329 50.013 50.013 0 0 0 93.12 14.395c.123-.227.242-.456.361-.685 1.352-2.449 6.473-10.676 14.427-11.066l44.4-2.179h.016l44.4-2.179c7.954-.391 13.855 7.3 15.441 9.6.141.216.282.433.427.646a50.012 50.012 0 0 0 91.4-30.425z" data-name="Path 20067" transform="translate(-281.877 -2536.182)" style="fill:#bebed2"/>
        </g>
        <g id="prefix__Group_6670" data-name="Group 6670" transform="translate(383.135 2258.336)">
            <path id="prefix__Path_20068" d="M479.146 2286.683a34.706 34.706 0 0 0 34.693 34.693V2303a16.313 16.313 0 0 1-16.319-16.319z" class="prefix__cls-1" data-name="Path 20068" transform="translate(-479.146 -2286.683)"/>
        </g>
    </g>
</svg>
