<svg xmlns="http://www.w3.org/2000/svg" id="prefix__MasterLogo-light" width="313" height="304.179" viewBox="0 0 313 304.179">
    <defs>
        <style>
            .prefix__cls-1{fill:#d6d8d8}.prefix__cls-2{fill:#fff}.prefix__cls-4{fill:#003087}.prefix__cls-5{fill:#31add3}
        </style>
    </defs>
    <path id="prefix__Ring" d="M513.839 123.643a34.693 34.693 0 1 0 34.693 34.693 34.733 34.733 0 0 0-34.693-34.693zm0 51.012a16.319 16.319 0 1 1 16.319-16.319 16.337 16.337 0 0 1-16.319 16.319z" class="prefix__cls-1" transform="translate(-361.64 -123.643)"/>
    <path id="prefix__Tag" d="M566.474 293.084a50.254 50.254 0 0 0-7.268-8.038c-8.641-9.928-11.138-14.636-11.451-18.683-.084-4.059 1.939-8.988 9.567-19.715a50.212 50.212 0 0 0 6.446-8.711 9.686 9.686 0 0 0 1.464-2.688 50.013 50.013 0 0 0-88.663-46.284c-.123.227-.242.456-.361.685-1.352 2.448-6.473 10.675-14.427 11.066l-7.906.388c-4.846.238-6.553-4.062-6.985-5.49q-.041-.148-.084-.295c-.026-.1-.039-.161-.039-.161h-.007a30.42 30.42 0 0 0-59.089 2.9h-.025s-.686 6.328-6.491 6.613l-8.194.4c-7.954.39-13.855-7.3-15.441-9.6-.141-.216-.282-.433-.426-.646a50.013 50.013 0 0 0-83.7 54.743 9.677 9.677 0 0 0 1.72 2.533 50.225 50.225 0 0 0 7.268 8.038c8.641 9.928 11.138 14.636 11.451 18.683.085 4.059-1.939 8.989-9.566 19.715a50.28 50.28 0 0 0-6.446 8.711 9.68 9.68 0 0 0-1.463 2.689 50.013 50.013 0 0 0 88.662 46.283c.123-.227.242-.456.361-.685 1.352-2.449 6.473-10.676 14.427-11.066l44.4-2.179h.017l44.4-2.179c7.953-.391 13.855 7.3 15.44 9.6.141.216.282.433.427.647a50.013 50.013 0 0 0 83.7-54.743 9.686 9.686 0 0 0-1.718-2.531zm-148.736-82.735a10.127 10.127 0 1 1 9.618-10.611 10.127 10.127 0 0 1-9.618 10.611z" class="prefix__cls-2" transform="translate(-265.629 -141.222)"/>
    <path id="prefix__RingShadow" d="M487.281 220.5a30.028 30.028 0 0 0-.894 3.536h-.025a9.462 9.462 0 0 1-1.2 3.43 34.642 34.642 0 0 0 25.787 8.664 34.759 34.759 0 0 1-23.668-15.63z" transform="translate(-364.344 -167.197)" style="fill:#0d7fbc"/>
    <g id="prefix__iConsult" transform="translate(48.122 83.246)">
        <path id="prefix__Path_20130" d="M360.059 288.168c3.658-.178 5.288 1.5 5.469 5.23.157 3.234-1.7 5.579-6.974 5.835-3.867.188-5.319-2.134-5.476-5.367s1.71-5.442 6.981-5.698zm-4.44 49.257l-1.67-34.377a17.712 17.712 0 0 1 6.064-1.351c4.639-.225 5.689 1.067 5.9 5.491l1.441 29.666z" class="prefix__cls-4" data-name="Path 20130" transform="translate(-353.069 -280.864)"/>
        <path id="prefix__Path_20131" d="M401.053 293.034c5.343-.26 8.858 1.05 9.657 1.5.365 7.521-1.422 9.937-3.388 10.033s-2.783-.714-6.509-.533a10.013 10.013 0 0 0-3.549.947c-1.064 2.731-1.289 6.827-1.091 10.908.444 9.135 3.322 11.812 7.612 11.6a13.024 13.024 0 0 0 6.66-2.153l2.3 9.682c-2.851 2.255-6.383 3.483-11.022 3.708-11.67.567-17.424-6.2-18.229-22.792-.779-16.019 6.171-22.347 17.559-22.9z" class="prefix__cls-4" data-name="Path 20131" transform="translate(-366.723 -283.043)"/>
        <path id="prefix__Path_20132" d="M468.445 324.679c.574 11.814-4.038 18.377-15.286 18.923-8.717.424-13.842-6.447-14.412-18.187-.406-8.362 1.379-18.03 14.947-18.689 10.052-.488 14.174 6.074 14.751 17.953zm-7.128-5.722a.683.683 0 0 0-.6-.706l-1.657-.088a.662.662 0 0 1-.591-.569l-1.314-7.043a.621.621 0 0 0-1.21-.094l-1.267 3.784a.654.654 0 0 1-.509.457l-2.737.414a.584.584 0 0 1-.5-.173l-3.339-3.329c-.43-.429-1.1-.042-1.051.6l1.891 16.188h-.006a25.618 25.618 0 0 0 .557 2.883c1.462 5.238 5.482 4.276 5.482 4.276 5.613-.4 5.028-10.172 5.028-10.172a.788.788 0 0 1 .23-.815c1.485-1.301 1.615-4.27 1.593-5.614zm-1.917 1.463a1.136 1.136 0 0 1-1.414-.769.459.459 0 0 1 .36-.631l1.676-.224a.458.458 0 0 1 .5.561 1.374 1.374 0 0 1-1.122 1.063z" class="prefix__cls-4" data-name="Path 20132" transform="translate(-391.573 -289.203)"/>
        <path id="prefix__Path_20133" d="M498.281 305.626a13.949 13.949 0 0 1 5.914-1.555c2.882-.14 4.54.623 5.6 3.532a12.632 12.632 0 0 1 8.742-4.228c5.835-.283 8.737 2.886 9.045 9.21l1.283 26.432-11.6.564-1.137-23.41c-.085-1.757-.7-2.783-2.454-2.7a4.648 4.648 0 0 0-3.176 1.353l1.216 25.024-11.739.57z" class="prefix__cls-4" data-name="Path 20133" transform="translate(-418.366 -287.699)"/>
        <path id="prefix__Path_20134" d="M571.968 301.045a28.442 28.442 0 0 1 8.78.91 14.241 14.241 0 0 1 .259 2.386c.13 4.147-1.1 6.393-3.279 6.5-1.477.072-3.274-.685-6.157-.544a9.7 9.7 0 0 0-2.588.407 2.559 2.559 0 0 0-.161 1.063c.062 1.265 1.138 1.637 5.268 2.561 6.047 1.187 8.461 4.454 8.748 10.355.382 7.876-4.657 12.911-13.022 13.318a20.541 20.541 0 0 1-9.589-1.577 9.61 9.61 0 0 1-.492-2.868c-.065-2.813.786-5.6 2.544-5.688 1.4-.068 2.94 1.056 7.087.855a8.441 8.441 0 0 0 3.073-.574 2.6 2.6 0 0 0 .154-1.206c-.072-1.477-1.763-1.463-5.336-2.489-5.644-1.625-8.221-5.31-8.477-10.581-.357-7.311 4.12-12.388 13.188-12.828z" class="prefix__cls-4" data-name="Path 20134" transform="translate(-445.561 -286.644)"/>
        <path id="prefix__Path_20135" d="M636.666 333.125a13.955 13.955 0 0 1-6.252 1.853c-2.953.144-4.263-.711-5.107-3.631a12.61 12.61 0 0 1-8.669 4.3c-5.7.276-8.961-3.162-9.291-9.979l-1.239-25.516a37.448 37.448 0 0 1 5.388-.756c4.427-.215 6.29.4 6.519 5.111l.867 17.852c.109 2.249.779 2.991 2.325 2.916a5.659 5.659 0 0 0 3.442-1.647l-1.194-24.528 11.531-.56z" class="prefix__cls-4" data-name="Path 20135" transform="translate(-466.851 -285.532)"/>
        <path id="prefix__Path_20136" d="M668.4 314.315l-1.833-37.815a16.426 16.426 0 0 1 6.054-1.568c4.427-.215 5.682.923 5.9 5.422l1.523 31.354c.081 1.683.964 2.42 2.3 2.355a15.005 15.005 0 0 0 2.437-.543l.451 7.8a16.1 16.1 0 0 1-7.582 2.06c-5.411.261-8.936-2.672-9.25-9.065z" class="prefix__cls-4" data-name="Path 20136" transform="translate(-494.038 -274.906)"/>
        <path id="prefix__Path_20137" d="M696.882 290.33l4.287-.209-.15-3.091c-.212-4.361 2.8-6.269 10.7-6.016l.417 8.574 6.256-.3.43 8.855-6.256.3.728 14.973c.089 1.832 1.036 2.491 2.513 2.42a8.262 8.262 0 0 0 3.343-.8l1.278 7.476a18.3 18.3 0 0 1-9.035 2.556c-5.976.291-9.36-2.649-9.688-9.4l-.805-16.658-3.583.174z" class="prefix__cls-4" data-name="Path 20137" transform="translate(-507.669 -277.643)"/>
    </g>
    <g id="prefix__Cardiology" transform="translate(69.009 140.976)">
        <path id="prefix__Path_20138" d="M402.087 391.76a12.83 12.83 0 0 1 6.065.945c.229 4.723-.893 6.24-2.128 6.3s-1.748-.449-4.088-.335a6.285 6.285 0 0 0-2.228.594 18.139 18.139 0 0 0-.685 6.85c.279 5.737 2.086 7.419 4.78 7.288a8.177 8.177 0 0 0 4.182-1.353l1.445 6.08a11.591 11.591 0 0 1-6.922 2.328c-7.329.356-10.942-3.893-11.448-14.313-.489-10.064 3.876-14.037 11.027-14.384z" class="prefix__cls-5" data-name="Path 20138" transform="translate(-391.022 -385.172)"/>
        <path id="prefix__Path_20139" d="M439.885 423.277c-2.031.1-3.119-.425-3.486-2.529a5.78 5.78 0 0 1-5.123 2.948c-3.31.161-5.468-2.347-5.665-6.409-.275-5.65 3.141-7.275 9.606-8.119-.095-1.944-.268-2.775-2.166-2.683-1.589.077-3.323.824-4.779.9-1.9.092-2.632-1.332-2.844-4.773a23.326 23.326 0 0 1 9.1-2.211c5.12-.249 7.643 1.575 7.919 7.268l.727 14.968a11.34 11.34 0 0 1-3.289.64zm-6.281-5.4a2.955 2.955 0 0 0 1.99-.939l-.178-3.663a24.261 24.261 0 0 0-3.115.548 5.165 5.165 0 0 0-.3 2.007c.064 1.32.676 2.09 1.599 2.045z" class="prefix__cls-5" data-name="Path 20139" transform="translate(-406.493 -389.055)"/>
        <path id="prefix__Path_20140" d="M461.379 399.781a8.393 8.393 0 0 1 3.536-.967c2.119-.1 2.7.975 3.205 3.119a6.263 6.263 0 0 1 5.492-3.542 19.678 19.678 0 0 1 .521 4.356c0 1.812-.176 2.75-1.456 2.812a5.711 5.711 0 0 0-3.568 1.237l.7 14.478-7.372.358z" class="prefix__cls-5" data-name="Path 20140" transform="translate(-422.659 -388.163)"/>
        <path id="prefix__Path_20141" d="M493.3 391.245a5.76 5.76 0 0 1 4 1.222l-.4-8.213a11.634 11.634 0 0 1 3.9-.809c2.648-.129 3.335.328 3.484 3.416l1.291 26.577a13.525 13.525 0 0 1-3.514.523c-1.9.05-3.027-.386-3.563-2.305a6.462 6.462 0 0 1-5.088 2.726c-4.416.215-6.934-4.264-7.282-11.417-.34-6.888 2.135-11.475 7.172-11.72zm2.78 17.167a3.258 3.258 0 0 0 1.953-.8l-.491-10.108a3.8 3.8 0 0 0-3.387-.5 17.811 17.811 0 0 0-.434 5.638c.215 4.5 1.031 5.834 2.356 5.77z" class="prefix__cls-5" data-name="Path 20141" transform="translate(-433.772 -381.433)"/>
        <path id="prefix__Path_20142" d="M528.913 381.292c2.3-.112 3.321.945 3.435 3.285.1 2.031-1.069 3.5-4.38 3.664-2.428.118-3.34-1.34-3.439-3.371s1.071-3.417 4.384-3.578zm-2.789 30.933l-1.049-21.588a11.117 11.117 0 0 1 3.809-.848c2.913-.141 3.572.669 3.707 3.448l.9 18.63z" class="prefix__cls-5" data-name="Path 20142" transform="translate(-451.053 -380.471)"/>
        <path id="prefix__Path_20143" d="M562.711 405.886c.36 7.416-2.538 11.541-9.6 11.885-5.474.266-8.692-4.049-9.05-11.422-.255-5.251.866-11.323 9.387-11.736 6.309-.308 8.9 3.814 9.263 11.273zm-8.993 6.191a2.816 2.816 0 0 0 1.482-.472 21.046 21.046 0 0 0 .352-5.5c-.223-4.59-.724-5.8-2.4-5.723a3.155 3.155 0 0 0-1.526.431 18.47 18.47 0 0 0-.353 5.5c.22 4.587.813 5.843 2.444 5.763z" class="prefix__cls-5" data-name="Path 20143" transform="translate(-459.823 -386.456)"/>
        <path id="prefix__Path_20144" d="M581.7 404.555l-1.154-23.749a10.328 10.328 0 0 1 3.8-.985c2.782-.135 3.568.58 3.7 3.4l.956 19.69c.051 1.057.605 1.52 1.443 1.479a9.426 9.426 0 0 0 1.533-.341l.283 4.9a10.115 10.115 0 0 1-4.761 1.294c-3.389.168-5.6-1.674-5.8-5.688z" class="prefix__cls-5" data-name="Path 20144" transform="translate(-476.246 -379.806)"/>
        <path id="prefix__Path_20145" d="M620.573 403.075c.36 7.415-2.536 11.541-9.6 11.884-5.474.266-8.693-4.049-9.05-11.421-.255-5.252.866-11.323 9.387-11.737 6.312-.307 8.901 3.815 9.263 11.274zm-8.991 6.191a2.827 2.827 0 0 0 1.483-.472 21.191 21.191 0 0 0 .351-5.5c-.223-4.59-.724-5.8-2.4-5.724a3.171 3.171 0 0 0-1.527.431 18.5 18.5 0 0 0-.352 5.5c.221 4.59.813 5.844 2.446 5.765z" class="prefix__cls-5" data-name="Path 20145" transform="translate(-485.843 -385.192)"/>
        <path id="prefix__Path_20146" d="M640.89 419.077l-.266-5.475a20.9 20.9 0 0 0 6.4.662 14.524 14.524 0 0 0 3.95-.635l-.155-3.178a7.191 7.191 0 0 1-4.38 1.849c-4.766.232-7.419-3.354-7.8-11.3-.354-7.282 2.748-10.841 7.118-11.053a6.7 6.7 0 0 1 4.731 1.716c.866-1.278 1.626-2.025 4.32-2.156a6.508 6.508 0 0 1 2.269.29l.98 20.172c.362 7.462-3.966 9.441-10.235 9.746a19.84 19.84 0 0 1-6.932-.638zm7.8-12.417a3.033 3.033 0 0 0 1.906-.845l-.459-9.447a3.06 3.06 0 0 0-2.295-.818 3.588 3.588 0 0 0-1.052.227 13.949 13.949 0 0 0-.5 5.116c.181 3.753.638 5.853 2.403 5.767z" class="prefix__cls-5" data-name="Path 20146" transform="translate(-502.354 -384.164)"/>
        <path id="prefix__Path_20147" d="M677.537 417.814l-.247-5.079a18.02 18.02 0 0 0 4.088.335 14.561 14.561 0 0 0 3.293-.517l.275-1.649-3.621.176-5.744-21.714a24.564 24.564 0 0 1 4.214-.691c2.649-.129 3.425.367 3.882 3.4l2.178 13.877.967-17.439 7.152-.347-3.407 22.777c-.59 4.234-3.152 7.056-8.626 7.322a12.556 12.556 0 0 1-4.404-.451z" class="prefix__cls-5" data-name="Path 20147" transform="translate(-518.978 -383.564)"/>
    </g>
    <g id="prefix__Strapline" transform="translate(47.937 249.145)">
        <path id="prefix__Path_20148" d="M402.052 591.722a8.543 8.543 0 0 1 4.032.656c.131 3.145-.622 4.147-1.445 4.182a25.036 25.036 0 0 0-2.719-.239 4.133 4.133 0 0 0-1.485.386 12.046 12.046 0 0 0-.488 4.554c.16 3.822 1.355 4.949 3.147 4.874a5.438 5.438 0 0 0 2.79-.882l.935 4.054a7.728 7.728 0 0 1-4.618 1.517c-4.878.2-7.264-2.641-7.554-9.577-.28-6.702 2.644-9.327 7.405-9.525z" class="prefix__cls-2" data-name="Path 20148" transform="translate(-371.572 -583.261)"/>
        <path id="prefix__Path_20149" d="M427.094 612.861c-1.352.056-2.073-.3-2.309-1.7a3.841 3.841 0 0 1-3.423 1.939c-2.2.092-3.629-1.585-3.742-4.289-.157-3.762 2.125-4.829 6.431-5.362-.054-1.292-.166-1.847-1.429-1.795-1.058.044-2.216.534-3.185.575-1.264.053-1.745-.9-1.87-3.19a15.483 15.483 0 0 1 6.064-1.431c3.41-.142 5.08 1.084 5.239 4.875l.416 9.963a7.556 7.556 0 0 1-2.192.415zm-4.155-3.625a1.969 1.969 0 0 0 1.329-.614l-.1-2.44a16.316 16.316 0 0 0-2.076.352 3.426 3.426 0 0 0-.209 1.333c.034.883.438 1.395 1.056 1.369z" class="prefix__cls-2" data-name="Path 20149" transform="translate(-381.887 -585.907)"/>
        <path id="prefix__Path_20150" d="M441.5 597.314a5.844 5.844 0 0 1 2.476-.633 2 2 0 0 1 2.33 1.492 5.284 5.284 0 0 1 3.667-1.743c2.439-.1 3.643 1.232 3.753 3.878l.461 11.051-4.85.2-.408-9.787c-.031-.735-.285-1.166-1.019-1.135a1.95 1.95 0 0 0-1.331.556l.437 10.464-4.908.2z" class="prefix__cls-2" data-name="Path 20150" transform="translate(-392.647 -585.381)"/>
        <path id="prefix__Path_20151" d="M469.519 586.015c1.528-.063 2.205.644 2.27 2.2.057 1.352-.727 2.327-2.932 2.419-1.616.068-2.216-.909-2.273-2.261s.73-2.266 2.935-2.358zm-2 20.576l-.6-14.372a7.363 7.363 0 0 1 2.539-.548c1.94-.081 2.375.46 2.452 2.312l.518 12.4z" class="prefix__cls-2" data-name="Path 20151" transform="translate(-403.927 -580.698)"/>
        <path id="prefix__Path_20152" d="M479.95 595.709a5.843 5.843 0 0 1 2.476-.633 2 2 0 0 1 2.33 1.493 5.285 5.285 0 0 1 3.667-1.743c2.439-.1 3.643 1.232 3.753 3.878l.461 11.051-4.85.2-.408-9.787c-.03-.735-.284-1.166-1.019-1.135a1.947 1.947 0 0 0-1.331.556l.436 10.464-4.908.2z" class="prefix__cls-2" data-name="Path 20152" transform="translate(-409.938 -584.659)"/>
        <path id="prefix__Path_20153" d="M511.156 593.96c4.055-.169 5.487 2.391 5.67 6.77a24.6 24.6 0 0 1-.014 2.474l-6.5.271c.144 1.348.82 2.026 2.113 1.972a20.075 20.075 0 0 0 2.978-.595c.882-.037 1.269.772 1.34 3.183a10.508 10.508 0 0 1-5.069 1.3c-4.585.192-6.333-2.886-6.521-7.412-.182-4.467 1.771-7.787 6.003-7.963zm.1 3.764a1.956 1.956 0 0 0-.813.27 7.938 7.938 0 0 0-.272 2.661l2.284-.3c-.003-1.445-.26-2.67-1.201-2.631z" class="prefix__cls-2" data-name="Path 20153" transform="translate(-421.268 -584.269)"/>
        <path id="prefix__Path_20154" d="M539.681 586.544l6.525-.272c5.173-.216 6.862 2.864 7.1 8.654.213 5.086-1.44 9.924-7.848 10.191a16.167 16.167 0 0 1-5.023-.438zm5.573 14.312a3.125 3.125 0 0 0 1.035.1 2.8 2.8 0 0 0 1.393-.471 15.9 15.9 0 0 0 .546-5.263c-.165-3.968-.773-5.12-2.536-5.047l-.882.037z" class="prefix__cls-2" data-name="Path 20154" transform="translate(-436.797 -580.81)"/>
        <path id="prefix__Path_20155" d="M569.23 581.855c1.528-.064 2.205.644 2.27 2.2.057 1.352-.727 2.327-2.932 2.419-1.616.068-2.216-.909-2.273-2.261s.73-2.266 2.935-2.358zm-2 20.575l-.6-14.372a7.376 7.376 0 0 1 2.539-.548c1.94-.081 2.375.46 2.452 2.312l.518 12.4z" class="prefix__cls-2" data-name="Path 20155" transform="translate(-448.763 -578.827)"/>
        <path id="prefix__Path_20156" d="M588.543 606.124c-1.352.056-2.073-.3-2.309-1.7a3.843 3.843 0 0 1-3.423 1.939c-2.2.092-3.629-1.585-3.742-4.289-.157-3.762 2.125-4.829 6.43-5.362-.054-1.292-.165-1.847-1.429-1.795-1.058.044-2.215.534-3.185.575-1.264.053-1.745-.9-1.87-3.19a15.49 15.49 0 0 1 6.065-1.431c3.409-.143 5.08 1.084 5.237 4.875l.416 9.963a7.552 7.552 0 0 1-2.19.415zm-4.156-3.625a1.967 1.967 0 0 0 1.329-.614l-.1-2.44a16.308 16.308 0 0 0-2.075.352 3.424 3.424 0 0 0-.21 1.333c.035.883.44 1.395 1.057 1.37z" class="prefix__cls-2" data-name="Path 20156" transform="translate(-454.484 -582.878)"/>
        <path id="prefix__Path_20157" d="M603.837 609.211l-.152-3.645a13.873 13.873 0 0 0 4.26.47 9.646 9.646 0 0 0 2.633-.4l-.088-2.116a4.78 4.78 0 0 1-2.923 1.212c-3.175.132-4.923-2.268-5.145-7.559-.2-4.85 1.878-7.2 4.788-7.324a4.459 4.459 0 0 1 3.14 1.164c.583-.85 1.092-1.341 2.885-1.416a4.375 4.375 0 0 1 1.511.2l.56 13.432c.207 4.967-2.683 6.266-6.856 6.439a13.181 13.181 0 0 1-4.613-.457zm5.251-8.227a2.023 2.023 0 0 0 1.272-.554l-.263-6.29a2.043 2.043 0 0 0-1.525-.555 2.336 2.336 0 0 0-.7.147 9.285 9.285 0 0 0-.359 3.4c.106 2.499.4 3.901 1.575 3.852z" class="prefix__cls-2" data-name="Path 20157" transform="translate(-465.003 -582.307)"/>
        <path id="prefix__Path_20158" d="M628.8 589.5a5.836 5.836 0 0 1 2.476-.633 2 2 0 0 1 2.33 1.493 5.287 5.287 0 0 1 3.667-1.743c2.439-.1 3.643 1.232 3.753 3.878l.461 11.051-4.85.2-.408-9.787c-.03-.735-.284-1.166-1.019-1.135a1.947 1.947 0 0 0-1.331.556l.436 10.464-4.909.2z" class="prefix__cls-2" data-name="Path 20158" transform="translate(-476.869 -581.866)"/>
        <path id="prefix__Path_20159" d="M666.4 595.273c.206 4.938-1.741 7.668-6.443 7.864-3.644.152-5.767-2.732-5.972-7.641-.146-3.5.627-7.535 6.3-7.771 4.204-.175 5.909 2.581 6.115 7.548zm-6.012 4.078a1.887 1.887 0 0 0 .988-.306 14.04 14.04 0 0 0 .259-3.661c-.128-3.057-.456-3.868-1.573-3.821a2.117 2.117 0 0 0-1.019.277 12.353 12.353 0 0 0-.259 3.662c.129 3.057.516 3.898 1.605 3.849z" class="prefix__cls-2" data-name="Path 20159" transform="translate(-488.189 -581.465)"/>
        <path id="prefix__Path_20160" d="M684.034 586.758a11.877 11.877 0 0 1 3.668.407 6.076 6.076 0 0 1 .1 1c.042 1.736-.478 2.67-1.389 2.708-.617.026-1.366-.3-2.572-.246a4.11 4.11 0 0 0-1.083.163 1.074 1.074 0 0 0-.07.445c.023.529.471.687 2.195 1.086 2.524.513 3.523 1.884 3.627 4.354.137 3.291-1.984 5.382-5.481 5.528a8.563 8.563 0 0 1-4-.687 3.989 3.989 0 0 1-.2-1.2c-.02-1.177.344-2.341 1.079-2.371a14.27 14.27 0 0 0 2.96.377 3.563 3.563 0 0 0 1.286-.23 1.084 1.084 0 0 0 .067-.5c-.026-.617-.732-.617-2.223-1.056a4.455 4.455 0 0 1-3.512-4.447c-.128-3.062 1.756-5.172 5.548-5.331z" class="prefix__cls-2" data-name="Path 20160" transform="translate(-499.209 -581.029)"/>
        <path id="prefix__Path_20161" d="M700.879 576.361c1.528-.064 2.205.644 2.27 2.2.057 1.352-.727 2.327-2.932 2.419-1.616.067-2.216-.909-2.273-2.261s.73-2.266 2.935-2.358zm-2 20.575l-.6-14.371a7.362 7.362 0 0 1 2.539-.548c1.94-.081 2.375.46 2.452 2.312l.518 12.4z" class="prefix__cls-2" data-name="Path 20161" transform="translate(-507.961 -576.357)"/>
        <path id="prefix__Path_20162" d="M716.4 585.408a11.868 11.868 0 0 1 3.669.407 6.07 6.07 0 0 1 .1 1c.042 1.736-.478 2.67-1.389 2.708-.618.026-1.367-.3-2.572-.247a4.1 4.1 0 0 0-1.083.163 1.074 1.074 0 0 0-.07.445c.022.529.47.687 2.195 1.086 2.524.513 3.523 1.884 3.627 4.353.137 3.292-1.984 5.382-5.481 5.528a8.563 8.563 0 0 1-4-.687 3.987 3.987 0 0 1-.2-1.2c-.02-1.177.344-2.341 1.079-2.371a14.185 14.185 0 0 0 2.96.377 3.537 3.537 0 0 0 1.286-.23 1.081 1.081 0 0 0 .067-.5c-.026-.617-.732-.618-2.223-1.056a4.455 4.455 0 0 1-3.512-4.446c-.131-3.061 1.754-5.172 5.547-5.33z" class="prefix__cls-2" data-name="Path 20162" transform="translate(-513.763 -580.422)"/>
        <path id="prefix__Path_20163" d="M730.488 587.693c-.059-1.41.829-2.714 3.151-2.811 1.94-.081 2.654.8 2.732 2.683.07 1.675-1.031 2.811-3.235 2.9-1.822.08-2.578-1.096-2.648-2.772zm.406 9.728c-.059-1.41.829-2.713 3.151-2.81 1.939-.081 2.655.831 2.734 2.712.07 1.675-1.032 2.78-3.237 2.873-1.823.076-2.577-1.069-2.648-2.774z" class="prefix__cls-2" data-name="Path 20163" transform="translate(-522.594 -580.188)"/>
        <path id="prefix__Path_20164" d="M360.157 641.621a8.522 8.522 0 0 1 4.031.656c.132 3.145-.621 4.147-1.445 4.181a25.069 25.069 0 0 0-2.719-.239 4.128 4.128 0 0 0-1.485.386 12.054 12.054 0 0 0-.487 4.553c.16 3.822 1.355 4.95 3.148 4.875a5.444 5.444 0 0 0 2.79-.882l.934 4.053a7.73 7.73 0 0 1-4.618 1.517c-4.879.2-7.264-2.641-7.554-9.577-.28-6.699 2.648-9.324 7.405-9.523z" class="prefix__cls-2" data-name="Path 20164" transform="translate(-352.734 -605.699)"/>
        <path id="prefix__Path_20165" d="M376.442 655.233l-.66-15.813a6.906 6.906 0 0 1 2.535-.635c1.851-.078 2.372.4 2.451 2.282l.547 13.108c.03.706.4 1.014.954.991a6.3 6.3 0 0 0 1.021-.219l.165 3.261a6.722 6.722 0 0 1-3.174.839c-2.263.095-3.727-1.139-3.839-3.814z" class="prefix__cls-2" data-name="Path 20165" transform="translate(-363.098 -604.425)"/>
        <path id="prefix__Path_20166" d="M392.7 637.372c1.528-.064 2.206.644 2.271 2.2.056 1.352-.728 2.327-2.932 2.419-1.617.068-2.217-.909-2.273-2.261s.725-2.266 2.934-2.358zm-2 20.576l-.6-14.372a7.36 7.36 0 0 1 2.538-.548c1.94-.081 2.375.46 2.452 2.312l.517 12.4z" class="prefix__cls-2" data-name="Path 20166" transform="translate(-369.382 -603.791)"/>
        <path id="prefix__Path_20167" d="M408.644 646.388c4.056-.169 5.488 2.392 5.671 6.771a24.6 24.6 0 0 1-.015 2.474l-6.5.271c.145 1.348.82 2.026 2.114 1.972a20.055 20.055 0 0 0 2.978-.595c.882-.037 1.269.771 1.34 3.183a10.51 10.51 0 0 1-5.069 1.3c-4.585.192-6.333-2.886-6.521-7.412-.183-4.468 1.77-7.788 6.002-7.964zm.1 3.765a1.956 1.956 0 0 0-.813.27 7.969 7.969 0 0 0-.272 2.661l2.284-.3c-.003-1.445-.26-2.671-1.201-2.632z" class="prefix__cls-2" data-name="Path 20167" transform="translate(-375.172 -607.844)"/>
        <path id="prefix__Path_20168" d="M426.412 646.094a5.84 5.84 0 0 1 2.476-.633 2 2 0 0 1 2.33 1.493 5.284 5.284 0 0 1 3.667-1.743c2.439-.1 3.643 1.232 3.753 3.878l.461 11.051-4.85.2-.408-9.787c-.031-.735-.285-1.166-1.019-1.135a1.95 1.95 0 0 0-1.331.556l.437 10.464-4.908.2z" class="prefix__cls-2" data-name="Path 20168" transform="translate(-385.864 -607.315)"/>
        <path id="prefix__Path_20169" d="M450.394 642.716l1.793-.075-.054-1.293c-.076-1.822 1.187-2.611 4.489-2.484l.15 3.586 2.616-.109.155 3.7-2.616.11.261 6.261c.031.763.426 1.041 1.043 1.015a3.424 3.424 0 0 0 1.4-.323l.513 3.129a7.649 7.649 0 0 1-3.784 1.041c-2.5.1-3.9-1.132-4.022-3.954l-.291-6.966-1.5.062z" class="prefix__cls-2" data-name="Path 20169" transform="translate(-396.648 -604.458)"/>
        <path id="prefix__Path_20170" d="M486.838 636.335a8.545 8.545 0 0 1 4.032.656c.131 3.145-.622 4.147-1.445 4.182a25.068 25.068 0 0 0-2.719-.239 4.137 4.137 0 0 0-1.485.386 12.045 12.045 0 0 0-.488 4.554c.16 3.822 1.355 4.949 3.148 4.874a5.439 5.439 0 0 0 2.79-.882l.934 4.054a7.73 7.73 0 0 1-4.618 1.517c-4.878.2-7.264-2.641-7.554-9.577-.28-6.702 2.644-9.327 7.405-9.525z" class="prefix__cls-2" data-name="Path 20170" transform="translate(-409.697 -603.322)"/>
        <path id="prefix__Path_20171" d="M514.913 649.746c.206 4.938-1.741 7.668-6.443 7.865-3.645.152-5.767-2.732-5.972-7.641-.146-3.5.628-7.535 6.3-7.771 4.202-.176 5.908 2.58 6.115 7.547zm-6.012 4.078a1.892 1.892 0 0 0 .988-.305 14.049 14.049 0 0 0 .259-3.662c-.128-3.057-.456-3.867-1.573-3.821a2.122 2.122 0 0 0-1.019.277 12.358 12.358 0 0 0-.259 3.662c.128 3.056.516 3.895 1.603 3.849z" class="prefix__cls-2" data-name="Path 20171" transform="translate(-420.07 -605.96)"/>
        <path id="prefix__Path_20172" d="M527.458 641.641a6.64 6.64 0 0 1 2.418-.631 1.951 1.951 0 0 1 2.324 1.49 5.741 5.741 0 0 1 3.784-1.748 2.7 2.7 0 0 1 2.922 1.586 6.53 6.53 0 0 1 3.955-1.873c2.851-.119 3.449 1.506 3.588 4.826l.422 10.111-4.791.2-.4-9.641c-.037-.881-.17-1.259-.934-1.227a3.05 3.05 0 0 0-1.3.526l.436 10.434-4.82.2-.4-9.64c-.037-.881-.141-1.26-.876-1.229a3.474 3.474 0 0 0-1.332.527l.435 10.434-4.82.2z" class="prefix__cls-2" data-name="Path 20172" transform="translate(-431.301 -605.182)"/>
        <path id="prefix__Path_20173" d="M565.432 640.056a6.637 6.637 0 0 1 2.418-.631 1.952 1.952 0 0 1 2.329 1.493 5.738 5.738 0 0 1 3.784-1.748 2.7 2.7 0 0 1 2.922 1.586 6.529 6.529 0 0 1 3.956-1.873c2.851-.119 3.448 1.506 3.587 4.827l.422 10.11-4.791.2-.4-9.64c-.037-.882-.171-1.259-.934-1.227a3.036 3.036 0 0 0-1.3.526l.435 10.434-4.82.2-.4-9.641c-.037-.881-.141-1.26-.876-1.229a3.48 3.48 0 0 0-1.332.527l.435 10.434-4.82.2z" class="prefix__cls-2" data-name="Path 20173" transform="translate(-448.376 -604.47)"/>
        <path id="prefix__Path_20174" d="M615.858 652.508a5.829 5.829 0 0 1-2.619.757 1.763 1.763 0 0 1-2.125-1.53 5.28 5.28 0 0 1-3.635 1.77c-2.381.1-3.737-1.345-3.856-4.2l-.445-10.669a15.764 15.764 0 0 1 2.255-.3c1.852-.078 2.628.184 2.71 2.154l.312 7.466c.039.941.317 1.253.964 1.226a2.375 2.375 0 0 0 1.444-.679l-.428-10.258 4.82-.2z" class="prefix__cls-2" data-name="Path 20174" transform="translate(-465.349 -604.097)"/>
        <path id="prefix__Path_20175" d="M629.041 637.639a5.831 5.831 0 0 1 2.476-.633 2 2 0 0 1 2.33 1.492 5.286 5.286 0 0 1 3.666-1.743c2.44-.1 3.643 1.232 3.754 3.878l.461 11.051-4.85.2-.408-9.787c-.031-.735-.284-1.166-1.019-1.135a1.949 1.949 0 0 0-1.331.556l.437 10.464-4.909.2z" class="prefix__cls-2" data-name="Path 20175" transform="translate(-476.979 -603.513)"/>
        <path id="prefix__Path_20176" d="M657.063 626.341c1.528-.064 2.205.644 2.27 2.2.057 1.352-.727 2.327-2.932 2.419-1.616.068-2.216-.909-2.273-2.261s.73-2.266 2.935-2.358zm-2 20.575l-.6-14.372A7.379 7.379 0 0 1 657 632c1.94-.081 2.375.46 2.452 2.312l.517 12.4z" class="prefix__cls-2" data-name="Path 20176" transform="translate(-488.259 -598.831)"/>
        <path id="prefix__Path_20177" d="M672.983 635.359a6.368 6.368 0 0 1 3.655.819c.094 2.234-.352 3.547-1.293 3.587-.558.024-1.194-.392-2.046-.357a2.539 2.539 0 0 0-.788.18 9.482 9.482 0 0 0-.445 3.463c.111 2.645 1.039 3.725 2.42 3.668a5.149 5.149 0 0 0 2.124-.619l.578 3.274a6.472 6.472 0 0 1-3.858 1.368c-3.586.15-6.088-1.954-6.312-7.333-.218-5.289 2.055-7.887 5.965-8.05z" class="prefix__cls-2" data-name="Path 20177" transform="translate(-494.049 -602.885)"/>
        <path id="prefix__Path_20178" d="M695.6 649.808c-1.353.057-2.074-.3-2.309-1.7a3.842 3.842 0 0 1-3.423 1.939c-2.2.092-3.629-1.586-3.742-4.289-.157-3.762 2.125-4.829 6.431-5.363-.054-1.293-.166-1.847-1.429-1.8-1.058.045-2.216.534-3.185.575-1.264.053-1.745-.9-1.871-3.19a15.489 15.489 0 0 1 6.065-1.431c3.409-.143 5.08 1.084 5.238 4.875l.416 9.963a7.519 7.519 0 0 1-2.191.421zm-4.156-3.625a1.966 1.966 0 0 0 1.328-.614l-.1-2.44a16.206 16.206 0 0 0-2.076.352 3.423 3.423 0 0 0-.209 1.333c.039.886.443 1.394 1.06 1.369z" class="prefix__cls-2" data-name="Path 20178" transform="translate(-502.625 -602.521)"/>
        <path id="prefix__Path_20179" d="M708.3 631.954l1.793-.075-.054-1.293c-.076-1.822 1.187-2.611 4.489-2.484l.15 3.587 2.616-.109.155 3.7-2.616.109.261 6.261c.032.763.427 1.041 1.043 1.015a3.423 3.423 0 0 0 1.4-.323l.513 3.129a7.649 7.649 0 0 1-3.784 1.041c-2.5.1-3.9-1.132-4.022-3.954l-.291-6.966-1.5.062z" class="prefix__cls-2" data-name="Path 20179" transform="translate(-512.618 -599.619)"/>
        <path id="prefix__Path_20180" d="M729.59 623.314c1.528-.064 2.205.644 2.27 2.2.057 1.352-.727 2.327-2.932 2.419-1.616.067-2.216-.909-2.273-2.261s.73-2.266 2.935-2.358zm-2 20.575l-.6-14.371a7.363 7.363 0 0 1 2.539-.548c1.94-.081 2.375.46 2.452 2.312l.518 12.4z" class="prefix__cls-2" data-name="Path 20180" transform="translate(-520.871 -597.47)"/>
        <path id="prefix__Path_20181" d="M751.937 639.855c.206 4.938-1.741 7.668-6.443 7.865-3.644.152-5.767-2.732-5.972-7.641-.146-3.5.628-7.535 6.3-7.771 4.203-.176 5.908 2.58 6.115 7.547zm-6.012 4.078a1.879 1.879 0 0 0 .988-.305 14.051 14.051 0 0 0 .259-3.661c-.128-3.057-.456-3.868-1.572-3.821a2.109 2.109 0 0 0-1.019.277 12.325 12.325 0 0 0-.26 3.662c.128 3.056.516 3.894 1.604 3.848z" class="prefix__cls-2" data-name="Path 20181" transform="translate(-526.651 -601.512)"/>
        <path id="prefix__Path_20182" d="M764.482 631.987a5.84 5.84 0 0 1 2.476-.633 2 2 0 0 1 2.33 1.493 5.284 5.284 0 0 1 3.666-1.744c2.44-.1 3.643 1.232 3.754 3.878l.461 11.051-4.85.2-.408-9.787c-.031-.735-.285-1.166-1.019-1.135a1.947 1.947 0 0 0-1.331.556l.439 10.465-4.909.2z" class="prefix__cls-2" data-name="Path 20182" transform="translate(-537.882 -600.972)"/>
    </g>
    <path id="prefix__TagShadow" d="M585.874 451.158a49.949 49.949 0 0 0-3.069-14.976 50.012 50.012 0 0 1-90.582 37.335c-.144-.214-.285-.43-.426-.647-1.586-2.3-7.487-9.991-15.441-9.6l-44.4 2.179h-.017l-44.4 2.179c-7.953.39-13.074 8.617-14.426 11.066-.119.229-.238.458-.361.685a50.021 50.021 0 0 1-90.872-6.328A50.014 50.014 0 0 0 375 487.446c.123-.227.242-.456.361-.685 1.352-2.449 6.473-10.676 14.427-11.066l44.4-2.179h.016l44.4-2.179c7.954-.391 13.855 7.3 15.441 9.6.141.216.282.433.427.646a50.012 50.012 0 0 0 91.4-30.425z" transform="translate(-272.935 -264.18)" style="opacity:.496;mix-blend-mode:multiply;isolation:isolate;fill:#003087"/>
    <path id="prefix__RingOverlap" d="M479.146 186.683a34.707 34.707 0 0 0 34.693 34.693V203a16.313 16.313 0 0 1-16.319-16.319z" class="prefix__cls-1" transform="translate(-361.64 -151.99)"/>
</svg>
