<svg xmlns="http://www.w3.org/2000/svg" id="prefix__MasterLogo-dark" width="313" height="304.179" viewBox="0 0 313 304.179">
    <defs>
        <style>
            .prefix__cls-1{fill:#d6d8d8}.prefix__cls-5{fill:#003087}.prefix__cls-6{fill:#31add3}.prefix__cls-7{fill:#0f579f}
        </style>
    </defs>
    <path id="prefix__Path_20069" d="M513.839 1173.643a34.693 34.693 0 1 0 34.693 34.693 34.733 34.733 0 0 0-34.693-34.693zm0 51.012a16.319 16.319 0 1 1 16.319-16.319 16.337 16.337 0 0 1-16.319 16.319z" class="prefix__cls-1" data-name="Path 20069" transform="translate(-361.64 -1173.643)"/>
    <path id="prefix__Path_20070" d="M566.474 1343.084a50.256 50.256 0 0 0-7.268-8.038c-8.641-9.928-11.138-14.636-11.451-18.683-.084-4.059 1.939-8.988 9.567-19.715a50.215 50.215 0 0 0 6.446-8.711 9.686 9.686 0 0 0 1.464-2.688 50.013 50.013 0 0 0-88.663-46.284c-.123.227-.242.456-.361.685-1.352 2.449-6.473 10.675-14.427 11.066l-7.906.388c-4.846.238-6.553-4.062-6.985-5.49l-.084-.3c-.026-.1-.039-.161-.039-.161h-.007a30.42 30.42 0 0 0-59.089 2.9h-.025s-.686 6.328-6.491 6.614l-8.194.4c-7.953.39-13.855-7.3-15.44-9.6-.141-.216-.282-.433-.426-.646a50.013 50.013 0 0 0-83.7 54.742 9.689 9.689 0 0 0 1.72 2.533 50.248 50.248 0 0 0 7.268 8.038c8.641 9.928 11.138 14.636 11.451 18.683.085 4.059-1.939 8.989-9.566 19.715a50.283 50.283 0 0 0-6.446 8.711 9.682 9.682 0 0 0-1.463 2.689 50.013 50.013 0 0 0 88.662 46.283c.123-.227.242-.456.361-.685 1.352-2.449 6.473-10.676 14.427-11.066l44.4-2.179h.017l44.4-2.179c7.953-.391 13.855 7.3 15.44 9.6.141.216.282.433.427.647a50.014 50.014 0 0 0 83.7-54.743 9.686 9.686 0 0 0-1.719-2.526zm-148.736-82.734a10.127 10.127 0 1 1 9.618-10.612 10.127 10.127 0 0 1-9.618 10.612z" data-name="Path 20070" transform="translate(-265.629 -1191.222)" style="fill:#fff"/>
    <g id="prefix__Group_6672" data-name="Group 6672" transform="translate(120.816 53.305)" style="mix-blend-mode:multiply;isolation:isolate">
        <path id="prefix__Path_20071" d="M487.281 1270.5a30.03 30.03 0 0 0-.894 3.536h-.025a9.461 9.461 0 0 1-1.2 3.43 34.642 34.642 0 0 0 25.787 8.664 34.759 34.759 0 0 1-23.668-15.63z" data-name="Path 20071" transform="translate(-485.16 -1270.502)" style="fill:#0d7fbc"/>
    </g>
    <g id="prefix__Group_6673" data-name="Group 6673" transform="translate(48.122 83.246)">
        <path id="prefix__Path_20072" d="M360.059 1338.168c3.658-.178 5.288 1.5 5.469 5.23.157 3.234-1.7 5.579-6.974 5.835-3.867.188-5.319-2.134-5.476-5.368s1.71-5.441 6.981-5.697zm-4.44 49.257l-1.67-34.377a17.713 17.713 0 0 1 6.064-1.35c4.639-.226 5.689 1.066 5.9 5.49l1.441 29.666z" class="prefix__cls-5" data-name="Path 20072" transform="translate(-353.069 -1330.864)"/>
        <path id="prefix__Path_20073" d="M401.053 1343.034c5.343-.26 8.858 1.05 9.657 1.5.365 7.521-1.422 9.937-3.388 10.033s-2.783-.714-6.509-.533a10.013 10.013 0 0 0-3.549.947c-1.064 2.731-1.289 6.827-1.091 10.908.444 9.135 3.322 11.812 7.612 11.6a13.024 13.024 0 0 0 6.66-2.154l2.3 9.682c-2.851 2.255-6.383 3.482-11.022 3.708-11.67.567-17.424-6.2-18.229-22.792-.779-16.018 6.171-22.345 17.559-22.899z" class="prefix__cls-5" data-name="Path 20073" transform="translate(-366.723 -1333.043)"/>
        <path id="prefix__Path_20074" d="M468.445 1374.679c.574 11.814-4.038 18.377-15.286 18.923-8.717.424-13.842-6.447-14.412-18.187-.406-8.362 1.379-18.03 14.947-18.689 10.052-.488 14.174 6.074 14.751 17.953zm-7.128-5.722a.684.684 0 0 0-.6-.706l-1.657-.088a.663.663 0 0 1-.591-.569l-1.314-7.042a.621.621 0 0 0-1.21-.094l-1.267 3.784a.655.655 0 0 1-.509.457l-2.737.414a.583.583 0 0 1-.5-.173l-3.339-3.329c-.43-.429-1.1-.042-1.05.6l1.891 16.188h-.006a25.614 25.614 0 0 0 .557 2.883c1.462 5.238 5.482 4.276 5.482 4.276 5.613-.4 5.028-10.172 5.028-10.172a.788.788 0 0 1 .23-.815c1.484-1.302 1.614-4.271 1.592-5.615zm-1.913 1.463a1.136 1.136 0 0 1-1.414-.769.459.459 0 0 1 .36-.631l1.676-.224a.458.458 0 0 1 .5.561 1.374 1.374 0 0 1-1.126 1.063z" class="prefix__cls-5" data-name="Path 20074" transform="translate(-391.573 -1339.203)"/>
        <path id="prefix__Path_20075" d="M498.281 1355.626a13.948 13.948 0 0 1 5.914-1.555c2.882-.14 4.54.623 5.6 3.532a12.632 12.632 0 0 1 8.742-4.228c5.835-.283 8.737 2.886 9.045 9.21l1.283 26.432-11.6.563-1.137-23.41c-.085-1.757-.7-2.783-2.454-2.7a4.649 4.649 0 0 0-3.176 1.353l1.216 25.024-11.739.57z" class="prefix__cls-5" data-name="Path 20075" transform="translate(-418.366 -1337.7)"/>
        <path id="prefix__Path_20076" d="M571.968 1351.045a28.456 28.456 0 0 1 8.78.91 14.238 14.238 0 0 1 .259 2.386c.13 4.147-1.1 6.393-3.279 6.5-1.477.072-3.274-.685-6.157-.544a9.7 9.7 0 0 0-2.588.407 2.559 2.559 0 0 0-.161 1.063c.062 1.265 1.138 1.637 5.268 2.561 6.047 1.187 8.461 4.454 8.748 10.355.382 7.876-4.657 12.911-13.022 13.318a20.535 20.535 0 0 1-9.589-1.577 9.611 9.611 0 0 1-.492-2.868c-.065-2.813.786-5.6 2.544-5.688 1.4-.068 2.94 1.056 7.087.855a8.442 8.442 0 0 0 3.073-.574 2.609 2.609 0 0 0 .154-1.206c-.072-1.477-1.763-1.463-5.336-2.489-5.644-1.625-8.221-5.31-8.477-10.581-.357-7.311 4.12-12.388 13.188-12.828z" class="prefix__cls-5" data-name="Path 20076" transform="translate(-445.561 -1336.644)"/>
        <path id="prefix__Path_20077" d="M636.666 1383.125a13.955 13.955 0 0 1-6.252 1.853c-2.953.144-4.263-.711-5.107-3.631a12.61 12.61 0 0 1-8.669 4.3c-5.7.276-8.961-3.162-9.291-9.979l-1.239-25.516a37.43 37.43 0 0 1 5.388-.756c4.427-.215 6.29.4 6.519 5.111l.867 17.852c.109 2.249.779 2.991 2.325 2.916a5.659 5.659 0 0 0 3.442-1.647l-1.191-24.532 11.531-.56z" class="prefix__cls-5" data-name="Path 20077" transform="translate(-466.851 -1335.532)"/>
        <path id="prefix__Path_20078" d="M668.4 1364.315l-1.837-37.816a16.435 16.435 0 0 1 6.054-1.568c4.427-.215 5.682.923 5.9 5.422l1.523 31.354c.081 1.683.964 2.42 2.3 2.355a14.981 14.981 0 0 0 2.437-.543l.451 7.8a16.1 16.1 0 0 1-7.582 2.061c-5.407.261-8.932-2.672-9.246-9.065z" class="prefix__cls-5" data-name="Path 20078" transform="translate(-494.038 -1324.906)"/>
        <path id="prefix__Path_20079" d="M696.882 1340.33l4.287-.208-.15-3.091c-.212-4.361 2.8-6.269 10.7-6.016l.417 8.574 6.256-.3.43 8.855-6.256.3.728 14.973c.089 1.832 1.036 2.491 2.513 2.42a8.262 8.262 0 0 0 3.343-.8l1.278 7.476a18.3 18.3 0 0 1-9.035 2.556c-5.976.291-9.36-2.649-9.688-9.4l-.809-16.661-3.583.174z" class="prefix__cls-5" data-name="Path 20079" transform="translate(-507.669 -1327.643)"/>
    </g>
    <g id="prefix__Group_6674" data-name="Group 6674" transform="translate(69.009 140.976)">
        <path id="prefix__Path_20080" d="M402.087 1441.76a12.83 12.83 0 0 1 6.065.945c.229 4.723-.893 6.24-2.128 6.3s-1.748-.448-4.088-.335a6.275 6.275 0 0 0-2.228.595 18.137 18.137 0 0 0-.685 6.85c.279 5.737 2.086 7.418 4.78 7.287a8.177 8.177 0 0 0 4.182-1.353l1.445 6.08a11.592 11.592 0 0 1-6.922 2.328c-7.329.356-10.942-3.893-11.448-14.313-.489-10.064 3.876-14.037 11.027-14.384z" class="prefix__cls-6" data-name="Path 20080" transform="translate(-391.022 -1435.172)"/>
        <path id="prefix__Path_20081" d="M439.885 1473.277c-2.031.1-3.119-.425-3.486-2.529a5.779 5.779 0 0 1-5.123 2.948c-3.31.161-5.468-2.346-5.665-6.409-.275-5.65 3.141-7.275 9.606-8.119-.095-1.944-.268-2.775-2.166-2.683-1.589.077-3.323.824-4.779.9-1.9.092-2.632-1.332-2.844-4.773a23.325 23.325 0 0 1 9.1-2.211c5.12-.249 7.643 1.575 7.919 7.268l.727 14.968a11.342 11.342 0 0 1-3.289.64zm-6.281-5.4a2.954 2.954 0 0 0 1.99-.939l-.178-3.663a24.261 24.261 0 0 0-3.115.547 5.165 5.165 0 0 0-.3 2.007c.064 1.322.676 2.091 1.599 2.046z" class="prefix__cls-6" data-name="Path 20081" transform="translate(-406.493 -1439.055)"/>
        <path id="prefix__Path_20082" d="M461.379 1449.782a8.385 8.385 0 0 1 3.536-.968c2.119-.1 2.7.975 3.205 3.119a6.263 6.263 0 0 1 5.492-3.542 19.677 19.677 0 0 1 .521 4.356c0 1.812-.176 2.751-1.456 2.812a5.711 5.711 0 0 0-3.568 1.237l.7 14.478-7.372.358z" class="prefix__cls-6" data-name="Path 20082" transform="translate(-422.659 -1438.163)"/>
        <path id="prefix__Path_20083" d="M493.3 1441.245a5.761 5.761 0 0 1 4 1.222l-.4-8.213a11.648 11.648 0 0 1 3.9-.809c2.648-.129 3.335.328 3.484 3.416l1.291 26.577a13.528 13.528 0 0 1-3.514.523c-1.9.049-3.027-.386-3.563-2.305a6.462 6.462 0 0 1-5.088 2.726c-4.416.215-6.934-4.264-7.282-11.417-.34-6.888 2.135-11.475 7.172-11.72zm2.78 17.167a3.257 3.257 0 0 0 1.953-.8l-.491-10.108a3.8 3.8 0 0 0-3.387-.5 17.813 17.813 0 0 0-.434 5.638c.215 4.5 1.031 5.834 2.356 5.77z" class="prefix__cls-6" data-name="Path 20083" transform="translate(-433.772 -1431.433)"/>
        <path id="prefix__Path_20084" d="M528.913 1431.292c2.3-.112 3.321.945 3.435 3.285.1 2.031-1.069 3.5-4.38 3.664-2.428.118-3.34-1.34-3.439-3.371s1.071-3.417 4.384-3.578zm-2.789 30.933l-1.049-21.588a11.116 11.116 0 0 1 3.809-.848c2.913-.141 3.572.669 3.707 3.448l.9 18.63z" class="prefix__cls-6" data-name="Path 20084" transform="translate(-451.053 -1430.471)"/>
        <path id="prefix__Path_20085" d="M562.711 1455.886c.36 7.415-2.538 11.541-9.6 11.884-5.474.266-8.692-4.049-9.05-11.422-.255-5.251.866-11.323 9.387-11.736 6.309-.307 8.9 3.815 9.263 11.274zm-8.993 6.19a2.816 2.816 0 0 0 1.482-.472 21.046 21.046 0 0 0 .352-5.5c-.223-4.59-.724-5.8-2.4-5.724a3.167 3.167 0 0 0-1.527.431 18.5 18.5 0 0 0-.352 5.5c.22 4.589.813 5.845 2.444 5.765z" class="prefix__cls-6" data-name="Path 20085" transform="translate(-459.823 -1436.457)"/>
        <path id="prefix__Path_20086" d="M581.7 1454.555l-1.154-23.749a10.329 10.329 0 0 1 3.8-.985c2.782-.135 3.568.58 3.7 3.405l.956 19.691c.051 1.057.605 1.52 1.443 1.479a9.43 9.43 0 0 0 1.533-.341l.283 4.9a10.107 10.107 0 0 1-4.761 1.294c-3.389.162-5.6-1.68-5.8-5.694z" class="prefix__cls-6" data-name="Path 20086" transform="translate(-476.246 -1429.806)"/>
        <path id="prefix__Path_20087" d="M620.573 1453.075c.36 7.415-2.536 11.541-9.6 11.884-5.474.266-8.693-4.049-9.05-11.421-.255-5.252.866-11.323 9.387-11.737 6.312-.307 8.901 3.815 9.263 11.274zm-8.991 6.191a2.827 2.827 0 0 0 1.483-.472 21.186 21.186 0 0 0 .351-5.5c-.223-4.59-.724-5.806-2.4-5.724a3.17 3.17 0 0 0-1.527.431 18.5 18.5 0 0 0-.352 5.5c.221 4.59.813 5.844 2.446 5.765z" class="prefix__cls-6" data-name="Path 20087" transform="translate(-485.843 -1435.192)"/>
        <path id="prefix__Path_20088" d="M640.89 1469.077l-.266-5.475a20.9 20.9 0 0 0 6.4.662 14.528 14.528 0 0 0 3.95-.635l-.155-3.178a7.191 7.191 0 0 1-4.38 1.849c-4.766.232-7.419-3.354-7.8-11.3-.354-7.282 2.748-10.841 7.118-11.053a6.7 6.7 0 0 1 4.731 1.716c.866-1.278 1.626-2.025 4.32-2.156a6.506 6.506 0 0 1 2.269.29l.98 20.172c.362 7.462-3.966 9.441-10.235 9.746a19.844 19.844 0 0 1-6.932-.638zm7.8-12.417a3.033 3.033 0 0 0 1.906-.845l-.459-9.446a3.06 3.06 0 0 0-2.295-.818 3.587 3.587 0 0 0-1.052.227 13.949 13.949 0 0 0-.5 5.116c.181 3.752.638 5.852 2.403 5.766z" class="prefix__cls-6" data-name="Path 20088" transform="translate(-502.354 -1434.164)"/>
        <path id="prefix__Path_20089" d="M677.537 1467.814l-.247-5.079a18.015 18.015 0 0 0 4.088.335 14.559 14.559 0 0 0 3.293-.517l.275-1.649-3.621.176-5.744-21.713a24.5 24.5 0 0 1 4.214-.691c2.649-.129 3.425.367 3.882 3.4l2.178 13.877.967-17.438 7.152-.347-3.407 22.778c-.59 4.233-3.152 7.056-8.626 7.322a12.585 12.585 0 0 1-4.404-.454z" class="prefix__cls-6" data-name="Path 20089" transform="translate(-518.978 -1433.564)"/>
    </g>
    <g id="prefix__Group_6675" data-name="Group 6675" transform="translate(47.937 249.145)">
        <path id="prefix__Path_20090" d="M402.052 1641.721a8.546 8.546 0 0 1 4.032.656c.131 3.145-.622 4.147-1.445 4.182a25 25 0 0 0-2.719-.239 4.131 4.131 0 0 0-1.485.386 12.046 12.046 0 0 0-.488 4.554c.16 3.822 1.355 4.949 3.147 4.874a5.439 5.439 0 0 0 2.79-.882l.935 4.054a7.729 7.729 0 0 1-4.618 1.517c-4.878.2-7.264-2.641-7.554-9.577-.28-6.701 2.644-9.326 7.405-9.525z" class="prefix__cls-7" data-name="Path 20090" transform="translate(-371.572 -1633.261)"/>
        <path id="prefix__Path_20091" d="M427.094 1662.861c-1.352.056-2.073-.3-2.309-1.7a3.841 3.841 0 0 1-3.423 1.939c-2.2.092-3.629-1.585-3.742-4.289-.157-3.762 2.125-4.829 6.431-5.363-.054-1.292-.166-1.848-1.429-1.795-1.058.044-2.216.534-3.185.574-1.264.053-1.745-.9-1.87-3.19a15.483 15.483 0 0 1 6.064-1.431c3.41-.142 5.08 1.084 5.239 4.875l.416 9.963a7.552 7.552 0 0 1-2.192.417zm-4.155-3.625a1.969 1.969 0 0 0 1.329-.614l-.1-2.44a16.327 16.327 0 0 0-2.076.352 3.426 3.426 0 0 0-.209 1.333c.034.883.438 1.395 1.056 1.369z" class="prefix__cls-7" data-name="Path 20091" transform="translate(-381.887 -1635.907)"/>
        <path id="prefix__Path_20092" d="M441.5 1647.314a5.842 5.842 0 0 1 2.476-.633 2 2 0 0 1 2.33 1.493 5.283 5.283 0 0 1 3.667-1.743c2.439-.1 3.643 1.232 3.753 3.878l.461 11.051-4.85.2-.408-9.787c-.031-.735-.285-1.166-1.019-1.135a1.951 1.951 0 0 0-1.331.556l.437 10.464-4.908.2z" class="prefix__cls-7" data-name="Path 20092" transform="translate(-392.647 -1635.381)"/>
        <path id="prefix__Path_20093" d="M469.519 1636.015c1.528-.063 2.205.644 2.27 2.2.057 1.352-.727 2.327-2.932 2.419-1.616.068-2.216-.909-2.273-2.261s.73-2.266 2.935-2.358zm-2 20.576l-.6-14.372a7.363 7.363 0 0 1 2.539-.548c1.94-.081 2.375.459 2.452 2.312l.518 12.4z" class="prefix__cls-7" data-name="Path 20093" transform="translate(-403.927 -1630.698)"/>
        <path id="prefix__Path_20094" d="M479.95 1645.709a5.843 5.843 0 0 1 2.476-.634 2 2 0 0 1 2.33 1.493 5.285 5.285 0 0 1 3.667-1.744c2.439-.1 3.643 1.232 3.753 3.878l.461 11.051-4.85.2-.408-9.787c-.03-.735-.284-1.166-1.019-1.135a1.948 1.948 0 0 0-1.331.556l.436 10.464-4.908.2z" class="prefix__cls-7" data-name="Path 20094" transform="translate(-409.938 -1634.659)"/>
        <path id="prefix__Path_20095" d="M511.156 1643.959c4.055-.169 5.487 2.391 5.67 6.77a24.6 24.6 0 0 1-.014 2.474l-6.5.271c.144 1.348.82 2.026 2.113 1.972a20.077 20.077 0 0 0 2.978-.595c.882-.037 1.269.772 1.34 3.182a10.5 10.5 0 0 1-5.069 1.3c-4.585.192-6.333-2.886-6.521-7.412-.182-4.465 1.771-7.785 6.003-7.962zm.1 3.764a1.96 1.96 0 0 0-.813.27 7.939 7.939 0 0 0-.272 2.661l2.284-.3c-.003-1.444-.26-2.669-1.201-2.63z" class="prefix__cls-7" data-name="Path 20095" transform="translate(-421.268 -1634.269)"/>
        <path id="prefix__Path_20096" d="M539.681 1636.544l6.525-.272c5.173-.216 6.862 2.865 7.1 8.653.213 5.086-1.44 9.924-7.848 10.191a16.167 16.167 0 0 1-5.023-.438zm5.573 14.312a3.125 3.125 0 0 0 1.035.1 2.8 2.8 0 0 0 1.393-.471 15.9 15.9 0 0 0 .546-5.263c-.165-3.968-.773-5.12-2.536-5.047l-.882.037z" class="prefix__cls-7" data-name="Path 20096" transform="translate(-436.797 -1630.81)"/>
        <path id="prefix__Path_20097" d="M569.23 1631.855c1.528-.064 2.205.644 2.27 2.2.057 1.352-.727 2.327-2.932 2.419-1.616.068-2.216-.909-2.273-2.261s.73-2.266 2.935-2.358zm-2 20.575l-.6-14.372a7.38 7.38 0 0 1 2.539-.548c1.94-.081 2.375.46 2.452 2.312l.518 12.4z" class="prefix__cls-7" data-name="Path 20097" transform="translate(-448.763 -1628.827)"/>
        <path id="prefix__Path_20098" d="M588.543 1656.124c-1.352.056-2.073-.3-2.309-1.7a3.843 3.843 0 0 1-3.423 1.939c-2.2.092-3.629-1.585-3.742-4.289-.157-3.762 2.125-4.829 6.43-5.363-.054-1.292-.165-1.848-1.429-1.795-1.058.044-2.215.534-3.185.574-1.264.053-1.745-.9-1.87-3.19a15.49 15.49 0 0 1 6.065-1.431c3.409-.143 5.08 1.084 5.237 4.875l.416 9.963a7.556 7.556 0 0 1-2.19.417zm-4.156-3.625a1.966 1.966 0 0 0 1.329-.614l-.1-2.44a16.318 16.318 0 0 0-2.075.352 3.424 3.424 0 0 0-.21 1.333c.035.883.44 1.395 1.057 1.37z" class="prefix__cls-7" data-name="Path 20098" transform="translate(-454.484 -1632.878)"/>
        <path id="prefix__Path_20099" d="M603.837 1659.211l-.152-3.645a13.87 13.87 0 0 0 4.26.47 9.67 9.67 0 0 0 2.633-.4l-.088-2.117a4.78 4.78 0 0 1-2.923 1.212c-3.175.132-4.923-2.269-5.145-7.559-.2-4.85 1.878-7.2 4.788-7.324a4.458 4.458 0 0 1 3.14 1.164c.583-.85 1.092-1.341 2.885-1.416a4.37 4.37 0 0 1 1.511.2l.56 13.432c.207 4.967-2.683 6.266-6.857 6.439a13.169 13.169 0 0 1-4.612-.456zm5.251-8.227a2.022 2.022 0 0 0 1.272-.554l-.263-6.29a2.043 2.043 0 0 0-1.525-.555 2.338 2.338 0 0 0-.7.147 9.283 9.283 0 0 0-.359 3.4c.106 2.499.4 3.901 1.575 3.852z" class="prefix__cls-7" data-name="Path 20099" transform="translate(-465.003 -1632.307)"/>
        <path id="prefix__Path_20100" d="M628.8 1639.5a5.843 5.843 0 0 1 2.476-.633 2 2 0 0 1 2.33 1.492 5.288 5.288 0 0 1 3.667-1.743c2.439-.1 3.643 1.232 3.753 3.878l.461 11.051-4.85.2-.408-9.787c-.03-.735-.284-1.166-1.019-1.135a1.946 1.946 0 0 0-1.331.556l.436 10.463-4.909.2z" class="prefix__cls-7" data-name="Path 20100" transform="translate(-476.869 -1631.866)"/>
        <path id="prefix__Path_20101" d="M666.4 1645.273c.206 4.938-1.741 7.668-6.443 7.864-3.644.152-5.767-2.733-5.972-7.641-.146-3.5.627-7.535 6.3-7.771 4.204-.175 5.909 2.581 6.115 7.548zm-6.012 4.078a1.887 1.887 0 0 0 .988-.306 14.041 14.041 0 0 0 .259-3.661c-.128-3.057-.456-3.868-1.573-3.821a2.119 2.119 0 0 0-1.019.277 12.353 12.353 0 0 0-.259 3.662c.129 3.057.516 3.898 1.605 3.85z" class="prefix__cls-7" data-name="Path 20101" transform="translate(-488.189 -1631.465)"/>
        <path id="prefix__Path_20102" d="M684.034 1636.758a11.875 11.875 0 0 1 3.668.407 6.076 6.076 0 0 1 .1 1c.042 1.736-.478 2.67-1.389 2.708-.617.026-1.366-.3-2.572-.246a4.1 4.1 0 0 0-1.083.163 1.075 1.075 0 0 0-.07.445c.023.529.471.687 2.195 1.086 2.524.513 3.523 1.884 3.627 4.354.137 3.291-1.984 5.382-5.481 5.528a8.568 8.568 0 0 1-4-.687 3.988 3.988 0 0 1-.2-1.2c-.02-1.177.344-2.341 1.079-2.371a14.275 14.275 0 0 0 2.96.377 3.545 3.545 0 0 0 1.286-.23 1.083 1.083 0 0 0 .067-.5c-.026-.617-.732-.617-2.223-1.055a4.456 4.456 0 0 1-3.512-4.447c-.129-3.063 1.756-5.173 5.548-5.332z" class="prefix__cls-7" data-name="Path 20102" transform="translate(-499.209 -1631.029)"/>
        <path id="prefix__Path_20103" d="M700.879 1626.361c1.528-.064 2.205.644 2.27 2.2.057 1.352-.727 2.327-2.932 2.419-1.616.067-2.216-.909-2.273-2.261s.73-2.266 2.935-2.358zm-2 20.575l-.6-14.371a7.36 7.36 0 0 1 2.539-.548c1.94-.081 2.375.46 2.452 2.312l.518 12.4z" class="prefix__cls-7" data-name="Path 20103" transform="translate(-507.961 -1626.357)"/>
        <path id="prefix__Path_20104" d="M716.4 1635.408a11.887 11.887 0 0 1 3.669.407 6.07 6.07 0 0 1 .1 1c.042 1.736-.478 2.67-1.389 2.708-.618.026-1.367-.3-2.572-.247a4.1 4.1 0 0 0-1.083.164 1.073 1.073 0 0 0-.07.445c.022.529.47.687 2.195 1.086 2.524.513 3.523 1.884 3.627 4.353.137 3.292-1.984 5.382-5.481 5.528a8.564 8.564 0 0 1-4-.687 3.988 3.988 0 0 1-.2-1.2c-.02-1.177.344-2.341 1.079-2.371a14.2 14.2 0 0 0 2.96.377 3.538 3.538 0 0 0 1.286-.23 1.081 1.081 0 0 0 .067-.5c-.026-.617-.732-.617-2.223-1.056a4.455 4.455 0 0 1-3.512-4.446c-.131-3.062 1.754-5.173 5.547-5.331z" class="prefix__cls-7" data-name="Path 20104" transform="translate(-513.763 -1630.422)"/>
        <path id="prefix__Path_20105" d="M730.488 1637.693c-.059-1.41.829-2.714 3.151-2.811 1.94-.081 2.654.8 2.732 2.683.07 1.675-1.031 2.811-3.235 2.9-1.822.08-2.578-1.096-2.648-2.772zm.406 9.728c-.059-1.41.829-2.713 3.151-2.81 1.939-.081 2.655.831 2.734 2.712.07 1.675-1.032 2.78-3.237 2.873-1.823.076-2.577-1.069-2.648-2.774z" class="prefix__cls-7" data-name="Path 20105" transform="translate(-522.594 -1630.188)"/>
        <path id="prefix__Path_20106" d="M360.157 1691.622a8.521 8.521 0 0 1 4.031.656c.132 3.145-.621 4.147-1.445 4.181a25.06 25.06 0 0 0-2.719-.24 4.131 4.131 0 0 0-1.485.386 12.054 12.054 0 0 0-.487 4.553c.16 3.822 1.355 4.95 3.148 4.875a5.445 5.445 0 0 0 2.79-.882l.934 4.053a7.73 7.73 0 0 1-4.618 1.517c-4.879.2-7.264-2.641-7.554-9.577-.28-6.699 2.648-9.324 7.405-9.522z" class="prefix__cls-7" data-name="Path 20106" transform="translate(-352.734 -1655.699)"/>
        <path id="prefix__Path_20107" d="M376.442 1705.233l-.66-15.813a6.911 6.911 0 0 1 2.535-.635c1.851-.077 2.372.4 2.451 2.282l.547 13.108c.03.706.4 1.014.954.991a6.3 6.3 0 0 0 1.021-.219l.165 3.261a6.723 6.723 0 0 1-3.174.839c-2.263.095-3.727-1.139-3.839-3.814z" class="prefix__cls-7" data-name="Path 20107" transform="translate(-363.098 -1654.425)"/>
        <path id="prefix__Path_20108" d="M392.7 1687.372c1.528-.064 2.206.644 2.271 2.2.056 1.352-.728 2.327-2.932 2.419-1.617.068-2.217-.909-2.273-2.261s.725-2.266 2.934-2.358zm-2 20.575l-.6-14.372a7.36 7.36 0 0 1 2.538-.548c1.94-.081 2.375.46 2.452 2.312l.517 12.4z" class="prefix__cls-7" data-name="Path 20108" transform="translate(-369.382 -1653.791)"/>
        <path id="prefix__Path_20109" d="M408.644 1696.388c4.056-.169 5.488 2.392 5.671 6.771a24.6 24.6 0 0 1-.015 2.474l-6.5.271c.145 1.348.82 2.026 2.114 1.972a20.044 20.044 0 0 0 2.978-.595c.882-.037 1.269.772 1.34 3.183a10.509 10.509 0 0 1-5.069 1.3c-4.585.191-6.333-2.886-6.521-7.412-.183-4.467 1.77-7.788 6.002-7.964zm.1 3.765a1.957 1.957 0 0 0-.813.27 7.97 7.97 0 0 0-.272 2.661l2.284-.3c-.003-1.445-.26-2.671-1.201-2.632z" class="prefix__cls-7" data-name="Path 20109" transform="translate(-375.172 -1657.844)"/>
        <path id="prefix__Path_20110" d="M426.412 1696.095a5.839 5.839 0 0 1 2.476-.634 2 2 0 0 1 2.33 1.493 5.282 5.282 0 0 1 3.667-1.743c2.439-.1 3.643 1.232 3.753 3.877l.461 11.051-4.85.2-.408-9.787c-.031-.735-.285-1.166-1.019-1.136a1.95 1.95 0 0 0-1.331.556l.437 10.464-4.908.2z" class="prefix__cls-7" data-name="Path 20110" transform="translate(-385.864 -1657.316)"/>
        <path id="prefix__Path_20111" d="M450.394 1692.716l1.793-.075-.054-1.293c-.076-1.822 1.187-2.611 4.489-2.484l.15 3.586 2.616-.109.155 3.7-2.616.109.261 6.261c.031.763.426 1.041 1.043 1.015a3.423 3.423 0 0 0 1.4-.323l.513 3.129a7.65 7.65 0 0 1-3.784 1.041c-2.5.1-3.9-1.132-4.022-3.954l-.291-6.966-1.5.062z" class="prefix__cls-7" data-name="Path 20111" transform="translate(-396.648 -1654.458)"/>
        <path id="prefix__Path_20112" d="M486.838 1686.334a8.546 8.546 0 0 1 4.032.656c.131 3.145-.622 4.147-1.445 4.182a25.059 25.059 0 0 0-2.719-.24 4.136 4.136 0 0 0-1.485.386 12.046 12.046 0 0 0-.488 4.554c.16 3.822 1.355 4.949 3.148 4.875a5.439 5.439 0 0 0 2.79-.883l.934 4.054a7.731 7.731 0 0 1-4.618 1.517c-4.878.2-7.264-2.641-7.554-9.577-.28-6.7 2.644-9.325 7.405-9.524z" class="prefix__cls-7" data-name="Path 20112" transform="translate(-409.697 -1653.322)"/>
        <path id="prefix__Path_20113" d="M514.913 1699.746c.206 4.938-1.741 7.668-6.443 7.865-3.645.152-5.767-2.732-5.972-7.641-.146-3.5.628-7.535 6.3-7.771 4.202-.176 5.908 2.58 6.115 7.547zm-6.012 4.078a1.884 1.884 0 0 0 .988-.305 14.013 14.013 0 0 0 .26-3.662c-.128-3.057-.456-3.867-1.573-3.821a2.122 2.122 0 0 0-1.019.277 12.359 12.359 0 0 0-.259 3.662c.127 3.056.515 3.895 1.602 3.849z" class="prefix__cls-7" data-name="Path 20113" transform="translate(-420.07 -1655.96)"/>
        <path id="prefix__Path_20114" d="M527.458 1691.641a6.639 6.639 0 0 1 2.418-.631 1.951 1.951 0 0 1 2.329 1.493 5.74 5.74 0 0 1 3.784-1.748 2.7 2.7 0 0 1 2.922 1.585 6.53 6.53 0 0 1 3.955-1.873c2.851-.119 3.449 1.506 3.588 4.826l.422 10.111-4.791.2-.4-9.641c-.037-.881-.17-1.259-.934-1.227a3.047 3.047 0 0 0-1.3.526l.436 10.434-4.82.2-.4-9.64c-.037-.881-.141-1.26-.876-1.229a3.478 3.478 0 0 0-1.332.527l.435 10.434-4.82.2z" class="prefix__cls-7" data-name="Path 20114" transform="translate(-431.301 -1655.182)"/>
        <path id="prefix__Path_20115" d="M565.432 1690.056a6.64 6.64 0 0 1 2.418-.631 1.952 1.952 0 0 1 2.329 1.493 5.737 5.737 0 0 1 3.784-1.748 2.7 2.7 0 0 1 2.922 1.586 6.529 6.529 0 0 1 3.956-1.873c2.851-.119 3.448 1.506 3.587 4.827l.422 10.11-4.791.2-.4-9.64c-.037-.882-.171-1.259-.934-1.227a3.028 3.028 0 0 0-1.3.526l.435 10.433-4.82.2-.4-9.641c-.037-.881-.141-1.26-.876-1.229a3.48 3.48 0 0 0-1.332.527l.435 10.434-4.82.2z" class="prefix__cls-7" data-name="Path 20115" transform="translate(-448.376 -1654.47)"/>
        <path id="prefix__Path_20116" d="M615.858 1702.508a5.821 5.821 0 0 1-2.619.757 1.763 1.763 0 0 1-2.125-1.53 5.28 5.28 0 0 1-3.635 1.771c-2.381.1-3.737-1.345-3.856-4.2l-.445-10.669a15.782 15.782 0 0 1 2.255-.3c1.852-.077 2.628.184 2.71 2.153l.312 7.466c.039.941.317 1.253.964 1.226a2.375 2.375 0 0 0 1.444-.679l-.428-10.258 4.82-.2z" class="prefix__cls-7" data-name="Path 20116" transform="translate(-465.349 -1654.097)"/>
        <path id="prefix__Path_20117" d="M629.041 1687.639a5.835 5.835 0 0 1 2.476-.633 2 2 0 0 1 2.33 1.493 5.286 5.286 0 0 1 3.666-1.743c2.44-.1 3.643 1.232 3.754 3.878l.461 11.051-4.85.2-.408-9.787c-.031-.735-.284-1.166-1.019-1.135a1.948 1.948 0 0 0-1.331.556l.437 10.464-4.909.2z" class="prefix__cls-7" data-name="Path 20117" transform="translate(-476.979 -1653.514)"/>
        <path id="prefix__Path_20118" d="M657.063 1676.341c1.528-.064 2.206.644 2.271 2.2.057 1.352-.727 2.327-2.932 2.419-1.616.068-2.216-.909-2.273-2.261s.729-2.266 2.934-2.358zm-2 20.575l-.6-14.372A7.375 7.375 0 0 1 657 1682c1.94-.081 2.375.459 2.452 2.312l.517 12.4z" class="prefix__cls-7" data-name="Path 20118" transform="translate(-488.259 -1648.831)"/>
        <path id="prefix__Path_20119" d="M672.983 1685.359a6.368 6.368 0 0 1 3.655.819c.094 2.234-.352 3.548-1.293 3.587-.558.024-1.194-.392-2.046-.356a2.523 2.523 0 0 0-.788.18 9.481 9.481 0 0 0-.445 3.463c.111 2.646 1.039 3.725 2.42 3.668a5.148 5.148 0 0 0 2.124-.619l.578 3.274a6.468 6.468 0 0 1-3.858 1.368c-3.586.15-6.088-1.954-6.312-7.333-.218-5.29 2.055-7.888 5.965-8.051z" class="prefix__cls-7" data-name="Path 20119" transform="translate(-494.049 -1652.885)"/>
        <path id="prefix__Path_20120" d="M695.6 1699.808c-1.353.057-2.074-.3-2.309-1.7a3.842 3.842 0 0 1-3.423 1.939c-2.2.092-3.629-1.585-3.742-4.289-.157-3.762 2.125-4.829 6.431-5.362-.054-1.293-.166-1.848-1.429-1.8-1.058.045-2.216.534-3.185.575-1.264.053-1.745-.9-1.871-3.19a15.491 15.491 0 0 1 6.065-1.431c3.409-.142 5.08 1.084 5.238 4.875l.416 9.963a7.527 7.527 0 0 1-2.191.42zm-4.156-3.625a1.967 1.967 0 0 0 1.328-.614l-.1-2.44a16.174 16.174 0 0 0-2.076.352 3.423 3.423 0 0 0-.209 1.333c.039.886.443 1.394 1.06 1.369z" class="prefix__cls-7" data-name="Path 20120" transform="translate(-502.625 -1652.521)"/>
        <path id="prefix__Path_20121" d="M708.3 1681.954l1.793-.075-.054-1.293c-.076-1.822 1.187-2.611 4.489-2.484l.15 3.586 2.616-.109.155 3.7-2.616.11.261 6.261c.032.763.427 1.041 1.043 1.015a3.426 3.426 0 0 0 1.4-.323l.513 3.129a7.648 7.648 0 0 1-3.784 1.041c-2.5.1-3.9-1.132-4.022-3.954l-.291-6.966-1.5.062z" class="prefix__cls-7" data-name="Path 20121" transform="translate(-512.618 -1649.619)"/>
        <path id="prefix__Path_20122" d="M729.59 1673.314c1.528-.064 2.205.644 2.27 2.2.057 1.352-.727 2.327-2.932 2.419-1.616.067-2.216-.909-2.273-2.261s.73-2.266 2.935-2.358zm-2 20.575l-.6-14.372a7.366 7.366 0 0 1 2.539-.548c1.94-.081 2.375.46 2.452 2.313l.518 12.4z" class="prefix__cls-7" data-name="Path 20122" transform="translate(-520.871 -1647.47)"/>
        <path id="prefix__Path_20123" d="M751.937 1689.855c.206 4.938-1.741 7.668-6.443 7.864-3.644.152-5.767-2.732-5.972-7.641-.146-3.5.627-7.535 6.3-7.771 4.203-.175 5.908 2.58 6.115 7.548zm-6.012 4.077a1.881 1.881 0 0 0 .988-.305 14.051 14.051 0 0 0 .259-3.661c-.128-3.057-.456-3.868-1.572-3.821a2.11 2.11 0 0 0-1.019.277 12.326 12.326 0 0 0-.26 3.663c.128 3.056.516 3.894 1.604 3.848z" class="prefix__cls-7" data-name="Path 20123" transform="translate(-526.651 -1651.512)"/>
        <path id="prefix__Path_20124" d="M764.482 1681.987a5.842 5.842 0 0 1 2.476-.633 2 2 0 0 1 2.33 1.493 5.284 5.284 0 0 1 3.666-1.744c2.44-.1 3.643 1.232 3.754 3.878l.461 11.051-4.85.2-.408-9.787c-.031-.735-.285-1.166-1.019-1.135a1.947 1.947 0 0 0-1.331.556l.437 10.464-4.909.2z" class="prefix__cls-7" data-name="Path 20124" transform="translate(-537.882 -1650.972)"/>
    </g>
    <g id="prefix__Group_6676" data-name="Group 6676" transform="translate(8.942 172.002)" style="opacity:.5;mix-blend-mode:multiply;isolation:isolate">
        <path id="prefix__Path_20125" d="M585.874 1501.158a49.948 49.948 0 0 0-3.069-14.976 50.012 50.012 0 0 1-90.582 37.335c-.144-.214-.285-.43-.426-.646-1.586-2.3-7.487-9.991-15.441-9.6l-44.4 2.179h-.017l-44.4 2.179c-7.953.39-13.074 8.617-14.426 11.066-.119.229-.238.458-.361.685a50.021 50.021 0 0 1-90.872-6.328 50.014 50.014 0 0 0 93.12 14.395c.123-.227.242-.456.361-.685 1.352-2.449 6.473-10.676 14.427-11.066l44.4-2.179h.016l44.4-2.179c7.954-.391 13.855 7.3 15.441 9.6.141.216.282.433.427.647a50.012 50.012 0 0 0 91.4-30.425z" class="prefix__cls-6" data-name="Path 20125" transform="translate(-281.877 -1486.182)"/>
    </g>
    <g id="prefix__Group_6677" data-name="Group 6677" transform="translate(117.506 34.693)">
        <path id="prefix__Path_20126" d="M479.146 1236.683a34.706 34.706 0 0 0 34.693 34.693V1253a16.313 16.313 0 0 1-16.319-16.319z" class="prefix__cls-1" data-name="Path 20126" transform="translate(-479.146 -1236.683)"/>
    </g>
</svg>
