<svg xmlns="http://www.w3.org/2000/svg" id="prefix__Vetmedin_logo" width="200" height="53.119" data-name="Vetmedin logo" viewBox="0 0 200 53.119">
    <defs>
        <style>
            .prefix__cls-1{fill:#00377a}
        </style>
    </defs>
    <g id="prefix__Group_2" data-name="Group 2">
        <path id="prefix__Path_1" d="M140.915 132.5c.991 0 1.222.174 1.165 1.164v2.561c0 .872-.174 1.106-1.107 1.106H119.15a1.256 1.256 0 0 1-.989-.291.963.963 0 0 1-.232-.641 4.07 4.07 0 0 1 .641-1.222l12.22-16c4.073-5.413 5.529-8.613 5.529-11.93a9.014 9.014 0 0 0-.525-3.086 6.327 6.327 0 0 0-6.054-4.306 7 7 0 0 0-2.85.641c-3.084 1.512-3.957 4.887-4.191 5.818l-.115.815c-.116.234-.35 1.8-1.8 1.8a1.95 1.95 0 0 1-.815-.232 2.172 2.172 0 0 1-.757-1.862 13.032 13.032 0 0 1 2.387-7.1 12.234 12.234 0 0 1 13.901-3.49 10.554 10.554 0 0 1 6.168 9.719 14.276 14.276 0 0 1-.524 3.375c-.93 3.667-3.084 6.4-5.3 9.312L124.8 132.5z" class="prefix__cls-1" data-name="Path 1" transform="translate(-38.642 -84.212)"/>
        <path id="prefix__Path_2" d="M86.108 97.049c.207-.617.361-.669.98-.669h2.167c.05 0 .774-.1.774.517a2.776 2.776 0 0 1-.259.824l-9.026 24.653c-.308.567-.308.722-.978.722h-1.7c-.722 0-.828-.155-1.084-.826l-9.337-24.549a2.148 2.148 0 0 1-.207-.773c0-.62.619-.568.722-.568h3.145c.826 0 .826.155 1.135.824l6.96 19.547z" class="prefix__cls-1" data-name="Path 2" transform="translate(-67.438 -83.639)"/>
        <path id="prefix__Path_3" d="M86.812 106.661c.361-4.18 2.115-6.087 3.764-6.963a6.573 6.573 0 0 1 2.94-.774c3.766 0 5.157 3.662 5.364 4.54a9.515 9.515 0 0 1 .206 1.236zm15.06 8.508c-.671 1.084-2.786 4.54-7.118 4.59a6.816 6.816 0 0 1-5.568-2.99 13.337 13.337 0 0 1-2.373-7.633l15.729-2.321c.672-.1 1.5-.207 1.5-1.65a11.01 11.01 0 0 0-.98-3.818 9.288 9.288 0 0 0-8.871-5.363 10.179 10.179 0 0 0-6.5 2.115c-2.373 1.8-4.848 5.155-4.848 11.811 0 8.3 3.662 11.963 7.272 13.305a11.172 11.172 0 0 0 3.971.721 10.157 10.157 0 0 0 9.746-6.909 7.4 7.4 0 0 0 .568-2.063c0-.207-.05-1.289-1.032-1.289-.721 0-.98.515-1.237 1.03z" class="prefix__cls-1" data-name="Path 3" transform="translate(-58.653 -83.861)"/>
        <path id="prefix__Path_4" d="M105.8 118.162a6.367 6.367 0 0 1 .053.981 4.5 4.5 0 0 0 1.186 3.5 3.571 3.571 0 0 0 1.6.93 2.845 2.845 0 0 0 1.134.1h.568c.465-.1.978-.209 1.339.308a1.085 1.085 0 0 1-.05 1.341 5.989 5.989 0 0 1-3.715 1.033c-2.783 0-5.413-1.239-6.343-4.077a9.53 9.53 0 0 1-.361-3.2V101.4h-2.785c-.463 0-.722.05-.773-.722v-.826c.05-.619.154-.722.824-.722h2.732v-3.146a2.084 2.084 0 0 1 .774-1.753l2.423-2.114c.155-.154.619-.567.878-.567a.523.523 0 0 1 .361.2c.207.259.154.517.154 1.085v6.291h4.54c.669 0 .773 0 .773.722v.774c0 .721-.052.774-.773.774H105.8z" class="prefix__cls-1" data-name="Path 4" transform="translate(-50.205 -86.39)"/>
        <path id="prefix__Path_5" d="M138.255 106.661c.36-4.18 2.114-6.087 3.764-6.963a6.573 6.573 0 0 1 2.94-.774c3.766 0 5.159 3.662 5.364 4.54a10.534 10.534 0 0 1 .207 1.236zm15.058 8.508c-.671 1.084-2.783 4.54-7.115 4.59a6.814 6.814 0 0 1-5.568-2.99 13.317 13.317 0 0 1-2.374-7.633l15.729-2.321c.671-.1 1.5-.207 1.5-1.65a11.081 11.081 0 0 0-.98-3.818 9.293 9.293 0 0 0-8.872-5.363 10.171 10.171 0 0 0-6.5 2.115c-2.373 1.8-4.846 5.155-4.846 11.811 0 8.3 3.66 11.963 7.268 13.305a11.187 11.187 0 0 0 3.975.721 10.157 10.157 0 0 0 9.746-6.909 7.346 7.346 0 0 0 .568-2.063c0-.207-.052-1.289-1.032-1.289-.721 0-.98.515-1.237 1.03z" class="prefix__cls-1" data-name="Path 5" transform="translate(-29.313 -83.861)"/>
        <path id="prefix__Path_6" d="M167.755 121.067c0 1.807-.309 3.045-2.167 3.714a7.411 7.411 0 0 1-2.421.361 7.916 7.916 0 0 1-6.963-4.075 15.5 15.5 0 0 1-1.547-7.117c0-5.722 2.63-8.819 4.8-10.056a6.878 6.878 0 0 1 3.353-.826 7.608 7.608 0 0 1 4.95 1.858zm0-18.978a9.82 9.82 0 0 0-5.62-1.7 10.377 10.377 0 0 0-3.97.671c-4.022 1.547-6.6 5.518-7.583 9.541a17.264 17.264 0 0 0-.567 4.59c0 5.878 2.269 9.025 4.279 10.675a12.191 12.191 0 0 0 7.787 2.475c2.786 0 7.891-.669 9.7-3.247a4.352 4.352 0 0 0 .616-2.838V89.3c.053-1.084-.463-1.032-1.029-1.032h-2.629c-1.033-.052-.983.671-.983 1.135z" class="prefix__cls-1" data-name="Path 6" transform="translate(-20.341 -88.264)"/>
        <path id="prefix__Path_7" d="M168.734 123.094c-.771 0-.721-.311-.721-.98V97.358c0-.463-.1-.98.876-.98h2.734c.876 0 .978.155.978.98v24.807c0 .826-.154.93-.978.93z" class="prefix__cls-1" data-name="Path 7" transform="translate(-10.078 -83.637)"/>
        <path id="prefix__Path_8" d="M191.039 104.907c0-2.321-.206-3.508-1.033-4.435-1.6-1.91-4.331-1.858-4.948-1.858-.363 0-3.664-.052-5.006 1.96a4.9 4.9 0 0 0-.619 2.681v19.031c0 .517 0 1.084-1.082 1.033h-2.527c-.773.05-.981-.207-.981-.98v-20.785c0-1.7.313-2.373.93-2.992 1.288-1.291 5.21-2.578 10.008-2.578a23.324 23.324 0 0 1 2.836.155c.875.154 4.95.669 6.446 4.125a10.928 10.928 0 0 1 .565 4.229v17.792c0 .826-.258 1.135-1.134 1.033h-2.374c-.828 0-1.082-.155-1.082-1.033z" class="prefix__cls-1" data-name="Path 8" transform="translate(-6.181 -83.861)"/>
        <path id="prefix__Path_9" d="M172.226 91.825A2.023 2.023 0 1 1 170.2 89.8a2.025 2.025 0 0 1 2.026 2.025z" class="prefix__cls-1" data-name="Path 9" transform="translate(-9.981 -87.387)"/>
        <g id="prefix__Group_1" data-name="Group 1" transform="translate(191.836 13.035)">
            <path id="prefix__Path_10" d="M193.71 96.565a4.1 4.1 0 1 1-.019 0zm-.019.644a3.5 3.5 0 0 0 .019 6.991 3.5 3.5 0 0 0 0-6.991zm-.769 5.889h-.733v-4.6a8.214 8.214 0 0 1 1.3-.11 2.417 2.417 0 0 1 1.432.349 1.1 1.1 0 0 1 .421.955 1.143 1.143 0 0 1-.9 1.118v.038c.4.072.678.44.773 1.118a3.734 3.734 0 0 0 .294 1.137h-.773a3.37 3.37 0 0 1-.311-1.173.861.861 0 0 0-.991-.807h-.514zm0-2.549h.532c.6 0 1.118-.221 1.118-.79 0-.4-.294-.807-1.118-.807a3.537 3.537 0 0 0-.532.036z" class="prefix__cls-1" data-name="Path 10" transform="translate(-189.6 -96.565)"/>
        </g>
    </g>
    <path id="prefix__Path_11" d="M116.658 123.588l3.665.024h.388l-.291-.382-3.656-4.785c-3.984-5.294-5.407-8.426-5.407-11.671a8.812 8.812 0 0 1 .512-3.015 6.186 6.186 0 0 1 5.92-4.213 6.849 6.849 0 0 1 2.787.627c3.018 1.481 3.872 4.782 4.1 5.692l.113.8a4.148 4.148 0 0 0 .509 1.142 1.388 1.388 0 0 0 .4.4 1.614 1.614 0 0 0 .283.126 1.451 1.451 0 0 0 .366.086.974.974 0 0 0 .149.016h.06a.942.942 0 0 0 .146-.016 1.476 1.476 0 0 0 .369-.086 1.5 1.5 0 0 0 .281-.126 1.344 1.344 0 0 0 .4-.4 4.021 4.021 0 0 0 .51-1.142l.115-.8c.228-.911 1.082-4.212 4.1-5.692a6.859 6.859 0 0 1 2.789-.627 6.185 6.185 0 0 1 5.919 4.213 8.851 8.851 0 0 1 .513 3.015c0 3.244-1.424 6.377-5.408 11.671L124.332 134.1a3.964 3.964 0 0 0-.627 1.2.951.951 0 0 0 .228.627 1.233 1.233 0 0 0 .969.284H226.4c.909 0 1.082-.229 1.082-1.084v-2.5c.057-.967-.173-1.139-1.138-1.139h-95.922l10.815-13.547c2.164-2.845 4.27-5.521 5.181-9.106a13.992 13.992 0 0 0 .512-3.3 10.324 10.324 0 0 0-6.033-9.507 11.973 11.973 0 0 0-13.6 3.415 10.271 10.271 0 0 0-.766 1.2 10.717 10.717 0 0 0-.768-1.2 11.973 11.973 0 0 0-13.6-3.415 10.324 10.324 0 0 0-6.033 9.507 13.933 13.933 0 0 0 .513 3.3c.909 3.585 3.015 6.261 5.179 9.106l4.29 5.374.223.28z" data-name="Path 11" transform="translate(-45.376 -84.33)" style="fill:#f9986a"/>
</svg>
