<svg xmlns="http://www.w3.org/2000/svg" width="100%" height="100%" viewBox="0 0 200 60.384">
    <defs>
        <style>
            .prefix__cls-1{fill:#fff}
        </style>
    </defs>
    <g id="prefix__Boehringer_Ingelheim_logo" data-name="Boehringer Ingelheim logo">
        <path id="prefix__Path_19940" d="M95.22 68.362l-7.236-5.594-7.236 5.594-1.581-2.068 8.817-6.871 8.816 6.872zm8.635 37.823V89.281h2.858v11.554A45.292 45.292 0 0 0 110.788 95a25.716 25.716 0 0 0 3.405-12.952 26.21 26.21 0 1 0-52.418 0 25.29 25.29 0 0 0 3.345 12.888 47.956 47.956 0 0 0 4.075 5.9V89.281h2.919v16.905a28.884 28.884 0 1 1 31.743 0zm-11.554 4.5v-40.2h2.859v39.526c-.912.189-1.885.489-2.86.675zm5.777-1.52V89.281H101v18.547c-.976.486-1.949.911-2.921 1.337zm-10.094 1.763c-.486 0-.973-.061-1.459-.061V70.491h2.858v40.377c-.426 0-.912.061-1.399.061zm-7.236-.912V70.491h2.858v40.134c-.973-.125-1.885-.425-2.858-.608zm-5.777-2.189V89.281h2.858V109.1a24.086 24.086 0 0 1-2.858-1.273z" class="prefix__cls-1" data-name="Path 19940" transform="translate(-59.1 -53.16)"/>
        <path id="prefix__Path_19941" d="M324.242 74.139h-4.621c.182-1.824.608-4.561 2.554-4.561 1.825.001 2.006 2.737 2.067 4.561zm3.1 1.459c-.06-3.588-.729-7.479-5.229-7.479-4.379 0-5.534 4.682-5.534 8.088 0 4.378 1.885 7.358 5.473 7.358 2.8 0 4.013-1.155 5.23-3.527l-1.338-.547a3.4 3.4 0 0 1-2.736 1.946c-2.979 0-3.466-3.405-3.587-5.838zm-13.013.061c0-6.628-4.2-7.6-5.959-7.6-4.257 0-6.02 4.378-6.02 7.966 0 4.743 2.554 7.54 5.838 7.54 3.223 0 6.142-2.737 6.142-7.905zm-14.351 2.007a5.516 5.516 0 0 0-1.52-3.892 5.656 5.656 0 0 0-3.284-1.642 5.408 5.408 0 0 0 3.649-4.986 5.331 5.331 0 0 0-1.277-3.344c-1.52-1.642-3.831-1.642-4.986-1.642-1.338 0-2.615.182-3.953.182H284.9v1.277l2.068.365v17.7l-2.068.365v1.216h3.527c.73 0 4.013.061 4.682.061 1.7 0 4.561.061 6.2-2.736a5.463 5.463 0 0 0 .67-2.924zm22.013 23.716v-1.824l-3.527.122c-1.034 0-2.068-.487-3.162-.487a4.968 4.968 0 0 0-5.23 5.047 4.456 4.456 0 0 0 2.493 4.135c-1.581.973-2.736 2.067-2.736 3.223 0 .973.669 1.581 1.7 1.946-1.095.669-2.372 1.642-2.372 3.162 0 2.25 2.8 3.1 5.351 3.1 4.682 0 7.3-2.311 7.3-5.169 0-2.615-1.581-3.466-4.2-3.588l-3.892-.182c-.243 0-1.034-.122-1.034-.547 0-.487.548-.973 1.156-1.4a5.481 5.481 0 0 0 1.7.244 4.9 4.9 0 0 0 5.047-4.926 4.821 4.821 0 0 0-1.095-2.919zm-14.229 12.952v-1.277l-1.581-.365v-9.547c0-2.311-1.216-3.831-3.709-3.831a6.414 6.414 0 0 0-3.892 1.764v-1.824h-.851l-3.77.973v1.216l1.763.244v11.067l-1.763.365v1.216h6.263v-1.277l-1.581-.365v-9.913a4.486 4.486 0 0 1 2.858-1.338c1.7 0 1.7 1.7 1.7 2.493v8.878l-1.581.3v1.216zm-15.811 0v-1.277l-1.763-.365V95l1.824-.365v-1.28h-6.992v1.338l1.946.3v17.757l-1.946.365v1.216zM311.046 75.6c0 1.946-.243 6.446-2.858 6.446-1.7 0-2.615-2.372-2.615-5.959 0-1.7.122-6.567 2.858-6.567 2.189-.002 2.615 3.586 2.615 6.08zM295.3 67.511c0 3.953-2.372 4.074-3.77 4.074h-1.52v-7.722a5.356 5.356 0 0 1 2.007-.365c1.091.002 3.283.486 3.283 4.013zm1.216 9.973a4.148 4.148 0 0 1-1.885 3.831 5.372 5.372 0 0 1-2.676.73 3.316 3.316 0 0 1-1.946-.486v-8.514h1.338c2.065 0 5.166.304 5.166 4.439zm20.918 26.878c0 1.46-.243 3.406-2.067 3.406-1.885 0-2.068-2.068-2.068-3.649 0-1.52.122-3.649 1.946-3.649 1.943 0 2.186 2.25 2.186 3.891zm2.25 11.432c0 1.337-1.946 2.372-4.439 2.372-1.824 0-3.162-.791-3.162-2.067a2.909 2.909 0 0 1 1.095-2.311 33.834 33.834 0 0 1 5.412.548c.605.12 1.091.424 1.091 1.458z" class="prefix__cls-1" data-name="Path 19941" transform="translate(-216.245 -59.424)"/>
        <path id="prefix__Path_19942" d="M456.829 102.429h-4.622c.182-1.824.608-4.561 2.554-4.561 1.824 0 2.007 2.732 2.068 4.561zm-7.6-42.323a1.946 1.946 0 1 0-1.946 1.946 1.921 1.921 0 0 0 1.945-1.946zm1.459 20.371V79.2l-1.7-.3V65.579h-.73l-3.831.973v1.034l1.642.365V78.9l-1.642.365v1.216zM442.9 67.4a1.627 1.627 0 0 0-1.763-1.763c-1.277 0-1.946.973-2.919 2.615v-2.8h-.912l-3.648.973v.975l1.763.3v11.2l-1.763.365v1.216h6.75V79.2l-2.128-.3v-7.97a3.634 3.634 0 0 1 1.885-2.554l1.581.851A2.436 2.436 0 0 0 442.9 67.4zm-11.31 13.074V79.2l-1.581-.3v-9.551c0-2.189-1.216-3.77-3.588-3.77a6.423 6.423 0 0 0-3.953 1.763V58.16h-.851l-3.77.791v1.034l1.7.365V78.9l-1.824.365v1.216h6.2V79.2l-1.459-.3v-9.79a4.206 4.206 0 0 1 2.8-1.338c1.763 0 1.763 1.763 1.763 2.98v8.209l-1.459.3v1.216zm15.628 31.074v-1.277l-1.642-.365v-9.547c0-2.189-1.155-3.709-3.588-3.709a6.109 6.109 0 0 0-3.953 1.764v-9.241h-.791l-3.831.851v1.034l1.7.3v18.612l-1.763.365v1.216h6.15v-1.277l-1.459-.365v-9.729a4.424 4.424 0 0 1 2.858-1.4c1.7 0 1.7 1.764 1.7 2.98v8.27l-1.459.3v1.216zm-15.871 0v-1.277l-1.642-.365V89.173h-.791l-3.831.851v1.034l1.7.182v18.73l-1.764.365v1.216zm28.58-7.662c-.061-3.588-.729-7.48-5.23-7.48-4.378 0-5.534 4.682-5.534 8.088 0 4.378 1.885 7.358 5.473 7.358 2.8 0 4.013-1.156 5.23-3.527l-1.338-.548a3.4 3.4 0 0 1-2.736 1.946c-2.98 0-3.466-3.405-3.588-5.838zm-36.668 0c-.061-3.588-.729-7.48-5.23-7.48-4.378 0-5.533 4.682-5.533 8.088 0 4.378 1.885 7.358 5.473 7.358 2.8 0 4.013-1.156 5.229-3.527l-1.337-.548a3.4 3.4 0 0 1-2.736 1.946c-2.98 0-3.466-3.405-3.588-5.838zm-3.1-1.46h-4.621c.182-1.824.608-4.561 2.554-4.561 1.825.003 2.008 2.735 2.069 4.564z" class="prefix__cls-1" data-name="Path 19942" transform="translate(-305.05 -56.64)"/>
        <path id="prefix__Path_19943" d="M568.57 86.929c0 1.52-.243 3.405-2.068 3.405-1.885 0-2.068-2.007-2.068-3.649 0-1.52.122-3.588 1.946-3.588 1.947.003 2.19 2.19 2.19 3.832zm28.763-3.1a1.656 1.656 0 0 0-1.763-1.763c-1.277 0-2.007.973-2.98 2.615v-2.8h-.852l-3.709.973v.973l1.763.3V95.32l-1.763.365V96.9h6.75v-1.276l-2.128-.3v-7.97A3.755 3.755 0 0 1 594.6 84.8l1.581.851c.419-.425 1.152-.911 1.152-1.823zm-24.262.122v-1.826l-3.466.122c-1.034 0-2.068-.486-3.162-.486a4.952 4.952 0 0 0-5.169 5.047 4.461 4.461 0 0 0 2.493 4.2c-1.581.973-2.8 2.007-2.8 3.162a2 2 0 0 0 1.7 1.946c-1.094.73-2.371 1.642-2.371 3.162 0 2.25 2.8 3.1 5.412 3.1 4.622 0 7.3-2.311 7.3-5.108 0-2.676-1.7-3.588-4.257-3.649l-3.892-.122c-.243 0-1.034-.182-1.034-.669 0-.365.547-.851 1.155-1.277a8.212 8.212 0 0 0 1.7.243 4.936 4.936 0 0 0 5.047-4.926 4.854 4.854 0 0 0-1.094-2.98zM558.9 96.9v-1.276l-1.581-.3v-9.551c0-2.372-1.216-3.831-3.709-3.831a6.091 6.091 0 0 0-3.892 1.763v-1.823h-.851l-3.77.973v1.216l1.763.182V95.32l-1.763.365V96.9h6.2v-1.276l-1.52-.3v-9.915a4.424 4.424 0 0 1 2.858-1.4c1.642 0 1.7 1.763 1.7 2.493v8.878l-1.581.3v1.22zm25.844 31.074V126.7l-1.7-.365v-9.608c0-2.432-1.459-3.649-3.831-3.649a5.729 5.729 0 0 0-4.074 2.007 3.7 3.7 0 0 0-3.405-1.946 6.192 6.192 0 0 0-4.134 1.761v-2.006h-.791l-3.831.973v1.033l1.763.3v11.189l-1.763.365v1.216h6.2v-1.27l-1.4-.365v-9.79a3.783 3.783 0 0 1 2.8-1.4c1.581 0 1.885 1.4 1.885 2.554v8.7l-1.7.365v1.216h6.137v-1.28l-1.52-.365V116.6a4.231 4.231 0 0 1 2.858-1.459c1.7 0 1.824 1.7 1.824 2.493v8.757l-1.642.365v1.216zm-25.3-20.432a1.908 1.908 0 0 0-1.885-1.946 2.024 2.024 0 0 0-2.007 2.007 1.946 1.946 0 1 0 3.892-.061zm1.459 20.432V126.7l-1.7-.365v-13.258h-.73l-3.831.973v.973l1.642.365v11.007l-1.642.365v1.216zm9.912-29.614c0 1.338-1.946 2.372-4.439 2.372-1.824 0-3.162-.73-3.162-2.067a3.216 3.216 0 0 1 1.095-2.311 40.808 40.808 0 0 1 5.412.547c.613.122 1.099.426 1.099 1.46zm14.716-9.121c-.061-3.588-.73-7.479-5.23-7.479-4.378 0-5.534 4.682-5.534 8.088 0 4.378 1.885 7.358 5.473 7.358 2.8 0 4.013-1.155 5.23-3.527l-1.338-.547a3.4 3.4 0 0 1-2.736 1.946c-2.98 0-3.466-3.405-3.588-5.838zm-3.1-1.459h-4.621c.182-1.824.608-4.561 2.554-4.561 1.828 0 2.01 2.737 2.071 4.561z" class="prefix__cls-1" data-name="Path 19943" transform="translate(-397.333 -73.064)"/>
    </g>
</svg>
