<svg xmlns="http://www.w3.org/2000/svg" id="prefix__Boehringer_Academy_logo" width="100%" height="100%" data-name="Boehringer Academy logo" viewBox="0 0 237.18 70.698">
    <defs>
        <style>
            .prefix__cls-1{fill:#003068}
        </style>
    </defs>
    <path id="prefix__Path_19919" d="M83.568 74.611H79.12a.317.317 0 0 1-.351-.248l-.981-3.187c-.071-.177-.139-.211-.387-.211h-4.624c-.244 0-.313.035-.384.211l-1.019 3.187c-.067.174-.138.248-.313.248h-4.414c-.316 0-.456-.175-.349-.458l6.9-21.37a.316.316 0 0 1 .352-.245h3.116a.337.337 0 0 1 .352.245l6.9 21.37c.105.282-.002.458-.35.458zm-7.741-10.793a22.453 22.453 0 0 1-.627-3.748h-.142a23.268 23.268 0 0 1-.7 3.747l-.736 2.839c-.068.211.071.42.42.42h2.139c.316 0 .454-.209.384-.42z" class="prefix__cls-1" data-name="Path 19919" transform="translate(.195 -4.293)"/>
    <path id="prefix__Path_19920" d="M98.556 73.63a6.81 6.81 0 0 1-4.59 1.47h-2.03c-4.346 0-7.044-2.591-7.044-6.373V58.6c0-3.784 2.7-6.377 7.044-6.377h2.03a6.574 6.574 0 0 1 5.114 1.927 10.692 10.692 0 0 1 1.613 2.348.411.411 0 0 1-.141.6l-3.643 1.718a.411.411 0 0 1-.561-.211c-.667-1.4-1.543-2.032-2.523-2.032h-1.89a2.1 2.1 0 0 0-2.206 2.027v10.125a2.1 2.1 0 0 0 2.207 2.03h1.89c.98 0 1.856-.665 2.523-2.065a.411.411 0 0 1 .561-.211l3.643 1.752c.245.1.245.316.141.525a9.229 9.229 0 0 1-2.138 2.874z" class="prefix__cls-1" data-name="Path 19920" transform="translate(6.499 -4.4)"/>
    <path id="prefix__Path_19921" d="M119.969 74.611h-4.447a.318.318 0 0 1-.352-.248l-.982-3.187c-.067-.177-.138-.211-.383-.211h-4.625c-.245 0-.313.035-.384.211l-1.016 3.187c-.07.174-.141.248-.316.248h-4.413c-.316 0-.456-.175-.352-.458l6.9-21.37a.314.314 0 0 1 .351-.245h3.117a.338.338 0 0 1 .351.245l6.9 21.37c.107.282.003.458-.349.458zm-7.743-10.793a22.876 22.876 0 0 1-.632-3.747h-.138a23.741 23.741 0 0 1-.7 3.747l-.736 2.839c-.07.211.071.42.42.42h2.137c.315 0 .456-.209.385-.42z" class="prefix__cls-1" data-name="Path 19921" transform="translate(12.513 -4.293)"/>
    <path id="prefix__Path_19922" d="M131.882 74.611h-8.761a.315.315 0 0 1-.349-.352V52.89a.314.314 0 0 1 .349-.352h8.761c4.272 0 7 2.556 7 6.692v8.687c.004 4.097-2.728 6.694-7 6.694zm2.172-15.7a2.16 2.16 0 0 0-2.172-2.032h-3.821c-.281 0-.385.139-.385.384v12.616c0 .245.1.349.385.349h3.821a2.085 2.085 0 0 0 2.172-2z" class="prefix__cls-1" data-name="Path 19922" transform="translate(19.317 -4.293)"/>
    <path id="prefix__Path_19923" d="M156.067 74.611h-13.384a.314.314 0 0 1-.349-.352V52.89a.313.313 0 0 1 .349-.352h13.384a.314.314 0 0 1 .349.352v3.677c0 .245-.1.316-.349.316h-8.444a.336.336 0 0 0-.385.384v3.608c0 .245.107.351.385.351h6.937a.313.313 0 0 1 .349.349v3.679a.314.314 0 0 1-.349.351h-6.937c-.278 0-.385.1-.385.352v3.923c0 .245.107.349.385.349h8.444a.315.315 0 0 1 .349.351v3.679c0 .241-.104.352-.349.352z" class="prefix__cls-1" data-name="Path 19923" transform="translate(25.936 -4.293)"/>
    <path id="prefix__Path_19924" d="M179.013 74.611h-4.029c-.246 0-.316-.107-.316-.352V70.2c0-3.014.141-5.886.316-7.531l-.142-.037a16.118 16.118 0 0 1-.875 2.978l-2.417 5.886a.447.447 0 0 1-.455.278h-2.556a.449.449 0 0 1-.456-.278l-2.382-5.92a16.707 16.707 0 0 1-.911-2.944l-.141.037c.141 1.258.351 4.447.351 7.5v4.1c0 .245-.106.352-.351.352h-4.063a.315.315 0 0 1-.349-.352V52.89a.314.314 0 0 1 .349-.352h3.994a.387.387 0 0 1 .352.21l4.413 10.929a7.13 7.13 0 0 1 .422 1.507h.141a7.63 7.63 0 0 1 .454-1.507l4.379-10.929a.337.337 0 0 1 .316-.21h3.959a.314.314 0 0 1 .349.352v21.369a.315.315 0 0 1-.352.352z" class="prefix__cls-1" data-name="Path 19924" transform="translate(31.994 -4.293)"/>
    <path id="prefix__Path_19925" d="M191.78 64.625v9.634c0 .245-.07.352-.313.352H187.3c-.245 0-.349-.107-.349-.352v-9.634l-6.518-11.562c-.174-.28-.033-.525.282-.525h4.8a.472.472 0 0 1 .454.245l3.047 5.991a.366.366 0 0 0 .7 0l3.118-5.991a.452.452 0 0 1 .418-.245h4.765c.351 0 .455.21.28.525z" class="prefix__cls-1" data-name="Path 19925" transform="translate(38.802 -4.293)"/>
    <path id="prefix__Path_19926" d="M72.192 49.76H67.66c-.159 0-.229-.067-.229-.222V35.714c0-.161.07-.23.229-.23h4.532a3.808 3.808 0 0 1 4.077 4.081v.225a3.585 3.585 0 0 1-1.427 2.563.188.188 0 0 0-.114.179c0 .07.045.115.114.185a3.918 3.918 0 0 1 1.427 2.673v.34a3.77 3.77 0 0 1-4.077 4.03zm2.037-10.426a2.058 2.058 0 0 0-2.037-2.034H69.7c-.159 0-.23.07-.23.225v3.855c0 .159.071.225.23.225h2.492a2.06 2.06 0 0 0 2.037-2.04zm0 6.122a2.055 2.055 0 0 0-2.037-2.037H69.7c-.159 0-.23.062-.23.229v4.077c0 .155.071.228.23.228h2.492a2.061 2.061 0 0 0 2.037-2.044z" class="prefix__cls-1" data-name="Path 19926" transform="translate(.591 -10.064)"/>
    <path id="prefix__Path_19927" d="M85.809 50.045h-.677a3.75 3.75 0 0 1-4.081-3.851v-7.027a3.751 3.751 0 0 1 4.081-3.851h.677a3.752 3.752 0 0 1 4.081 3.851v7.028a3.751 3.751 0 0 1-4.081 3.85zm2.041-10.878a2.065 2.065 0 0 0-2.041-2.038h-.677a2.061 2.061 0 0 0-2.041 2.038v7.028a2.058 2.058 0 0 0 2.041 2.036h.677a2.061 2.061 0 0 0 2.041-2.036z" class="prefix__cls-1" data-name="Path 19927" transform="translate(5.2 -10.121)"/>
    <path id="prefix__Path_19928" d="M102.81 49.76h-7.7c-.159 0-.229-.067-.229-.222V35.714c0-.161.07-.23.229-.23h7.7c.159 0 .229.07.229.23v1.357c0 .159-.07.228-.229.228h-5.662c-.159 0-.229.07-.229.225v3.856c0 .159.07.225.229.225h4.646c.159 0 .224.066.224.225v1.36c0 .159-.064.229-.224.229h-4.646c-.159 0-.229.062-.229.229v4.077c0 .155.07.228.229.228h5.663c.159 0 .229.066.229.221v1.365c-.001.155-.07.221-.23.221z" class="prefix__cls-1" data-name="Path 19928" transform="translate(9.879 -10.064)"/>
    <path id="prefix__Path_19929" d="M116.98 49.76h-1.58c-.157 0-.23-.067-.23-.222v-5.89c0-.167-.066-.229-.225-.229H110.3c-.159 0-.229.062-.229.229v5.89c0 .155-.066.222-.225.222h-1.586c-.159 0-.224-.067-.224-.222V35.714c0-.161.064-.23.224-.23h1.586c.159 0 .225.07.225.23v5.666c0 .159.07.225.229.225h4.644c.159 0 .225-.066.225-.225v-5.666c0-.161.074-.23.23-.23h1.585c.159 0 .225.07.225.23v13.824c-.009.156-.07.222-.229.222z" class="prefix__cls-1" data-name="Path 19929" transform="translate(14.33 -10.064)"/>
    <path id="prefix__Path_19930" d="M131.031 49.76h-1.747a.213.213 0 0 1-.2-.157l-2.109-6.049a.165.165 0 0 0-.179-.135h-2.246c-.159 0-.225.062-.225.229v5.89c0 .155-.07.222-.229.222h-1.585c-.157 0-.226-.067-.226-.222V35.714c0-.161.07-.23.226-.23h4.529a3.811 3.811 0 0 1 4.085 4.081v.225a3.947 3.947 0 0 1-1.975 3.061c-.087.046-.135.09-.135.181a3.474 3.474 0 0 0 .181.543l1.884 5.441a3.567 3.567 0 0 1 .179.565c-.004.113-.074.179-.228.179zm-1.951-10.425a2.059 2.059 0 0 0-2.044-2.036h-2.491c-.159 0-.225.07-.225.225v3.856c0 .159.066.225.225.225h2.491a2.062 2.062 0 0 0 2.044-2.04z" class="prefix__cls-1" data-name="Path 19930" transform="translate(19.151 -10.064)"/>
    <path id="prefix__Path_19931" d="M137.811 49.76h-1.586c-.165 0-.228-.067-.228-.222V35.714c0-.161.063-.23.228-.23h1.586c.159 0 .226.07.226.23v13.824c0 .156-.067.222-.226.222z" class="prefix__cls-1" data-name="Path 19931" transform="translate(23.792 -10.064)"/>
    <path id="prefix__Path_19932" d="M153.847 49.76H152.4a.252.252 0 0 1-.209-.111l-4.822-8.768c-.091-.161-.347-.638-.416-.819l-.084.025c.047.539.063 3.466.063 5.252v4.2c0 .155-.063.222-.222.222h-1.587c-.159 0-.23-.067-.23-.222V35.714c0-.161.071-.23.23-.23h1.449a.234.234 0 0 1 .2.115l4.83 8.793c.068.114.34.633.408.814l.1-.021c-.046-.543-.074-3.465-.074-5.256v-4.215c0-.161.074-.23.229-.23h1.585c.162 0 .221.07.221.23v13.824c-.003.156-.062.222-.224.222z" class="prefix__cls-1" data-name="Path 19932" transform="translate(26.802 -10.064)"/>
    <path id="prefix__Path_19933" d="M167.769 37.785l-1.178.589a1.22 1.22 0 0 1-.384.159.211.211 0 0 1-.181-.135 2.132 2.132 0 0 0-1.88-1.27h-1.092a2.063 2.063 0 0 0-2.036 2.038v7.028a2.059 2.059 0 0 0 2.036 2.036h.683a2.059 2.059 0 0 0 2.042-2.036v-1.476c0-.155-.071-.224-.23-.224h-2.265c-.159 0-.23-.071-.23-.226v-1.361c0-.159.071-.229.23-.229h4.3c.163 0 .226.07.226.229v3.287a3.75 3.75 0 0 1-4.078 3.851h-.683a3.749 3.749 0 0 1-4.075-3.851v-7.027a3.75 3.75 0 0 1 4.075-3.851h1.092a3.885 3.885 0 0 1 3.215 1.357 3.208 3.208 0 0 1 .546.907.212.212 0 0 1-.133.205z" class="prefix__cls-1" data-name="Path 19933" transform="translate(31.569 -10.121)"/>
    <path id="prefix__Path_19934" d="M180.732 49.76h-7.709c-.159 0-.224-.067-.224-.222V35.714c0-.161.064-.23.224-.23h7.709c.155 0 .226.07.226.23v1.357c0 .159-.071.228-.226.228h-5.665c-.163 0-.228.07-.228.225v3.856c0 .159.064.225.228.225h4.64c.159 0 .229.066.229.225v1.36c0 .159-.07.229-.229.229h-4.64c-.163 0-.228.062-.228.229v4.077c0 .155.064.228.228.228h5.665c.155 0 .226.066.226.221v1.365c0 .155-.071.221-.226.221z" class="prefix__cls-1" data-name="Path 19934" transform="translate(36.245 -10.064)"/>
    <path id="prefix__Path_19935" d="M194.7 49.76h-1.741a.218.218 0 0 1-.207-.157l-2.109-6.049a.166.166 0 0 0-.181-.135h-2.246c-.155 0-.224.062-.224.229v5.89c0 .155-.067.222-.226.222h-1.586c-.159 0-.228-.067-.228-.222V35.714c0-.161.068-.23.228-.23h4.536a3.807 3.807 0 0 1 4.075 4.081v.225a3.943 3.943 0 0 1-1.971 3.061c-.092.046-.134.09-.134.181a3.417 3.417 0 0 0 .179.543l1.88 5.441a3.216 3.216 0 0 1 .181.565c-.004.113-.075.179-.226.179zm-1.949-10.426a2.058 2.058 0 0 0-2.036-2.036h-2.5c-.155 0-.224.07-.224.225v3.857c0 .159.068.225.224.225h2.5a2.061 2.061 0 0 0 2.036-2.04z" class="prefix__cls-1" data-name="Path 19935" transform="translate(40.695 -10.064)"/>
    <g id="prefix__Group_6537" data-name="Group 6537">
        <path id="prefix__Path_19936" d="M58.146 42.236a4.625 4.625 0 0 0-4.407 3.221h-8.927a6.334 6.334 0 0 0-3.569 1.1V31.646a4.625 4.625 0 1 0-2.808 0v53.089h2.808v-32.9a3.573 3.573 0 0 1 3.569-3.569h1.527a3.573 3.573 0 0 1 3.561 3.327 4.625 4.625 0 1 0 2.811 0 6.341 6.341 0 0 0-1.091-3.323h2.119a4.625 4.625 0 1 0 4.407-6.029z" data-name="Path 19936" transform="translate(-10.311 -14.419)" style="fill:#519dd6"/>
        <path id="prefix__Path_19937" d="M50.263 35.875a4.627 4.627 0 0 0-4.409 3.225H42.71a6.347 6.347 0 0 0-3.571 1.095V25.53a4.625 4.625 0 1 0-2.807-.012v61.29h2.807V45.474A3.575 3.575 0 0 1 42.71 41.9h3.144a4.626 4.626 0 1 0 4.409-6.028z" data-name="Path 19937" transform="translate(-11.016 -16.491)" style="fill:#905394"/>
        <path id="prefix__Path_19938" d="M47.62 40.751a4.626 4.626 0 0 0-4.414 3.243 6.332 6.332 0 0 0-3.054 1.073V33.156a4.625 4.625 0 1 0-2.808.012v6.274a6.343 6.343 0 0 0-3.569-1.095h-2.896a4.626 4.626 0 1 0 0 2.807h2.895a3.574 3.574 0 0 1 3.569 3.571v39.5h2.808V50.35a3.574 3.574 0 0 1 3.072-3.535 4.626 4.626 0 1 0 4.4-6.064z" data-name="Path 19938" transform="translate(-14.835 -13.906)" style="fill:#bb0e6c"/>
        <path id="prefix__Path_19939" d="M42.343 24.032a4.625 4.625 0 1 0-6.033 4.407v23.793a6.346 6.346 0 0 0-3.569-1.095h-6.535a3.574 3.574 0 0 1-3.569-3.571v-4.642a4.625 4.625 0 1 0-2.808 0v4.643a6.384 6.384 0 0 0 6.377 6.377h.55a6.338 6.338 0 0 0-1.067 2.975 4.625 4.625 0 1 0 2.825.024 3.574 3.574 0 0 1 3.52-3h.705a3.574 3.574 0 0 1 3.569 3.569v28.309h2.807V28.442a4.628 4.628 0 0 0 3.228-4.41z" data-name="Path 19939" transform="translate(-16.607 -15.504)" style="fill:#89be3f"/>
    </g>
</svg>
