<svg xmlns="http://www.w3.org/2000/svg" viewBox="0 0 1121.62 667.14"><defs><style>.cls-1{fill:#003087;isolation:isolate;}</style></defs><g id="Layer_2" data-name="Layer 2"><g id="Layer_1-2" data-name="Layer 1"><g id="Group_6562" data-name="Group 6562"><path id="Wave" class="cls-1" d="M1121.61,342.3c0-7.25-15.38-11.6-27.43-14.74-8.44-2.2-19.44-7.22-37-18.72-25.28-16.53-47.31-29.6-67.09-30.41-20-.82-20-32.87-44.65-32.87-13.18,0-4.93-40.27-42.46-40-21.92.16-29.16,59.72-37.28,59.72-12.33,0-12.33-23.56-23-23.83-9-.23-10.68,38.62-19.45,38.62-9.06,0-2.19-20.81-15.07-20.54-7.1.15-4.11-31.23-16.43-31.23-14.07,0-16.16,40.39-24.67,14.24-16.71-51.35-40.92-128.2-60-129.29-41.15-2.35-35.72,108.9-54.24,61.68-7.58-19.34-11.52-9.74-17.08,3S623,206.65,609,200c-19.52-9.28-28.81,84.53-44.89,61.21-17.49-25.36-4-74.82-40.27-65.74-19.72,4.93-41.62-59.07-50.1-89.58C470,92.61,461.75,71.52,451.38,51.64,437.33,24.69,419.42,0,403.82,0c-16.77,0-32.88,17.6-52.23,53-14.48,26.49-21.06,48.63-25.82,77.48-4.87,29.58-21.14,81.27-43.07,83.21-16.12,1.43-20.23-38.78-45.71-38.78-27.94,0-37,43.5-66.18,55.83-16.12,6.8-31.51,36.34-40.71,50.26-11.55,17.48-19.16,25.11-37.9,37.12-9.25,5.93-23.35,10-48.54,13.28S0,335.12,0,345s25,9,59.48,18.74,55.89-10.5,74.52,35.7c5.76,14.26,23.67,49.95,37.65,49.95,14.79,0,24.6-43.9,32.87-41.09,11.77,4,11.11,40.27,29,43.91,19,3.86,25.55,31.1,33.41,43.2,17,26.2,36.59,28,41.27,58.44,3.13,20.41,23.27,62,33.52,62.37,25.08.82,14.28-73.09,41.51-85.47,18.08-8.22,22.67-48.48,30.41-48.48,15.62,0,13.15,141.86,39.95,143,14.28.64,20.57-29.76,32.37-2.83,9.91,22.63,13.46,44.7,31.23,44.68,25.5,0,31.22-76.43,47.66-99.83,25-35.58,31.79-79.9,63.8-93.2,8.85-3.67,11.07-14.17,18.5-26.56,4.88-8.15,7.43-17.46,12-25.48,7-12.36,20.54,4.76,26.47,47,3.24,23.1,12.27,65.79,31.85,74.68,27.36,12.42,22.44,92.75,64.77,93.81,31.63.79,18.2-54,44.94-65.42,14.86-6.38,22.67-55.14,29.08-67.27,9.38-17.73,22.36-34.65,29.3-13.56,8.1,24.62,17.16,59.19,35.6,51,8.5-3.78,13.29-23.07,25-39.52,12.71-17.83,14-29.62,32.65-39.42,6.95-3.66,12-18.23,16.07-32.84,3.24-11.76-.24-29.65,8-29.65,21,0,20.59-31.23,36.44-37.95,12.23-5.19,25.88-7.47,39.15-8.34C1100.26,353.17,1122.14,350.3,1121.61,342.3Z"/></g></g></g></svg>