<?xml version="1.0" encoding="utf-8"?>
<!-- Generator: Adobe Illustrator 24.1.2, SVG Export Plug-In . SVG Version: 6.00 Build 0)  -->
<svg version="1.1" id="Layer_1" xmlns="http://www.w3.org/2000/svg" xmlns:xlink="http://www.w3.org/1999/xlink" x="0px" y="0px"
	 viewBox="0 0 3000 1600" style="enable-background:new 0 0 3000 1600;" xml:space="preserve">
<style type="text/css">
	.st0{display:none;}
	.st1{fill:#7AD6EB;}
	.st2{fill:none;}
	.st3{opacity:0.4;fill:#7AD6EB;enable-background:new    ;}
</style>
<g id="frYnt5.tif_1_" class="st0">
	
		<image style="display:inline;overflow:visible;enable-background:new    ;" width="1779" height="1882" id="Layer_1_2_" xlink:href="62CDEC402F4C7D32.png"  transform="matrix(0.782 0 0 0.782 1262.0615 -390.4894)">
	</image>
</g>
<rect id="Rectangle_9257" y="374.5" class="st1" width="3000" height="1225.5"/>
<path id="Path_19988" class="st1" d="M1101.1,230.6c-4-2.6-8.2-5-12.6-7.1c0.1,0,0.1-0.1,0.1-0.1s-0.2,0-0.4,0
	c-2.4-1.1-4.8-2-7.4-2.7c-7.3-2-15.5-1.6-21.7,2.6c-7.2,5-9.9,15.1-11.1,23.8l-0.7,1.7l-0.6,1.5l-0.6,1.9c-0.4,1.3-0.9,2.9-1.4,4.6
	c-0.2,0.9-0.5,1.8-0.7,2.7c-0.2,0.9-0.5,1.9-0.7,2.9c-0.5,2-0.9,4.2-1.4,6.5c-0.8,4.6-1.5,9.8-2,15.2c-0.4,5.4-0.6,10.6-0.7,15.3
	c0,4.7,0.1,8.9,0.3,12.5c0.1,1.1,0.1,2.1,0.2,3h-5.2c0-8.4,0-22.8,0-39.3c1.8-2.5,3.3-5.1,4.6-7.9l0,0c0,0,0,0,0-0.1
	c3.1-6.4,4.9-13.3,5.3-20.4c0.1,0.1,0.2,0.2,0.3,0.2s-0.1-0.1-0.2-0.3c0.1-1.3,0.1-2.7,0.1-4c-0.1-3.1-0.5-6.2-2.2-8.8
	c-1.6-2.4-5.2-5-8-4.4c-0.1-6.4-0.1-10.4-0.2-11c0.1-0.1,0.1-0.3,0.2-0.4c4.4-6.9,4.3-16.3,0.3-23.4c-2.9-5-7.3-8.8-12.7-10.9
	c0-0.2-0.1-0.3-0.1-0.3s0,0.1-0.1,0.3c-2.4-0.9-4.9-1.5-7.5-1.7c-5.4-0.3-10.8,0.9-15.6,3.6l0,0c-0.2,0-0.4,0-0.6,0.1
	c0.1,0,0.3,0,0.4,0c-2.5,1.4-4.8,3.1-6.8,5.2c-0.4,0.5-0.9,1.1-0.7,1.7c0,0.1,0,0.1,0.1,0.2l0,0l12.3,18.9c0.1,0.2,0.3,0.4,0.6,0.4
	c0.2,0,0.4-0.2,0.5-0.4l4.5-8.1l25.2,14.9c0,0.1,0,0.1,0,0.1l0,0c-0.1,0.7-0.1,4.7-0.1,11c-0.1,0-0.1,0-0.2,0
	c-0.3-3.3-3.6-5.8-7-5.8c-3.3,0-6.4,2-8.4,4.6l-0.1,0.1c0-0.2-0.1-0.4-0.1-0.6c0.1-1.7-0.3-3.4-1.3-4.8l-0.1-0.5
	c-0.1-0.3-0.2-0.6-0.2-0.8c0-0.1-0.1-0.2-0.1-0.3c0,0.1,0,0.2,0,0.3c0,0.2,0.1,0.5,0.2,0.8l0.1,0.2c-0.1-0.1-0.2-0.3-0.4-0.4
	c-0.3-0.2-0.5-0.4-0.8-0.5l0.3-0.1c0.2-0.1,0.4-0.1,0.6-0.2c-0.2,0-0.4,0.1-0.6,0.1l-0.4,0.1c-3.4-2.2-6.9-2.7-11.1-2.5
	c-4.5,0.3-9,1.5-13.1,3.4c-2.2,1-4.3,2-6.3,3.3c-0.4,0-0.8,0-1.2,0.1c0.3,0.1,0.6,0.1,0.9,0.1c-4.5,2.7-8.4,6.3-11.3,10.7
	c-1,1.6-1.9,3.3-2.6,5.1c-0.2,0.1-0.3,0.1-0.3,0.1s0.1,0,0.2,0c-2.2,5.4-2.2,11.5,0.1,17c0.2,0.6,0.6,1.2,1.2,1.6
	c0,0.1-0.1,0.2-0.1,0.3c0.1-0.1,0.1-0.1,0.1-0.2c0.1,0,0.1,0.1,0.2,0.1c0.8,0.2,1.6,0.2,2.4-0.2c4.4-1.4,8.9-2.9,13.2-4.6
	c0,0.2,0,0.3,0.1,0.3s0-0.1,0.1-0.4c3.5-1.4,7-2.9,10.3-4.8c2.1-1.2,4.2-2.5,6.2-4c0,0.2,0,0.4,0.1,0.6c0.1-0.2,0.1-0.5,0-0.8
	c3.9-2.9,7.4-6.4,10.1-10.4c-0.1,0.2-0.1,0.4-0.2,0.7c-0.8,2.9-1.5,5.8-2,8.8c-0.1,0.1-0.2,0.2-0.2,0.2s0.1,0,0.2-0.1
	c-0.9,5-1,10-0.5,15c0.3,2.1,0.7,4.2,1.3,6.3l0,0l0,0c1.5,5.8,4.5,11,8.7,15.3c0.9,0.9,2.2,1.8,3.4,1.6c0.6-0.2,1.1-0.4,1.5-0.9
	c1,10.6,1.6,20.1,2.1,27.4c0.1,1.2,0.1,2.3,0.2,3.3h-27.6v10h7.4l3.6,17.9c-0.1,0-0.1,0-0.1,0s0,0,0.1,0l4.9,24.2h-9.2l5.4,7.5h45.8
	l6.5-7.5h-8.9l4-18.9l0,0l0,0l4.9-23.2h6.6v-10h-27.4c-0.1-1-0.2-2-0.3-3.2c-0.6-6.6-0.8-13.2-0.6-19.8c0.2-3.6,0.5-7.2,1.1-10.8
	c0.2-1.1,0.4-2.1,0.6-3c0.3,0.8,0.7,1.6,1,2.4c1.6,3.4,3.5,6.6,5.7,9.7v0.1l0,0c2.6,3.7,5.7,7,9.3,9.9c6.5,5.2,14.6,8.5,22.9,8.4
	c-1.5-7.1,0.4-14.6-0.4-21.8c-0.1-0.5-0.2-1.1-0.3-1.6l0,0l0,0c-2.2-12.4-12.3-21.9-24.8-23.2c-2.3-0.2-5-0.6-5.9,1.5
	c-3.6-1-7.9,2.6-8.7,6.2c-0.4,2.6-0.1,5.3,0.9,7.7c-0.3,1.2-0.5,2.4-0.8,3.7c-0.6,3.6-1,7.2-1.1,10.9c-0.3,6.6,0,13.3,0.7,19.9
	c0.1,1.2,0.3,2.2,0.4,3.2h-4.8c-0.1-1-0.1-2-0.2-3c-0.2-3.5-0.3-7.8-0.2-12.5s0.3-9.9,0.7-15.3c0.5-5.4,1.2-10.5,1.9-15.1
	c0.5-2.3,0.8-4.5,1.3-6.5l0.7-2.9l0.7-2.7c0.4-1.7,0.9-3.3,1.3-4.6l0.6-1.9c0.2-0.6,0.4-1.1,0.5-1.6l0.5-1.6l0,0c0,0.1,0,0.1,0,0.2
	c0,0,0-0.1,0.1-0.2l3.6-0.3c2.7-0.2,5.3-1,7.7-2.3c1.2-0.7,2.3-1.3,3.6-1.8c2.6-0.9,5.3-1.5,8-1.5c0.1,0.1,0.2,0.1,0.2,0.1
	s0,0-0.1-0.1c2.3-0.1,4.6-0.1,6.8-0.2c5.3-0.3,10.5-1.2,15.5-2.8c0.2,0.1,0.4,0.2,0.4,0.2s-0.1-0.1-0.2-0.2c2.8-0.9,5.6-2,8.2-3.3
	c0.4-0.2,0.8-0.5,1-0.9C1103.7,232.6,1102.3,231.3,1101.1,230.6z M1018.3,229.3L1018.3,229.3v0.2
	C1018.3,229.4,1018.3,229.3,1018.3,229.3z M1029.4,311.7c-0.4-7.4-1-17.1-2-27.8c2.5-2.3,4.8-4.8,6.8-7.5
	c0.1,16.3,0.1,30.3,0.2,38.6h-4.8C1029.6,314,1029.5,312.9,1029.4,311.7z"/>
<path id="Path_19989" class="st1" d="M1916.6,83.5l-30.3-52h-19.7V0h-4.9v31.5H1842l-30.3,52h40.2c5.6,6.8,15.6,7.8,22.4,2.2
	c0.8-0.7,1.5-1.4,2.2-2.2H1916.6z"/>
<path id="Path_19990_2_" class="st1" d="M2083.6,374.5v-41.9h3.1c2.9,0,3.1-5.3,3.1-5.3h2.2c0,0,3.1-3.5-2.7-12.9
	c-5.8-9.3-7.1-12.4-7.1-12.4l-9.8-52.8c0,0-2.2-8-14.2-8h-36.3c-12,0-14.2,8-14.2,8L1998,302c0,0-1.3,3.1-7.1,12.4
	s-2.7,12.9-2.7,12.9h2.2c0,0,0.2,5.3,3.1,5.3h-22.7c2.9,0,3.1-5.3,3.1-5.3h2.2c0,0,3.1-3.5-2.7-12.9s-7.1-12.4-7.1-12.4l-9.8-52.8
	c0,0-2.2-8-14.2-8H1906c-12,0-14.2,8-14.2,8L1882,302c0,0-1.3,3.1-7.1,12.4c-5.8,9.3-2.7,12.9-2.7,12.9h2.2c0,0,0.2,5.3,3.1,5.3
	h-24.7c2.9,0,3.1-5.3,3.1-5.3h2.2c0,0,3.1-3.5-2.7-12.9c-5.8-9.3-7.1-12.4-7.1-12.4l-9.8-52.8c0,0-2.2-8-14.2-8H1788
	c-12,0-14.2,8-14.2,8L1764,302c0,0-1.3,3.1-7.1,12.4c-5.8,9.3-2.7,12.9-2.7,12.9h1.8v47.3h7.8v-34.8h311.5v34.8L2083.6,374.5
	L2083.6,374.5z"/>
<path id="Path_19991" class="st1" d="M1133.5,49.7v324.9h161.9V49.7H1133.5z M1268.3,244.2h-107.6V78.9h107.7L1268.3,244.2
	L1268.3,244.2z M1286.6,261.8h-10.9v-46.9h10.9V261.8z"/>
<rect x="1160.7" y="78.9" class="st2" width="107.7" height="165.4"/>
<path id="Path_19992" class="st3" d="M1160.7,78.9v61.4l61.4-61.4H1160.7z"/>
<path id="Path_19993" class="st3" d="M1243.7,78.9l-83,83v24.4l107.4-107.4H1243.7z"/>
</svg>
