<svg xmlns="http://www.w3.org/2000/svg" width="1366" height="717.671" viewBox="0 0 1366 717.671">
    <defs>
        <style>
            .prefix__cls-2,.prefix__cls-6{fill:#7ad6eb}.prefix__cls-6{opacity:.4}
        </style>
    </defs>
    <g id="prefix__Vetmedin_Backgrounds_plain-02" transform="translate(0 -49.8)" style="opacity:.401">
        <path id="prefix__Rectangle_9276" d="M0 0H1366V393H0z" class="prefix__cls-2" data-name="Rectangle 9276" transform="rotate(180 683 383.736)"/>
        <path id="prefix__Rectangle_9277" d="M0 0H316.2V142.8H0z" class="prefix__cls-2" data-name="Rectangle 9277" transform="translate(222.6 231.7)"/>
        <path id="prefix__Path_19997" d="M1280.8 136.6a2.04 2.04 0 0 0 1.5-1.8l1.2-10.9h.5a2.476 2.476 0 0 0 2.5-2.5v-6.8a2.476 2.476 0 0 0-2.5-2.5h-7.3a17.22 17.22 0 0 0 5.9-4.6c2.4-2.9 3.6-6.4 3.1-8.6l-.1-.4-.4-.1a8.228 8.228 0 0 0-4.2-.1c.3-2.8-.2-5.4-1.3-6.9l-.3-.3h-.4c-1.7.2-4.1 1.5-6.2 3.9a7.8 7.8 0 0 0-3.1-3.7l-.4-.2-.4.2a10.118 10.118 0 0 0-3.2 3.7c-2.1-2.4-4.5-3.8-6.1-3.9h-.4l-.3.3c-1.2 1.5-1.7 4.2-1.3 7.2a8.332 8.332 0 0 0-4.5.1l-.4.1-.1.4c-.5 2.3.8 5.7 3.2 8.6a16.816 16.816 0 0 0 5.6 4.4h-7.3a2.476 2.476 0 0 0-2.5 2.5v6.8a2.476 2.476 0 0 0 2.5 2.5h.4l.8 10.8a2.134 2.134 0 0 0 1.6 1.9h-41.6l9.1-3.4-15.6-42.7-10.7 3.9 15.4 42.1h-15.4V91.2h-11.4v-8.3h-14.9v4.7h-8.4v-2.3h-11.5v51.4H1133v9.1h183v-9.1h-35.2z" class="prefix__cls-2" data-name="Path 19997"/>
        <path id="prefix__Path_7_3_" d="M333.5 181s6.6 1.4 13.2 9.4a38 38 0 0 1-.1-16.1s6.5 4.5 9.3 16.5c3-12 9.7-16.3 9.7-16.3a37.075 37.075 0 0 1-.5 15.9c6.6-8 13.1-9.3 13.1-9.3-2.2 11.5-9.3 19.4-14.3 23.7h9.5v28.8H339v-28.8h8.8c-5-4.3-12.1-12.2-14.3-23.8" class="prefix__cls-2"/>
        <g id="prefix__Group_6660" data-name="Group 6660" style="opacity:.4">
            <g id="prefix__Group_6659" data-name="Group 6659">
                <g id="prefix__Group_6658" data-name="Group 6658">
                    <g id="prefix__Group_6657" data-name="Group 6657">
                        <path id="prefix__Path_19998" d="M246.8 184.7v26.4h-4.4v2.9h4.4v17.7h83v-16.1h-6.2v-3.5h6.2v-5.3h2.7v-2.4h-3.2v-19.7h-82.5z" class="prefix__cls-2" data-name="Path 19998"/>
                    </g>
                </g>
            </g>
        </g>
        <path id="prefix__Path_19999" d="M332.6 204.3l-3.2-.1v-19.6l-21.5.1v18.9c-6-.1-16.2-.1-27.7-.1-18.5 0-33.6.1-33.6.3s15 .3 33.6.3c11.5 0 21.6-.1 27.7-.1v7c-4.3-.1-17-.2-32-.2-18.5 0-33.6.1-33.6.3s15 .3 33.6.3c15 0 27.7-.1 32-.2v2.5c-4.3-.1-17-.2-32-.2-18.5 0-33.6.1-33.6.3s15 .3 33.6.3c15 0 27.7-.1 32-.2v9.6c-6.1-.1-16-.1-27.3-.1-18.5 0-33.6.1-33.6.3s15 .3 33.6.3c11.2 0 21.2 0 27.3-.1v7.9H330v-16.2h-6.2v-3.2l6.2.1v-5.3h2.8z" class="prefix__cls-2" data-name="Path 19999"/>
        <path id="prefix__Rectangle_9278" d="M0 0H115.1V264.6H0z" class="prefix__cls-2" data-name="Rectangle 9278" transform="translate(100 109.9)"/>
        <path id="prefix__Rectangle_9279" d="M0 0H83V112H0z" class="prefix__cls-2" data-name="Rectangle 9279" transform="translate(428.9 50.7)"/>
        <path id="prefix__Rectangle_9280" d="M0 0H66V94H0z" data-name="Rectangle 9280" transform="translate(437.4 59.7)" style="fill:#d0f5fd"/>
        <path id="prefix__Path_19991_1_" d="M937.5 49.8v324.9h161.9V49.8zm27.2 29.1h107.7v165.4H964.7zm-18.3 136h10.9v46.9h-10.9z" class="prefix__cls-2"/>
        <path id="prefix__Rectangle_9281" d="M0 0H107.7V165.4H0z" data-name="Rectangle 9281" transform="translate(964.7 78.9)" style="fill:none"/>
        <path id="prefix__Path_19992_1_" d="M1010.9 78.9l61.4 61.4V78.9z" class="prefix__cls-6"/>
        <path id="prefix__Path_19993_1_" d="M964.9 78.9l107.5 107.5V162l-83-83h-24.5z" class="prefix__cls-6"/>
    </g>
</svg>
