<svg xmlns="http://www.w3.org/2000/svg" width="45.769" height="53" viewBox="0 0 45.769 53">
    <path id="prefix__Path_19964" d="M356.488 476.661a4.768 4.768 0 0 0-6.743 0l-9.96 9.961v-31.955a4.768 4.768 0 1 0-9.536 0v31.988l-9.994-9.994a4.768 4.768 0 0 0-6.743 0 4.768 4.768 0 0 0 0 6.743l18.1 18.1A4.744 4.744 0 0 0 335 502.9a4.828 4.828 0 0 0 .951-.092c.14-.028.27-.081.406-.121a2.775 2.775 0 0 0 .935-.387c.123-.067.251-.122.37-.2a4.763 4.763 0 0 0 .726-.594l18.1-18.1a4.768 4.768 0 0 0 0-6.745z" data-name="Path 19964" transform="translate(-312.115 -449.899)" style="fill:#0d7fbc"/>
</svg>
