<svg xmlns="http://www.w3.org/2000/svg" xmlns:xlink="http://www.w3.org/1999/xlink" viewBox="0 0 47.7 60"><defs><style>.cls-1{fill:#31add3;}.cls-2{fill:#0d7fbc;}.cls-3{fill:url(#linear-gradient);}.cls-4{fill:#7ad6eb;}.cls-5{fill:#0f579f;}</style><linearGradient id="linear-gradient" x1="23.85" y1="10.91" x2="23.85" y2="60" gradientUnits="userSpaceOnUse"><stop offset="0" stop-color="#7ad6eb"/><stop offset="0.12" stop-color="#76d0e8"/><stop offset="0.29" stop-color="#6ac0de"/><stop offset="0.47" stop-color="#56a5cd"/><stop offset="0.67" stop-color="#3a7fb7"/><stop offset="0.88" stop-color="#174f9a"/><stop offset="1" stop-color="#003087"/></linearGradient></defs><g id="Layer_2" data-name="Layer 2"><g id="Layer_2-2" data-name="Layer 2"><rect class="cls-1" x="13.42" width="20.87" height="7.3" rx="3.5"/><rect class="cls-2" x="20.2" y="7.3" width="7.3" height="5.95"/><path class="cls-3" d="M40.39,19a3.61,3.61,0,0,0,1.82-1.35,3.65,3.65,0,0,0-.89-5.09l-1.36-1a3.64,3.64,0,0,0-5.74,3.1A23.88,23.88,0,1,0,40.39,19ZM23.85,53.49A17.34,17.34,0,1,1,41.19,36.15,17.34,17.34,0,0,1,23.85,53.49Z"/><path class="cls-4" d="M23.85,22.73A13.43,13.43,0,1,1,12.14,29.6l11.71,6.55Z"/><rect class="cls-5" x="20.2" y="7.3" width="7.3" height="2.5" transform="translate(47.7 17.1) rotate(180)"/><circle class="cls-4" cx="23.85" cy="36.25" r="3.75"/><path class="cls-5" d="M29.1,36.25a5.25,5.25,0,0,0-3.75-5v-9a1.5,1.5,0,1,0-3,0v9a5.22,5.22,0,0,0,0,10v3a1.5,1.5,0,0,0,3,0v-3A5.25,5.25,0,0,0,29.1,36.25ZM23.85,38.5a2.25,2.25,0,1,1,2.25-2.25A2.25,2.25,0,0,1,23.85,38.5Z"/></g></g></svg>