<svg xmlns="http://www.w3.org/2000/svg" xmlns:xlink="http://www.w3.org/1999/xlink" viewBox="0 0 45.6 52.8"><defs><style>.cls-1{fill:url(#linear-gradient);}</style><linearGradient id="linear-gradient" x1="22.8" x2="22.8" y2="52.8" gradientUnits="userSpaceOnUse"><stop offset="0" stop-color="#7ad6eb"/><stop offset="0.15" stop-color="#77d2e8"/><stop offset="0.31" stop-color="#6ec5e1"/><stop offset="0.46" stop-color="#5fb1d4"/><stop offset="0.62" stop-color="#4994c3"/><stop offset="0.79" stop-color="#2e6eac"/><stop offset="0.95" stop-color="#0c4191"/><stop offset="1" stop-color="#003087"/></linearGradient></defs><g id="Layer_2" data-name="Layer 2"><g id="Layer_2-2" data-name="Layer 2"><path class="cls-1" d="M44.2,26.66h0a4.75,4.75,0,0,0-6.71,0l-9.93,9.92V4.75a4.75,4.75,0,0,0-9.5,0V36.62l-9.95-10a4.76,4.76,0,0,0-6.72,0h0a4.76,4.76,0,0,0,0,6.72l18,18A4.77,4.77,0,0,0,22.8,52.8h0c.13,0,.25,0,.38,0a4.93,4.93,0,0,0,.54,0c.17,0,.33-.1.49-.15s.27-.07.4-.12a4.59,4.59,0,0,0,.49-.26c.11-.06.23-.11.34-.18a4.52,4.52,0,0,0,.72-.59l18-18A4.74,4.74,0,0,0,44.2,26.66Z"/></g></g></svg>