<svg xmlns="http://www.w3.org/2000/svg" width="48" height="45.884" viewBox="0 0 48 45.884">
    <g id="prefix__Group_6919" data-name="Group 6919" transform="translate(-31.04 -872.058)">
        <path id="prefix__Path_19977" d="M42.613 877.411c0 2.967-2.232 5.346-5.821 5.346h-.067a5.325 5.325 0 0 1-5.685-5.346c0-3.039 2.3-5.353 5.819-5.353s5.689 2.314 5.754 5.353zM31.644 917.94h10.291v-30.954H31.644zm35.55-31.679a10.222 10.222 0 0 0-9.276 5.112v.1h-.067a.492.492 0 0 0 .067-.1v-4.385H47.629c.134 2.9 0 30.954 0 30.954h10.289v-17.287a6.954 6.954 0 0 1 .339-2.511 5.651 5.651 0 0 1 5.275-3.767c3.729 0 5.219 2.844 5.219 7v16.563H79.04V900.2c.002-9.52-5.079-13.939-11.846-13.939z" data-name="Path 19977" style="fill:#003087"/>
    </g>
</svg>
