<svg xmlns="http://www.w3.org/2000/svg" width="47" height="47" viewBox="0 0 47 47">
    <path id="Icon_awesome-facebook-square" fill="#0f589f" d="M41.964 2.25H5.036A5.036 5.036 0 0 0 0 7.286v36.928a5.036 5.036 0 0 0 5.036 5.036h14.4V33.271h-6.611V25.75h6.609v-5.732c0-6.52 3.882-10.122 9.827-10.122a40.041 40.041 0 0 1 5.825.508v6.4h-3.28c-3.232 0-4.24 2.006-4.24 4.063v4.883h7.216l-1.154 7.521h-6.063V49.25h14.4A5.036 5.036 0 0 0 47 44.214V7.286a5.036 5.036 0 0 0-5.036-5.036z" data-name="Icon awesome-facebook-square" transform="translate(0 -2.25)"/>
</svg>
