<svg xmlns="http://www.w3.org/2000/svg" width="180" height="235.457" viewBox="0 0 180 235.457">
    <defs>
        <style>
            .prefix__cls-2{fill:#0d7fbc;opacity:.3;mix-blend-mode:multiply;isolation:isolate}
        </style>
    </defs>
    <g id="prefix__Group_6647" data-name="Group 6647" transform="translate(-540.326 -1379)">
        <g id="prefix__Group_6603" data-name="Group 6603" transform="translate(540.326 1379)">
            <path id="prefix__Path_19972" d="M285.366 281.873a14.652 14.652 0 0 0-15.141 0l-16.068 9.7a14.653 14.653 0 0 1-21.8-9.026l-4.5-18.219c-.052-.212-.137-.409-.2-.617L205.3 325.142a4.483 4.483 0 0 0 6.008 5.641l25.436-11.113a4.482 4.482 0 0 1 5.81 2.115l12.34 24.862a4.483 4.483 0 0 0 8.229-.459l23.2-63.738z" data-name="Path 19972" transform="translate(-187.796 -113.682)" style="fill:#0d7fbc"/>
            <path id="prefix__Path_19973" d="M277.229 281.873a14.652 14.652 0 0 0-15.141 0l-16.068 9.7a14.653 14.653 0 0 1-21.8-9.026l-4.5-18.219c-.052-.212-.137-.409-.2-.617l-4.332 11.906 3.911 15.823a16.3 16.3 0 0 0 24.252 10.045l17.878-10.792a16.282 16.282 0 0 1 14.391-1.193l2.567-7.052z" class="prefix__cls-2" data-name="Path 19973" transform="translate(-179.659 -113.682)"/>
            <g id="prefix__Group_6586" data-name="Group 6586" transform="translate(81.585 149.827)">
                <path id="prefix__Path_19974" d="M294.626 282.633a14.653 14.653 0 0 1-21.8 9.026l-16.068-9.7a14.652 14.652 0 0 0-15.141 0l-.844.509 23.206 63.758a4.5 4.5 0 0 0 8.269.461l12.308-24.8a4.507 4.507 0 0 1 5.841-2.126l25.368 11.086a4.506 4.506 0 0 0 6.039-5.67L299.392 263.6c-.085.274-.194.536-.263.817z" data-name="Path 19974" transform="translate(-240.778 -263.597)" style="fill:#31add3"/>
            </g>
            <path id="prefix__Polygon_3" d="M309.088 182.468a14.653 14.653 0 0 1 21.8 9.027l4.5 18.219a14.651 14.651 0 0 0 10.708 10.708l18.219 4.5a14.651 14.651 0 0 1 9.026 21.793l-9.7 16.068a14.648 14.648 0 0 0 0 15.143l9.7 16.068a14.652 14.652 0 0 1-9.026 21.793l-18.219 4.5A14.651 14.651 0 0 0 335.387 331l-4.5 18.219a14.653 14.653 0 0 1-21.8 9.026l-16.068-9.7a14.652 14.652 0 0 0-15.141 0l-16.068 9.7a14.653 14.653 0 0 1-21.8-9.026L235.514 331a14.651 14.651 0 0 0-10.706-10.708l-18.219-4.5A14.647 14.647 0 0 1 197.563 294l9.7-16.068a14.648 14.648 0 0 0 0-15.143l-9.7-16.066a14.649 14.649 0 0 1 9.027-21.793l18.219-4.505a14.649 14.649 0 0 0 10.706-10.706l4.5-18.219a14.648 14.648 0 0 1 21.8-9.028l16.07 9.7a14.652 14.652 0 0 0 15.141 0z" data-name="Polygon 3" transform="translate(-195.451 -180.356)" style="fill:#ffd31d"/>
            <g id="prefix__Ellipse_415" data-name="Ellipse 415" transform="translate(25.936 25.937)">
                <g id="prefix__Group_6587" data-name="Group 6587">
                    <path id="prefix__Path_19975" d="M274.657 324.359a64.8 64.8 0 1 1 64.8-64.8 64.871 64.871 0 0 1-64.8 64.8zm0-124.193a59.4 59.4 0 1 0 59.4 59.4 59.464 59.464 0 0 0-59.4-59.4z" data-name="Path 19975" transform="translate(-209.86 -194.766)" style="fill:#ebb80b"/>
                </g>
            </g>
            <path id="prefix__Path_19976" d="M299.392 263.6c-.085.274-.194.536-.263.817l-4.5 18.219a14.653 14.653 0 0 1-21.8 9.026l-16.068-9.7a14.652 14.652 0 0 0-15.141 0l-.844.509 2.576 7.077a16.285 16.285 0 0 1 14.264 1.231l17.88 10.792a16.3 16.3 0 0 0 24.25-10.045l3.967-16.048z" class="prefix__cls-2" data-name="Path 19976" transform="translate(-159.193 -113.77)"/>
        </g>
        <text id="prefix___00" data-name="0" transform="translate(628.457 1489.31)" style="fill:#232a36;font-size:54px;font-family:Oswald-SemiBold,Oswald;font-weight:600;letter-spacing:-.01em;opacity:.796;mix-blend-mode:multiply;isolation:isolate">
            <tspan x="-29.052" y="0">00</tspan>
        </text>
    </g>
</svg>
