<svg xmlns="http://www.w3.org/2000/svg" id="MasterLogo-light-sml" width="100%" height="100%" viewBox="0 0 251.579 200">
    <defs>
        <style>
            .cls-7{fill:#003087}.cls-3{fill:#d6d8d8}.cls-8{fill:#31add3}
        </style>
    </defs>
    <g id="iConsultVet-Cardiology-RGB-nostrap" transform="translate(.755)" style="isolation:isolate">
        <g id="Layer_2" transform="translate(-.755)">
            <g id="Logos">
                <path id="Path_20318" fill="#003087" d="M244.272 157.189a40.389 40.389 0 0 0-5.849-6.474c-6.957-7.976-8.969-11.782-9.221-15.044-.066-3.266 1.56-7.236 7.7-15.872a40.321 40.321 0 0 0 5.193-7.014 7.815 7.815 0 0 0 1.179-2.162 40.268 40.268 0 1 0-71.394-37.268l-.292.549c-1.086 1.972-5.211 8.6-11.614 8.911l-6.363.31c-3.9.195-5.277-3.27-5.628-4.431l-.066-.239c-.022-.08-.031-.129-.031-.129a24.5 24.5 0 0 0-47.577 2.34s-.554 5.1-5.229 5.317l-6.6.323c-6.4.315-11.158-5.876-12.434-7.728-.111-.177-.226-.35-.341-.523a40.268 40.268 0 1 0-67.4 44.079 7.772 7.772 0 0 0 1.395 2.039 40.6 40.6 0 0 0 5.849 6.474c6.961 7.976 8.969 11.782 9.221 15.044.066 3.266-1.56 7.236-7.7 15.872a40.222 40.222 0 0 0-5.189 7.014 7.666 7.666 0 0 0-1.179 2.167 40.266 40.266 0 0 0 71.354 37.283l.292-.554c1.086-1.972 5.211-8.6 11.614-8.911l35.75-1.772 35.75-1.772c6.4-.315 11.158 5.876 12.434 7.732.111.173.226.346.341.518a40.268 40.268 0 1 0 67.4-44.079 7.665 7.665 0 0 0-1.369-2z" transform="translate(-.634 -28.797)" style="mix-blend-mode:multiply;isolation:isolate" opacity="0.5"/>
                <path id="Path_20319" d="M241.476 0a27.916 27.916 0 1 0 27.916 27.916A27.916 27.916 0 0 0 241.476 0zm0 41.072a13.138 13.138 0 1 1 13.138-13.156 13.138 13.138 0 0 1-13.138 13.156z" class="cls-3" transform="translate(-118.594)"/>
                <path id="Path_20320" fill="#fff" d="M241.811 143.379a40.6 40.6 0 0 0-5.854-6.469c-6.957-7.976-8.969-11.787-9.221-15.044-.066-3.27 1.564-7.236 7.706-15.872a40.678 40.678 0 0 0 5.189-7.014 7.839 7.839 0 0 0 1.179-2.167 40.268 40.268 0 1 0-71.394-37.268c-.1.182-.195.368-.288.554-1.09 1.972-5.215 8.592-11.618 8.907l-6.363.315c-3.9.191-5.277-3.27-5.628-4.431l-.066-.235a.264.264 0 0 0-.031-.133 24.5 24.5 0 0 0-47.577 2.335s-.554 5.1-5.229 5.317l-6.633.332c-6.4.315-11.153-5.871-12.434-7.728l-.341-.523A40.266 40.266 0 1 0 5.82 108.347a7.865 7.865 0 0 0 1.394 2.038 40.566 40.566 0 0 0 5.849 6.469c6.961 7.976 8.969 11.787 9.221 15.044.071 3.27-1.56 7.236-7.7 15.872a40.447 40.447 0 0 0-5.189 7.014 7.724 7.724 0 0 0-1.179 2.167A40.264 40.264 0 1 0 79.6 194.218c.1-.182.195-.368.292-.554 1.09-1.959 5.207-8.605 11.614-8.907l35.75-1.772 35.75-1.772c6.407-.315 11.158 5.871 12.434 7.728.115.173.226.35.341.518a40.268 40.268 0 1 0 67.4-44.083 7.9 7.9 0 0 0-1.372-2zm-119.76-66.613a8.153 8.153 0 1 1 7.746-8.543 8.153 8.153 0 0 1-7.746 8.543z" transform="translate(.755 -21.107)"/>
                <g id="Group_7006" transform="translate(97.629 42.92)" style="mix-blend-mode:multiply;isolation:isolate">
                    <path id="Path_20321" fill="#0d7fbc" d="M221.258 96.86a24.513 24.513 0 0 0-.718 2.845 7.661 7.661 0 0 1-.97 2.761 27.916 27.916 0 0 0 20.764 6.975 27.991 27.991 0 0 1-19.076-12.58z" transform="translate(-219.57 -96.86)"/>
                </g>
                <path id="Path_20322" d="M213.52 63a27.947 27.947 0 0 0 27.916 27.916v-14.76a13.156 13.156 0 0 1-12.482-9.031 12.991 12.991 0 0 1-.643-4.125z" class="cls-3" transform="translate(-118.572 -35.084)"/>
                <path id="Path_20323" d="M73.053 175.988c2.411-.124 3.487.984 3.611 3.439.106 2.131-1.117 3.678-4.586 3.851-2.548.128-3.509-1.4-3.616-3.545s1.121-3.581 4.591-3.745zm-2.867 32.453L69.047 185.8a11.65 11.65 0 0 1 3.988-.886c3.057-.151 3.749.7 3.895 3.611l.984 19.541z" class="cls-7" transform="translate(-37.788 -98.001)"/>
                <path id="Path_20324" d="M102.831 179.97a13.426 13.426 0 0 1 6.363.979c.248 4.954-.922 6.545-2.216 6.611s-1.834-.443-4.289-.341a6.545 6.545 0 0 0-2.335.625 18.941 18.941 0 0 0-.7 7.187c.3 6.017 2.216 7.781 5.025 7.639a8.6 8.6 0 0 0 4.387-1.427l1.529 6.372a12.141 12.141 0 0 1-7.258 2.455c-7.688.39-11.485-4.063-12.035-14.99-.542-10.555 4.027-14.729 11.529-15.11z" class="cls-7" transform="translate(-50.484 -100.21)"/>
                <path id="Path_20325" d="M180.94 189.981a9.194 9.194 0 0 1 3.895-1.032c1.9-.093 2.991.408 3.691 2.322a8.313 8.313 0 0 1 5.76-2.8c3.842-.195 5.76 1.892 5.969 6.057l.886 17.414-7.644.381-.775-15.42c-.058-1.157-.465-1.83-1.622-1.772a3.044 3.044 0 0 0-2.091.886l.833 16.484-7.737.39z" class="cls-7" transform="translate(-100.429 -104.952)"/>
                <path id="Path_20326" d="M237 186.6a18.793 18.793 0 0 1 5.791.607 10.074 10.074 0 0 1 .173 1.569c.089 2.738-.718 4.218-2.154 4.289-.97.049-2.158-.443-4.054-.354a6.469 6.469 0 0 0-1.706.275 1.639 1.639 0 0 0-.1.7c.04.833.749 1.077 3.474 1.679 3.988.775 5.579 2.925 5.76 6.815.261 5.184-3.053 8.508-8.565 8.787a13.537 13.537 0 0 1-6.319-1.028 6.4 6.4 0 0 1-.328-1.888c-.044-1.852.51-3.691 1.671-3.753.926-.044 1.936.7 4.67.554a5.6 5.6 0 0 0 2.022-.377 1.719 1.719 0 0 0 .1-.8c-.049-.97-1.165-.962-3.518-1.631-3.722-1.068-5.424-3.487-5.6-6.961-.228-4.833 2.714-8.183 8.683-8.483z" class="cls-7" transform="translate(-126.809 -103.901)"/>
                <path id="Path_20327" d="M285.095 207.337a9.181 9.181 0 0 1-4.116 1.227c-1.945.1-2.809-.443-3.372-2.384a8.308 8.308 0 0 1-5.707 2.84c-3.749.191-5.907-2.069-6.133-6.558l-.846-16.838a25.523 25.523 0 0 1 3.545-.505c2.916-.146 4.143.257 4.3 3.359l.607 11.769c.075 1.48.518 1.967 1.538 1.919a3.744 3.744 0 0 0 2.264-1.09l-.811-16.16 7.595-.385z" class="cls-7" transform="translate(-147.196 -102.763)"/>
                <path id="Path_20328" d="M313.494 191.261l-1.254-24.916a10.923 10.923 0 0 1 3.988-1.037c2.916-.146 3.744.6 3.891 3.545l1.041 20.68c.058 1.112.638 1.591 1.52 1.546a10.143 10.143 0 0 0 1.6-.359l.306 5.136a10.582 10.582 0 0 1-4.989 1.369c-3.564.175-5.89-1.75-6.103-5.964z" class="cls-7" transform="translate(-173.548 -92.049)"/>
                <path id="Path_20329" d="M335 176.474l2.823-.146-.1-2.034c-.142-2.871 1.834-4.134 7.041-3.988l.288 5.65 4.121-.208.292 5.836-4.121.208.5 9.864c.062 1.205.687 1.635 1.657 1.586a5.4 5.4 0 0 0 2.216-.527l.824 4.923a12.2 12.2 0 0 1-5.947 1.693c-3.935.2-6.168-1.733-6.394-6.177l-.536-10.967-2.362.12z" class="cls-7" transform="translate(-186.223 -94.835)"/>
                <path id="Path_20330" d="M365.85 167.432a21.937 21.937 0 0 1 4.431-.736c3.518-.177 4.205.532 4.8 4.032.647 3.678 2.659 13.883 2.96 17.259l.926-.049 1.511-21.571 7.918-.4c-.093 0-3.9 29.4-3.9 29.4l-11.623.585z" class="cls-7" transform="translate(-203.403 -92.427)"/>
                <path id="Path_20331" d="M426.11 177.037c6.39-.323 8.681 3.7 9.026 10.595a35.708 35.708 0 0 1 0 3.9l-10.236.514c.248 2.122 1.329 3.182 3.359 3.08 2.362-.12 3.806-.935 4.688-.979 1.387-.071 2.007 1.2 2.154 5a16.5 16.5 0 0 1-7.976 2.118c-7.223.368-10.019-4.462-10.378-11.592-.347-7.039 2.694-12.299 9.363-12.636zm.2 5.933a3.1 3.1 0 0 0-1.276.443 12.505 12.505 0 0 0-.394 4.2l3.6-.505c-.021-2.285-.446-4.208-1.926-4.138z" class="cls-7" transform="translate(-231.732 -98.58)"/>
                <path id="Path_20332" d="M457.65 170.285l2.823-.142-.1-2.038c-.142-2.867 1.835-4.13 7.041-3.988l.288 5.65 4.121-.208.292 5.836-4.121.208.5 9.864c.062 1.205.687 1.635 1.657 1.586a5.4 5.4 0 0 0 2.216-.527l.851 4.923a12.2 12.2 0 0 1-5.947 1.693c-3.939.2-6.168-1.733-6.394-6.177l-.567-10.94-2.362.12z" class="cls-7" transform="translate(-254.525 -91.389)"/>
                <path id="Path_20333" d="M154.015 203.136c.377 7.785-2.659 12.11-10.072 12.469-5.76.279-9.124-4.249-9.5-11.964-.27-5.512.886-11.88 9.846-12.314 6.628-.337 9.345 3.988 9.726 11.809zm-4.7-3.771a.443.443 0 0 0-.4-.465l-1.094-.058a.443.443 0 0 1-.385-.372l-.886-4.639a.408.408 0 0 0-.8-.062l-.833 2.49a.443.443 0 0 1-.337.3l-1.8.275a.386.386 0 0 1-.332-.115l-2.216-2.193c-.284-.284-.727-.027-.691.4l1.245 10.666a16.706 16.706 0 0 0 .368 1.9c.962 3.447 3.611 2.814 3.611 2.814 3.7-.261 3.314-6.7 3.314-6.7a.51.51 0 0 1 .151-.536c1.01-.855 1.1-2.814 1.086-3.7zm-1.263.966a.749.749 0 0 1-.931-.505.3.3 0 0 1 .235-.417l1.108-.146a.3.3 0 0 1 .332.368.886.886 0 0 1-.744.7z" class="cls-7" transform="translate(-74.518 -106.538)"/>
                <path id="Path_20334" d="M133.989 266.593a10.165 10.165 0 0 1 4.874.687c.239 3.8-.643 5.034-1.639 5.1s-1.409-.341-3.292-.222a5.061 5.061 0 0 0-1.772.505 14.552 14.552 0 0 0-.47 5.526c.292 4.613 1.772 5.947 3.935 5.8a6.558 6.558 0 0 0 3.35-1.139l1.236 4.874a9.343 9.343 0 0 1-5.543 1.959c-5.893.377-8.862-3-9.39-11.384-.51-8.09 2.951-11.338 8.711-11.706z" class="cls-8" transform="translate(-69.403 -148.446)"/>
                <path id="Path_20335" d="M171.374 293.121c-1.631.1-2.512-.306-2.836-1.994a4.651 4.651 0 0 1-4.09 2.433c-2.659.173-4.431-1.821-4.635-5.087-.292-4.546 2.442-5.9 7.635-6.647-.1-1.564-.253-2.216-1.772-2.131-1.281.08-2.659.7-3.837.775-1.529.1-2.136-1.041-2.348-3.806a18.819 18.819 0 0 1 7.316-1.9c4.121-.261 6.173 1.174 6.465 5.76l.744 12.053a9.138 9.138 0 0 1-2.641.545zm-5.122-4.272a2.38 2.38 0 0 0 1.591-.784l-.186-2.947a20.072 20.072 0 0 0-2.5.479 4.231 4.231 0 0 0-.222 1.622c.072 1.063.572 1.675 1.317 1.63z" class="cls-8" transform="translate(-88.483 -152.996)"/>
                <path id="Path_20336" d="M195.38 273.407a6.717 6.717 0 0 1 2.836-.824c1.7-.106 2.185.753 2.614 2.473a5.047 5.047 0 0 1 4.378-2.916 15.53 15.53 0 0 1 .474 3.5c.022 1.462-.106 2.216-1.139 2.282a4.622 4.622 0 0 0-2.858 1.041l.744 11.645-5.933.381z" class="cls-8" transform="translate(-108.47 -151.552)"/>
                <path id="Path_20337" d="M226.018 263.126a4.626 4.626 0 0 1 3.23.939l-.417-6.611a9.393 9.393 0 0 1 3.128-.7c2.127-.137 2.685.222 2.845 2.707l1.347 21.38a10.893 10.893 0 0 1-2.823.465c-1.529.062-2.442-.275-2.9-1.812a5.2 5.2 0 0 1-4.028 2.255c-3.545.226-5.632-3.35-6-9.106-.369-5.534 1.572-9.256 5.618-9.517zm2.446 13.79a2.6 2.6 0 0 0 1.56-.674l-.518-8.131a3.053 3.053 0 0 0-2.734-.359 14.331 14.331 0 0 0-.284 4.542c.235 3.611.908 4.688 1.976 4.622z" class="cls-8" transform="translate(-122.38 -142.972)"/>
                <path id="Path_20338" d="M261.808 254.317c1.848-.115 2.681.722 2.8 2.605.1 1.631-.82 2.831-3.483 3-1.954.124-2.707-1.037-2.809-2.659s.824-2.778 3.492-2.946zm-1.861 24.938l-1.1-17.37a8.96 8.96 0 0 1 3.057-.727c2.34-.151 2.88.5 3.022 2.73l.957 14.99z" class="cls-8" transform="translate(-143.517 -141.62)"/>
                <path id="Path_20339" d="M293.254 276.167c.381 5.964-1.9 9.305-7.586 9.682-4.4.279-7.045-3.155-7.422-9.084-.27-4.227.558-9.128 7.413-9.562 5.078-.324 7.214 2.96 7.595 8.964zm-7.165 5.114a2.251 2.251 0 0 0 1.188-.4 16.782 16.782 0 0 0 .217-4.431c-.235-3.691-.651-4.666-2-4.577a2.53 2.53 0 0 0-1.223.363 14.947 14.947 0 0 0-.217 4.431c.231 3.674.705 4.675 2.035 4.613z" class="cls-8" transform="translate(-154.593 -148.79)"/>
                <path id="Path_20340" d="M315.469 271.959l-1.219-19.107a8.362 8.362 0 0 1 3.049-.837c2.242-.142 2.88.443 3.026 2.7l1.006 15.837c.058.851.51 1.219 1.183 1.174a7.321 7.321 0 0 0 1.227-.292l.288 3.939a8.171 8.171 0 0 1-3.82 1.1c-2.738.174-4.541-1.283-4.74-4.514z" class="cls-8" transform="translate(-174.668 -140.333)"/>
                <path id="Path_20341" d="M351.084 272.487c.377 5.964-1.905 9.305-7.586 9.682-4.4.279-7.045-3.155-7.422-9.084-.27-4.227.558-9.128 7.413-9.562 5.074-.323 7.211 2.964 7.595 8.964zm-7.165 5.091a2.264 2.264 0 0 0 1.188-.4 16.974 16.974 0 0 0 .217-4.431c-.235-3.691-.651-4.666-2-4.577a2.53 2.53 0 0 0-1.223.363 14.761 14.761 0 0 0-.217 4.431c.23 3.7.722 4.7 2.034 4.613z" class="cls-8" transform="translate(-186.798 -146.741)"/>
                <path id="Path_20342" d="M374.763 284.48l-.279-4.4a16.469 16.469 0 0 0 5.167.443 11.716 11.716 0 0 0 3.173-.558l-.164-2.557a5.813 5.813 0 0 1-3.505 1.542c-3.833.244-6.013-2.61-6.421-9-.372-5.858 2.083-8.76 5.6-8.986a5.388 5.388 0 0 1 3.828 1.329c.682-1.037 1.285-1.648 3.452-1.772a5.272 5.272 0 0 1 1.843.208l1.032 16.227c.381 6-3.08 7.653-8.122 7.976a16.373 16.373 0 0 1-5.604-.452zm6.133-10.09a2.437 2.437 0 0 0 1.524-.7l-.483-7.6a2.464 2.464 0 0 0-1.857-.629 3.056 3.056 0 0 0-.846.2 11.507 11.507 0 0 0-.341 4.125c.19 3.009.584 4.697 2.007 4.604z" class="cls-8" transform="translate(-207.215 -145.072)"/>
                <path id="Path_20343" d="M411.352 282.627l-.261-4.085a14.406 14.406 0 0 0 3.3.222 11.609 11.609 0 0 0 2.659-.443l.2-1.329-2.916.186-4.874-17.414a19.659 19.659 0 0 1 3.381-.607c2.131-.133 2.765.253 3.168 2.69l1.919 11.144.572-14.051 5.76-.368-2.5 18.358c-.443 3.416-2.45 5.721-6.855 6a10.019 10.019 0 0 1-3.553-.303z" class="cls-8" transform="translate(-227.689 -143.995)"/>
            </g>
        </g>
    </g>
</svg>
