<svg xmlns="http://www.w3.org/2000/svg" width="54" height="54" viewBox="0 0 54 54">
    <g id="prefix__Group_6897" data-name="Group 6897" transform="translate(-567.643 -1004.603)">
        <path id="prefix__Path_20206" d="M586.479 1019.34c-1.555 6.826 2.678 10.714 3.629 11.837 1.036 1.123.863 3.8-.173 4.579s-9.677 3.974-10.454 5.7a12.06 12.06 0 0 0-.921 2.8.97.97 0 0 0 .957 1.17l15.083-.081 15.17.081a.97.97 0 0 0 .957-1.17 12.109 12.109 0 0 0-.921-2.8c-.777-1.728-9.5-4.924-10.454-5.7-1.037-.778-1.209-3.456-.259-4.579s5.27-5.011 3.715-11.837c-1.987-8.64-14.342-8.64-16.329 0zm8.121-14.74a27 27 0 1 1-26.961 26.96 26.994 26.994 0 0 1 26.961-26.96z" data-name="Path 20206" style="fill:#0f579f;fill-rule:evenodd"/>
    </g>
</svg>
