<svg xmlns="http://www.w3.org/2000/svg" width="61" height="40.09" viewBox="0 0 61 40.09">
    <defs>
        <style>
            .prefix__cls-1{fill:#fff}
        </style>
    </defs>
    <g id="prefix__Group_6908" data-name="Group 6908" transform="translate(-434.5 -1011.936)">
        <path id="prefix__Path_20203" d="M464.226 1012.018a2.157 2.157 0 0 0-.645.3l-13.9 9.544a2.176 2.176 0 0 0-.944 1.794v5.936a2.255 2.255 0 0 1-1.983 2.281 2.178 2.178 0 0 1-2.363-1.976q-.009-.1-.009-.192v-3.987a2.177 2.177 0 0 0-2.177-2.177h-5.529a2.176 2.176 0 0 0-2.176 2.176v12.516a2.176 2.176 0 0 0 2.176 2.176h9.889a2.164 2.164 0 0 1 .844.171 2.115 2.115 0 0 1 .379.208h.007l15.786 10.846a2.167 2.167 0 0 0 3.319-1.194 69.8 69.8 0 0 0 0-36.933 2.167 2.167 0 0 0-2.674-1.489z" class="prefix__cls-1" data-name="Path 20203"/>
        <path id="prefix__Path_20204" d="M487.53 1012.927a3 3 0 0 0-4.336 4.147l.077.076a20.78 20.78 0 0 1 .273 29.385l-.283.283a3 3 0 0 0 2.13 5.115h.012a2.978 2.978 0 0 0 2.116-.885 27.168 27.168 0 0 0 7.975-18.958l.006-.225a27.131 27.131 0 0 0-7.97-18.938z" class="prefix__cls-1" data-name="Path 20204"/>
        <path id="prefix__Path_20205" d="M480.442 1019.588l-.01-.01a2.983 2.983 0 0 0-2.092-.85h-.04a3 3 0 0 0-2.111 5.091 11.687 11.687 0 0 1 3.439 8.235 11.339 11.339 0 0 1-3.269 8.1 3 3 0 0 0 2.1 5.151 2.966 2.966 0 0 0 2.075-.839l.072-.072a17.357 17.357 0 0 0 5.023-12.39 17.635 17.635 0 0 0-5.187-12.416z" class="prefix__cls-1" data-name="Path 20205"/>
    </g>
</svg>
