<svg xmlns="http://www.w3.org/2000/svg" width="34.242" height="33.242" viewBox="0 0 34.242 33.242">
    <defs>
        <style>
            .prefix__cls-1{fill:#003087}
        </style>
    </defs>
    <g id="prefix__Group_6665" data-name="Group 6665" transform="translate(-733.379 -711.379)">
        <g id="prefix__Group_6814" data-name="Group 6814" transform="translate(299.5 -294.936)">
            <path id="prefix__Path_20213" d="M450.094 1011.979a1.132 1.132 0 0 0-.338.16l-7.292 5.007a1.142 1.142 0 0 0-.5.941v3.114a1.183 1.183 0 0 1-1.04 1.2 1.142 1.142 0 0 1-1.24-1.037V1019.173a1.142 1.142 0 0 0-1.142-1.142h-2.9a1.141 1.141 0 0 0-1.141 1.142v6.566a1.141 1.141 0 0 0 1.141 1.141h5.188a1.137 1.137 0 0 1 .443.09 1.114 1.114 0 0 1 .2.109l8.281 5.69a1.137 1.137 0 0 0 1.741-.626 36.618 36.618 0 0 0 0-19.375 1.137 1.137 0 0 0-1.401-.789z" class="prefix__cls-1" data-name="Path 20213"/>
            <path id="prefix__Path_20214" d="M485.075 1012.489a1.574 1.574 0 0 0-2.275 2.176l.04.04a10.9 10.9 0 0 1 .143 15.415l-.148.148a1.575 1.575 0 0 0 1.117 2.683h.006a1.562 1.562 0 0 0 1.11-.464 14.252 14.252 0 0 0 4.184-9.945v-.118a14.233 14.233 0 0 0-4.177-9.935z" class="prefix__cls-1" data-name="Path 20214" transform="translate(-22.756 -.033)"/>
            <path id="prefix__Path_20215" d="M478.015 1019.179l-.005-.005a1.565 1.565 0 0 0-1.1-.446h-.022a1.574 1.574 0 0 0-1.107 2.671 6.131 6.131 0 0 1 1.8 4.32 5.949 5.949 0 0 1-1.715 4.248 1.574 1.574 0 0 0 1.1 2.7 1.556 1.556 0 0 0 1.089-.44l.038-.038a9.105 9.105 0 0 0 2.635-6.5 9.251 9.251 0 0 0-2.713-6.51z" class="prefix__cls-1" data-name="Path 20215" transform="translate(-19.414 -3.229)"/>
        </g>
        <path id="prefix__Line_30" d="M0 29L30 0" data-name="Line 30" transform="translate(735.5 713.5)" style="fill:none;stroke:#eb4559;stroke-linecap:round;stroke-width:3px"/>
    </g>
</svg>
